<?xml version="1.0" encoding="utf-8"?>
<!-- Generator: Adobe Illustrator 25.0.1, SVG Export Plug-In . SVG Version: 6.00 Build 0)  -->
<svg version="1.1" id="Calque_1" xmlns="http://www.w3.org/2000/svg" xmlns:xlink="http://www.w3.org/1999/xlink" x="0px" y="0px"
	 viewBox="0 0 464 464" style="enable-background:new 0 0 464 464;" xml:space="preserve">
<style type="text/css">
	.st0{fill:#CEAE9C;}
	.st1{fill:#FFFFFF;}
</style>
<path class="st0" d="M464,232c0,128.1-103.9,232-232,232S0,360.1,0,232S103.9,0,232,0S464,103.9,464,232z"/>
<g>
	<path class="st1" d="M225,76h14c11.6,0,21.1,9.4,21.1,21.1v119.4c0,11.6-9.4,21.1-21.1,21.1h-14c-11.6,0-21.1-9.4-21.1-21.1V97
		C203.9,85.4,213.3,76,225,76z"/>
	<path class="st1" d="M161.8,167.3v-42.2c-37.9,23.5-70.3,63.2-70.3,119.4C91.5,318.3,158.3,378,232,378s140.5-59.8,140.5-133.5
		c0-56.2-32.3-95.9-70.3-119.4v42.2c17.4,17.7,35.1,42.1,35.1,77.3c0,54.3-51.1,98.4-105.4,98.4s-105.4-44-105.4-98.4
		C126.6,209.4,144.4,185,161.8,167.3z"/>
</g>
</svg>
