<?xml version="1.0" encoding="utf-8"?>
<!-- Generator: Adobe Illustrator 25.0.1, SVG Export Plug-In . SVG Version: 6.00 Build 0)  -->
<svg version="1.1" xmlns="http://www.w3.org/2000/svg" xmlns:xlink="http://www.w3.org/1999/xlink" x="0px" y="0px"
	 viewBox="0 0 512 512" style="enable-background:new 0 0 512 512;" xml:space="preserve">
<style type="text/css">
	.st0{fill:#F44336;}
</style>
<g id="Calque_2">
</g>
<g id="Layer_1">
	<g>
		<path class="st0" d="M321.3,292.4C321.3,292.4,321.3,292.4,321.3,292.4c-0.2,0-0.4,0-0.6,0l-0.1,0c-26.6,0-48.2,21.6-48.2,48.2
			c0,26.6,21.6,48.2,48.2,48.2c26.6,0,48.2-21.6,48.2-48.2C368.9,314.2,347.6,292.7,321.3,292.4z M348.9,356.5
			c3.4,3.4,3.4,8.8,0,12.2c-1.7,1.7-3.9,2.5-6.1,2.5c-2.2,0-4.4-0.8-6.1-2.5l-16-16l-16,16c-1.7,1.7-3.9,2.5-6.1,2.5
			c-2.2,0-4.4-0.8-6.1-2.5c-3.4-3.4-3.4-8.8,0-12.2l16-16l-16-16c-3.4-3.4-3.4-8.8,0-12.2c3.4-3.4,8.8-3.4,12.2,0l16,16l16-16
			c3.4-3.4,8.8-3.4,12.2,0c3.4,3.4,3.4,8.8,0,12.2l-16,16L348.9,356.5z"/>
		<path class="st0" d="M477.1,0H34.9C15.6,0,0,15.6,0,34.9v442.1C0,496.4,15.6,512,34.9,512h442.1c19.3,0,34.9-15.6,34.9-34.9V34.9
			C512,15.6,496.4,0,477.1,0z M189.9,114.6c0-4.8,3.9-8.6,8.6-8.6h82.6c4.8,0,8.6,3.9,8.6,8.6v18.1c0,4.8-3.9,8.6-8.6,8.6
			c-4.8,0-8.6-3.9-8.6-8.6v-9.5h-65.4v9.5c0,4.8-3.9,8.6-8.6,8.6c-4.8,0-8.6-3.9-8.6-8.6V114.6z M320.7,406
			c-16.8,0-32.1-6.4-43.7-16.8H167.5c-4.4,0-8.1-3.4-8.6-7.8l-15.3-160.6h-9.2c-4.8,0-8.6-3.9-8.6-8.6v-46.8c0-4.8,3.9-8.6,8.6-8.6
			h210.8c4.8,0,8.6,3.9,8.6,8.6v46.8c0,4.8-3.9,8.6-8.6,8.6H160.9L175.3,372h88c-5.1-9.3-8.1-20-8.1-31.4c0-19.6,8.7-37.2,22.3-49.2
			l3.5-35.3c0.5-4.7,4.7-8.2,9.4-7.7c4.7,0.5,8.2,4.7,7.7,9.4l-2.2,22.2c5.5-2.2,11.3-3.8,17.4-4.4l1.8-19.4
			c0.5-4.7,4.6-8.2,9.4-7.8c4.7,0.5,8.2,4.7,7.8,9.4l-1.7,18.1c31.3,4.8,55.4,32,55.4,64.7C386.2,376.6,356.8,406,320.7,406z
			 M248.4,256v90.2c0,4.8-3.9,8.6-8.6,8.6c-4.8,0-8.6-3.9-8.6-8.6V256c0-4.8,3.9-8.6,8.6-8.6S248.4,251.2,248.4,256z M199.6,354.7
			c-0.3,0-0.6,0-0.8,0c-4.4,0-8.1-3.3-8.6-7.8l-8.5-89.2c-0.5-4.7,3-8.9,7.8-9.4c4.7-0.4,8.9,3,9.4,7.8l8.5,89.2
			C207.8,350.1,204.4,354.3,199.6,354.7z"/>
	</g>
</g>
</svg>
