<?xml version="1.0" encoding="utf-8"?>
<!-- Generator: Adobe Illustrator 25.0.1, SVG Export Plug-In . SVG Version: 6.00 Build 0)  -->
<svg version="1.1" id="Layer_1" xmlns="http://www.w3.org/2000/svg" xmlns:xlink="http://www.w3.org/1999/xlink" x="0px" y="0px"
	 viewBox="0 0 512 512" style="enable-background:new 0 0 512 512;" xml:space="preserve">
<style type="text/css">
	.st0{fill:#C0392B;stroke:#C0392B;stroke-width:5;stroke-miterlimit:10;}
</style>
<g>
	<g>
		<g>
			<path class="st0" d="M421.7,55.8h-89.5V21.8c0-9-7.3-16.3-16.3-16.3H196.2c-9,0-16.3,7.3-16.3,16.3v33.9H90.3
				c-9,0-16.3,7.3-16.3,16.3v50.3c0,9,7.3,16.3,16.3,16.3h5l14.9,352.2c0.4,8.7,7.6,15.6,16.3,15.6h258.9c8.8,0,16-6.9,16.3-15.6
				l14.9-352.2h5c9,0,16.3-7.3,16.3-16.3V72.1C438,63.1,430.7,55.8,421.7,55.8z M212.5,38.2h87v17.6h-87V38.2z M369.8,473.8H142.2
				L128,138.7h256L369.8,473.8z M405.3,106c-14.8,0-289.8,0-298.6,0V88.4h298.6V106z"/>
		</g>
	</g>
	<g>
		<g>
			<path class="st0" d="M190.3,188.8c-9,0-16.3,7.3-16.3,16.3v202.3c0,9,7.3,16.3,16.3,16.3c9,0,16.3-7.3,16.3-16.3V205.1
				C206.6,196.1,199.3,188.8,190.3,188.8z"/>
		</g>
	</g>
	<g>
		<g>
			<path class="st0" d="M256,188.8c-9,0-16.3,7.3-16.3,16.3v202.3c0,9,7.3,16.3,16.3,16.3c9,0,16.3-7.3,16.3-16.3V205.1
				C272.3,196.1,265,188.8,256,188.8z"/>
		</g>
	</g>
	<g>
		<g>
			<path class="st0" d="M321.7,188.8c-9,0-16.3,7.3-16.3,16.3v202.3c0,9,7.3,16.3,16.3,16.3c9,0,16.3-7.3,16.3-16.3V205.1
				C338.1,196.1,330.7,188.8,321.7,188.8z"/>
		</g>
	</g>
</g>
</svg>
