<?xml version="1.0" encoding="utf-8"?>
<!-- Generator: Adobe Illustrator 25.0.1, SVG Export Plug-In . SVG Version: 6.00 Build 0)  -->
<svg version="1.1" id="Capa_1" xmlns="http://www.w3.org/2000/svg" xmlns:xlink="http://www.w3.org/1999/xlink" x="0px" y="0px"
	 viewBox="0 0 356.5 356.5" style="enable-background:new 0 0 356.5 356.5;" xml:space="preserve">
<style type="text/css">
	.st0{stroke:#000000;stroke-width:13;stroke-miterlimit:10;}
</style>
<g>
	<g>
		<path d="M294,7.2H62.5C28,7.2,0,35.3,0,69.7v142.8c0,29.4,20.4,54.1,47.7,60.7c7.1,1.3,14-3.6,15-10.7c1-7.1-4.3-13.8-11.6-14.3
			C36,243.4,25,229.2,25,212.5V69.7c0-20.7,16.8-37.5,37.5-37.5H294c20.7,0,37.5,16.8,37.5,37.5v142.8c0,17.2-11.7,31.8-27.6,36.2
			c-6.7,0.2-12.2,5.6-12.6,12.2c-0.3,6.8,4.8,12.8,11.7,13.5c30.2-4.4,53.5-30.4,53.5-61.8V69.7C356.5,35.3,328.4,7.2,294,7.2z"/>
		<path d="M270.2,95.7h-184c-6.9,0-12.5,5.6-12.5,12.5c0,6.9,5.6,12.5,12.5,12.5h184c6.9,0,12.5-5.6,12.5-12.5
			C282.7,101.3,277.1,95.7,270.2,95.7z"/>
		<path d="M270.2,165.7h-184c-6.9,0-12.5,5.6-12.5,12.5s5.6,12.5,12.5,12.5h184c6.9,0,12.5-5.6,12.5-12.5S277.1,165.7,270.2,165.7z"
			/>
	</g>
</g>
<g>
	<g>
		<path class="st0" d="M182.2,349l66.8-68.5c2.1-2.3,2.1-5.9-0.1-8.1c-2.2-2.1-5.6-2.1-7.7,0l-62.8,64.5l-62.8-64.5
			c-2.2-2.2-5.7-2.2-7.9,0c-2.2,2.2-2.2,5.8,0,8.1l66.8,68.5C176.5,351.3,180,351.3,182.2,349z"/>
	</g>
</g>
</svg>
