<?xml version="1.0" encoding="utf-8"?>
<!-- Generator: Adobe Illustrator 25.0.0, SVG Export Plug-In . SVG Version: 6.00 Build 0)  -->
<svg version="1.1" id="Calque_1" xmlns="http://www.w3.org/2000/svg" xmlns:xlink="http://www.w3.org/1999/xlink" x="0px" y="0px"
	 viewBox="0 0 1920 1080" style="enable-background:new 0 0 1920 1080;" xml:space="preserve">
<style type="text/css">
	.st0{fill:#1B1464;}
	.st1{fill:#0071BC;}
	.st2{filter:url(#Adobe_OpacityMaskFilter);}
	.st3{mask:url(#XMLID_2_);fill:#1B1464;}
	.st4{fill:#FFFFFF;stroke:#FFFFFF;stroke-miterlimit:10;}
	.st5{filter:url(#Adobe_OpacityMaskFilter_1_);}
	.st6{mask:url(#XMLID_3_);fill:#1B1464;}
</style>
<g>
	<g id="XMLID_594_">
		<polygon id="XMLID_676_" class="st0" points="316.48,592.17 308.02,589.1 314.52,539.09 324.36,585.4 		"/>
		<polygon id="XMLID_675_" class="st0" points="515.92,544.21 502.77,521.53 518.01,528 		"/>
		<path id="XMLID_674_" class="st0" d="M526.27,615.9c0,0-13.82,1.6-12.24,0.72c1.58-0.89,10.18-13.05,10.18-13.05L526.27,615.9z"/>
		<polygon id="XMLID_673_" class="st0" points="503.69,580.01 479.01,593.89 480.69,567.5 		"/>
		<path id="XMLID_672_" class="st0" d="M474.61,525.03c-2.67-0.04-41.66,12.25-41.66,12.25l-25.16-37.9l40.83,20.99L474.61,525.03z"
			/>
		<path id="XMLID_708_" class="st0" d="M544.8,819.37c-2.67-0.04-41.66,12.25-41.66,12.25l-18.03-23.66l25.52,6.12L544.8,819.37z"/>
		<path id="XMLID_671_" class="st0" d="M394.04,626.9c-1.74-0.9-29.78-5.57-29.78-5.57l10.9-14.47l24.19,15.04L394.04,626.9z"/>
		<polygon id="XMLID_670_" class="st0" points="467.15,569.71 500.1,590.12 488,625.47 459.42,608.77 		"/>
		<polygon id="XMLID_669_" class="st0" points="266,628.81 270.04,654.92 260.46,660.11 242.75,655.96 		"/>
		<polygon id="XMLID_668_" class="st0" points="427.85,853.85 430.35,869.98 424.43,873.18 413.49,870.62 		"/>
		<polygon id="XMLID_667_" class="st0" points="499.28,291.75 501.44,311.26 494.06,320.52 485.77,309.76 		"/>
		<polygon id="XMLID_666_" class="st0" points="500.97,543.37 478.52,517.05 469.16,540.44 		"/>
		<path id="XMLID_665_" class="st0" d="M545.27,501.09l3.52,11.9c0,0-13.29,6.32-14.71,3.26c-1.42-3.06-7.2-14.84-7.2-14.84
			L545.27,501.09z"/>
		<polygon id="XMLID_664_" class="st0" points="490.18,481.58 477.94,497.33 468.8,484.73 470.89,468.52 		"/>
		<polygon id="XMLID_663_" class="st0" points="510.45,455.9 499.87,468.79 481.07,458.93 483.24,430.72 		"/>
		<polygon id="XMLID_662_" class="st0" points="292.28,403.21 281.86,408.62 270.72,394.96 298.76,389.8 		"/>
		<polygon id="XMLID_661_" class="st0" points="211.53,564.36 207.32,546.04 223.54,534.3 242.91,554.29 		"/>
		<polygon id="XMLID_660_" class="st0" points="569.02,467.3 550.75,472.18 565.9,450.55 		"/>
		<path id="XMLID_659_" class="st0" d="M542.12,571.5c-6.26,0.05-27.12,2.91-27.12,2.91l22.76,18.43L542.12,571.5z"/>
		<polygon id="XMLID_658_" class="st0" points="259,558.93 239.27,549.97 234.31,530.16 		"/>
		<polygon id="XMLID_657_" class="st0" points="204.45,589.37 188.54,575.97 200.35,565.82 		"/>
		<polygon id="XMLID_656_" class="st0" points="150.71,579.08 128.91,585.55 125.93,571.44 		"/>
		<polygon id="XMLID_655_" class="st0" points="142.93,773.02 129.86,765.28 130.71,757.84 		"/>
		<polygon id="XMLID_654_" class="st0" points="400.24,603.76 393.22,606.78 388.27,594.37 		"/>
		<polygon id="XMLID_653_" class="st0" points="218.45,721.73 195.87,703.41 212.62,698.28 		"/>
		<path id="XMLID_652_" class="st0" d="M94.57,618.05l-9.86,1.06c0,0-9.15-18.52-6.18-15.51C81.49,606.61,94.57,618.05,94.57,618.05
			z"/>
		<polygon id="XMLID_651_" class="st0" points="486.11,708.49 497.69,706.84 510.14,772.21 479.26,721.8 		"/>
		<polygon id="XMLID_650_" class="st0" points="246.72,499.22 245.88,485.43 282.07,493.76 261.5,499.63 		"/>
		<polygon id="XMLID_707_" class="st0" points="112.14,492.02 119.9,499.41 82.77,498.84 94.2,494.02 		"/>
		<polygon id="XMLID_649_" class="st0" points="487.57,338.63 500.18,358.38 485.16,383.09 453.38,370.96 		"/>
		<polygon id="XMLID_711_" class="st0" points="477.11,227.49 498.2,217.28 532.71,201.48 511.17,282.44 		"/>
		<polygon id="XMLID_712_" class="st0" points="483.4,883.57 494.87,863.14 514.15,830.45 542.76,909.19 		"/>
		<polygon id="XMLID_710_" class="st0" points="378.73,206.41 360.64,204.69 361.81,184.33 376.96,194.3 		"/>
		<polygon id="XMLID_648_" class="st0" points="420.77,659.5 445.66,665.76 435.38,685.72 		"/>
		<polygon id="XMLID_647_" class="st0" points="490.57,637.84 514.55,616.03 523.93,631.39 		"/>
		<polygon id="XMLID_646_" class="st0" points="431.38,555.36 450.49,556.5 452.49,566.15 		"/>
		<polygon id="XMLID_645_" class="st0" points="441.67,614.76 449.01,606.58 460.11,618.62 		"/>
		<polygon id="XMLID_644_" class="st0" points="349.75,506.39 384.77,514.43 366.42,531.39 		"/>
		<path id="XMLID_643_" class="st0" d="M155.42,454.89l13.01-1.68c0,0,12.43,24.32,8.46,20.41
			C172.92,469.71,155.42,454.89,155.42,454.89z"/>
		<path id="XMLID_642_" class="st0" d="M244.1,400.73l-9.48,4.21c0,0,8.02,9.07,11.11,13.13c3.09,4.06,30.59,20,30.59,20
			L244.1,400.73z"/>
		<path id="XMLID_641_" class="st0" d="M245.72,326.68c-3.08-0.36-37.93,16.85-37.93,16.85l2.19-21.78L245.72,326.68z"/>
		<path id="XMLID_640_" class="st0" d="M427.89,339.44c-1.71-0.2-21.07,9.36-21.07,9.36l1.21-12.1L427.89,339.44z"/>
		<polygon id="XMLID_639_" class="st0" points="458.99,671.48 460.76,692.46 498.46,689.18 486.14,662.57 		"/>
		<path id="XMLID_638_" class="st0" d="M425.55,603.53c0,0-4.48,4.26-6.3,3.55c-1.82-0.71-23.59-22.01-23.59-22.01l30.6-14.32
			L425.55,603.53z"/>
		<path id="XMLID_637_" class="st0" d="M302.17,250.19c0,0-2.71,0.94-3.45,0.19c-0.74-0.75-7.73-15.69-7.73-15.69l16.95,7.53
			L302.17,250.19z"/>
		<polygon id="XMLID_636_" class="st0" points="402.12,440.3 393.81,443.81 415.1,461.91 		"/>
		<polygon id="XMLID_635_" class="st0" points="451.64,400.11 433.4,420.78 419.76,411.68 434.12,403.02 		"/>
		<polygon id="XMLID_634_" class="st0" points="472.8,376.6 465.71,380.59 455.94,359.48 		"/>
		<polygon id="XMLID_633_" class="st0" points="195.87,451.42 185.76,450.39 191.04,432.67 		"/>
		<polygon id="XMLID_632_" class="st0" points="334.47,598.68 319.31,598.98 315.84,584.37 		"/>
		<polygon id="XMLID_631_" class="st0" points="309.75,544.03 301.36,542.9 297.64,526.19 		"/>
		<polygon id="XMLID_630_" class="st0" points="363.75,483.51 353.03,480.92 351.64,458.28 		"/>
		<polygon id="XMLID_629_" class="st0" points="285.85,554.83 287.1,561.63 280.31,555.66 		"/>
		<polygon id="XMLID_628_" class="st0" points="352.72,433.68 341.84,433.54 336.79,418.46 350.16,406.91 		"/>
		<polygon id="XMLID_627_" class="st0" points="354.44,395.04 347.32,408.97 335.52,409.14 		"/>
		<polygon id="XMLID_626_" class="st0" points="384.78,342.77 383.41,354.84 374.73,354.82 		"/>
		<polygon id="XMLID_625_" class="st0" points="558.47,257.31 566.67,248.89 568.86,258.57 		"/>
		<polygon id="XMLID_624_" class="st0" points="351.1,351.99 349.6,358.42 339.69,358.19 		"/>
		<polygon id="XMLID_623_" class="st0" points="354.83,372.97 358.84,373.28 354.74,377.52 		"/>
		<polygon id="XMLID_622_" class="st0" points="368.39,299.07 371.02,316.99 353.18,327.24 335.07,306.73 		"/>
		<polygon id="XMLID_621_" class="st0" points="424.77,477.3 444.29,487.22 447.55,506.61 		"/>
		<polygon id="XMLID_620_" class="st0" points="483.91,451.53 499.08,465.47 485.94,474.48 		"/>
		<polygon id="XMLID_619_" class="st0" points="540.61,478.34 548.14,475.89 552.08,488.16 		"/>
		<polygon id="XMLID_618_" class="st0" points="379.31,481.98 394.98,482.68 397.2,496.97 		"/>
		<polygon id="XMLID_617_" class="st0" points="372.54,714.11 381.09,715.75 383.36,732.07 		"/>
		<polygon id="XMLID_715_" class="st0" points="176.85,810.9 184.13,818.66 169.37,823.45 		"/>
		<polygon id="XMLID_703_" class="st0" points="287.99,809.43 307.37,814.48 298.81,827.39 		"/>
		<polygon id="XMLID_616_" class="st0" points="305.6,490.77 306.58,480.9 320.45,479.81 		"/>
		<polygon id="XMLID_615_" class="st0" points="300.53,343.79 300.36,333.71 313.78,330.31 		"/>
		<polygon id="XMLID_614_" class="st0" points="396.66,479.5 396.02,472.87 402.46,479.07 		"/>
		<polygon id="XMLID_613_" class="st0" points="519.03,358.28 535.79,344.68 551.97,352.21 		"/>
		<polygon id="XMLID_612_" class="st0" points="562.84,319.73 580.56,312.6 581.1,330.43 		"/>
		<polygon id="XMLID_611_" class="st0" points="351.83,251.72 369.09,254.48 353.68,264.52 		"/>
		<polygon id="XMLID_610_" class="st0" points="486.28,440.43 494.26,425.5 506.09,431.23 		"/>
		<polygon id="XMLID_609_" class="st0" points="536.89,450.46 542.18,443.01 555.58,449.81 		"/>
		<polygon id="XMLID_608_" class="st0" points="507.32,386.97 502.02,383.94 509.75,381.06 		"/>
		<polygon id="XMLID_607_" class="st0" points="367.84,279.23 362.54,276.2 370.27,273.32 		"/>
		<polygon id="XMLID_606_" class="st0" points="358.41,469.48 375.18,455.88 391.35,463.41 		"/>
		<polygon id="XMLID_605_" class="st0" points="256.21,60.43 267.72,81.05 260.71,98.58 		"/>
		<polygon id="XMLID_604_" class="st0" points="431.48,282.95 434.43,235.31 446.2,249.29 		"/>
		<polygon id="XMLID_702_" class="st0" points="472.09,193.9 463.77,175.01 478.98,175.83 		"/>
		<polygon id="XMLID_713_" class="st0" points="96.39,181.54 94.72,169.69 109.93,170.52 		"/>
		<polygon id="XMLID_714_" class="st0" points="267.62,295.33 265.95,283.49 281.17,284.31 		"/>
		<polygon id="XMLID_603_" class="st0" points="421.46,434.73 439.18,427.6 439.72,445.43 		"/>
		<polygon id="XMLID_602_" class="st0" points="344.9,555.43 352.89,540.5 364.71,546.23 		"/>
		<polygon id="XMLID_601_" class="st0" points="366.79,517.6 372.09,510.15 385.48,516.95 		"/>
		<polygon id="XMLID_600_" class="st0" points="448.26,513.42 453.56,505.97 466.95,512.77 		"/>
		<polygon id="XMLID_599_" class="st0" points="306.42,688.58 321.29,687.44 323.99,696.63 		"/>
		<polygon id="XMLID_598_" class="st0" points="401.04,535.48 395.73,532.44 403.47,529.56 		"/>
		<polygon id="XMLID_597_" class="st0" points="544.94,560.08 532.6,551.12 534.79,557.99 		"/>
		<polygon id="XMLID_701_" class="st0" points="378.37,392.71 397.91,413.86 376.88,409.1 		"/>
		<polygon id="XMLID_700_" class="st0" points="421.4,642.48 416.89,623.28 426.06,613.23 438.1,623.04 		"/>
		<polygon id="XMLID_704_" class="st0" points="248.7,792.04 244.2,772.84 250.54,770.8 254.52,777.98 		"/>
		<polygon id="XMLID_699_" class="st0" points="393.77,372.22 426.11,395.97 436.8,371.63 		"/>
		<polygon id="XMLID_705_" class="st0" points="141.18,660.44 165.59,675.68 164.19,661.52 		"/>
		<path id="XMLID_698_" class="st0" d="M342.41,438.92l-5.71-11.47c0,0,17.36-7.77,19.52-4.87c2.15,2.89,10.9,14,10.9,14
			L342.41,438.92z"/>
		<polygon id="XMLID_697_" class="st0" points="392.95,480.12 406.13,466.1 432.22,473.86 431.61,502.21 		"/>
		<polygon id="XMLID_696_" class="st0" points="313.23,475.22 337.4,468.34 318.8,491.57 		"/>
		<polygon id="XMLID_695_" class="st0" points="436.5,589.42 417.93,571.13 436.11,544.84 479.86,553.42 		"/>
		<polygon id="XMLID_709_" class="st0" points="428.79,745.06 438.41,769.28 416.82,771.03 386.59,753.57 		"/>
		<polygon id="XMLID_706_" class="st0" points="328.82,777.26 310.24,758.98 324.92,756.65 336.68,760.43 		"/>
		<polygon id="XMLID_694_" class="st0" points="344.6,683.35 334.24,692.64 330.51,683.24 		"/>
		<polygon id="XMLID_693_" class="st0" points="429.01,481.54 407.46,469.32 424.41,458.89 		"/>
		<polygon id="XMLID_692_" class="st0" points="350.55,461.08 340.62,464.36 334.31,452.56 		"/>
		<polygon id="XMLID_691_" class="st0" points="389.39,578.35 367.95,593.76 345.57,588.05 		"/>
		<polygon id="XMLID_690_" class="st0" points="333.61,621.61 310.35,630.68 308.17,612.97 		"/>
		<polygon id="XMLID_689_" class="st0" points="426.73,492.87 417.21,508.63 400.83,504.22 		"/>
		<polygon id="XMLID_688_" class="st0" points="357.83,488.46 351.32,496.47 332.74,491.17 		"/>
		<polygon id="XMLID_687_" class="st0" points="402.79,548.47 410.18,550.9 400.01,554.63 		"/>
		<polygon id="XMLID_686_" class="st0" points="338.03,380.09 355.36,387.66 351.86,381.06 		"/>
		<path id="XMLID_596_" class="st0" d="M182.05,479.38c-2.53-3.03-5.74-6.29-5.74-6.29l5.66-3.48L182.05,479.38z"/>
		<polygon id="XMLID_685_" class="st0" points="524.44,734.1 528.48,760.21 518.9,765.4 501.19,761.25 		"/>
		<polygon id="XMLID_684_" class="st0" points="469.97,669.65 465.76,651.33 481.99,639.59 501.35,659.58 		"/>
		<polygon id="XMLID_683_" class="st0" points="517.44,664.22 497.71,655.26 492.75,635.45 		"/>
		<polygon id="XMLID_682_" class="st0" points="462.89,694.66 446.98,681.26 458.79,671.11 		"/>
		<polygon id="XMLID_681_" class="st0" points="409.15,684.37 387.35,690.84 384.37,676.74 		"/>
		<polygon id="XMLID_680_" class="st0" points="401.38,878.31 388.3,870.57 389.15,863.13 		"/>
		<polygon id="XMLID_679_" class="st0" points="476.89,827.02 454.31,808.7 471.06,803.57 		"/>
		<path id="XMLID_678_" class="st0" d="M353.01,723.34l-9.86,1.06c0,0-9.15-18.52-6.18-15.51
			C339.94,711.9,353.01,723.34,353.01,723.34z"/>
		<polygon id="XMLID_677_" class="st0" points="505.16,604.51 504.32,590.72 540.51,599.05 519.94,604.92 		"/>
		<path id="XMLID_595_" class="st0" d="M440.49,584.67c-2.53-3.03-5.74-6.29-5.74-6.29l5.66-3.48L440.49,584.67z"/>
	</g>
	<g id="XMLID_717_">
		<polygon id="XMLID_838_" class="st0" points="1460.87,514.64 1469.34,517.71 1462.84,567.72 1453,521.41 		"/>
		<polygon id="XMLID_837_" class="st0" points="1261.44,562.6 1274.59,585.28 1259.35,578.81 		"/>
		<path id="XMLID_836_" class="st0" d="M1251.09,490.91c0,0,13.82-1.6,12.24-0.72c-1.58,0.89-10.18,13.05-10.18,13.05
			L1251.09,490.91z"/>
		<polygon id="XMLID_835_" class="st0" points="1273.66,526.8 1298.35,512.92 1296.67,539.31 		"/>
		<path id="XMLID_834_" class="st0" d="M1302.75,581.78c2.67,0.04,41.66-12.25,41.66-12.25l25.16,37.9l-40.83-20.99L1302.75,581.78z
			"/>
		<path id="XMLID_833_" class="st0" d="M1232.56,287.44c2.67,0.04,41.66-12.25,41.66-12.25l18.03,23.66l-25.53-6.12L1232.56,287.44z
			"/>
		<path id="XMLID_832_" class="st0" d="M1383.32,479.91c1.74,0.9,29.78,5.57,29.78,5.57l-10.9,14.47l-24.19-15.04L1383.32,479.91z"
			/>
		<polygon id="XMLID_831_" class="st0" points="1310.2,537.1 1277.26,516.69 1289.36,481.34 1317.94,498.04 		"/>
		<polygon id="XMLID_830_" class="st0" points="1511.36,478 1507.32,451.89 1516.9,446.7 1534.61,450.85 		"/>
		<polygon id="XMLID_829_" class="st0" points="1349.51,252.95 1347.01,236.83 1352.93,233.63 1363.87,236.19 		"/>
		<polygon id="XMLID_828_" class="st0" points="1278.08,815.05 1275.92,795.55 1283.3,786.29 1291.59,797.05 		"/>
		<polygon id="XMLID_827_" class="st0" points="1276.39,563.44 1298.84,589.76 1308.2,566.37 		"/>
		<path id="XMLID_826_" class="st0" d="M1232.08,605.72l-3.52-11.9c0,0,13.29-6.32,14.71-3.26c1.42,3.06,7.2,14.84,7.2,14.84
			L1232.08,605.72z"/>
		<polygon id="XMLID_825_" class="st0" points="1287.18,625.23 1299.42,609.48 1308.56,622.08 1306.47,638.29 		"/>
		<polygon id="XMLID_824_" class="st0" points="1266.91,650.91 1277.49,638.02 1296.28,647.88 1294.12,676.09 		"/>
		<polygon id="XMLID_823_" class="st0" points="1485.08,703.6 1495.5,698.19 1506.64,711.85 1478.6,717.01 		"/>
		<polygon id="XMLID_822_" class="st0" points="1565.83,542.45 1570.04,560.77 1553.81,572.51 1534.45,552.52 		"/>
		<polygon id="XMLID_821_" class="st0" points="1208.34,639.51 1226.61,634.63 1211.46,656.26 		"/>
		<path id="XMLID_820_" class="st0" d="M1235.24,535.31c6.26-0.05,27.12-2.91,27.12-2.91l-22.76-18.43L1235.24,535.31z"/>
		<polygon id="XMLID_819_" class="st0" points="1518.36,547.88 1538.09,556.84 1543.05,576.65 		"/>
		<polygon id="XMLID_818_" class="st0" points="1572.91,517.44 1588.82,530.84 1577.01,540.99 		"/>
		<polygon id="XMLID_817_" class="st0" points="1626.65,527.73 1648.45,521.26 1651.43,535.36 		"/>
		<polygon id="XMLID_816_" class="st0" points="1634.42,333.79 1647.5,341.53 1646.65,348.97 		"/>
		<polygon id="XMLID_815_" class="st0" points="1377.12,503.05 1384.14,500.03 1389.08,512.44 		"/>
		<polygon id="XMLID_814_" class="st0" points="1558.91,385.08 1581.49,403.4 1564.74,408.53 		"/>
		<path id="XMLID_813_" class="st0" d="M1682.79,488.76l9.86-1.06c0,0,9.15,18.52,6.18,15.51
			C1695.86,500.2,1682.79,488.76,1682.79,488.76z"/>
		<polygon id="XMLID_812_" class="st0" points="1291.25,398.32 1279.66,399.97 1267.22,334.6 1298.1,385.01 		"/>
		<polygon id="XMLID_811_" class="st0" points="1530.64,607.59 1531.48,621.38 1495.29,613.05 1515.86,607.18 		"/>
		<polygon id="XMLID_810_" class="st0" points="1665.22,614.79 1657.46,607.4 1694.59,607.97 1683.16,612.79 		"/>
		<polygon id="XMLID_809_" class="st0" points="1289.79,768.18 1277.18,748.43 1292.2,723.72 1323.98,735.85 		"/>
		<polygon id="XMLID_808_" class="st0" points="1300.25,879.32 1279.16,889.53 1244.65,905.33 1266.19,824.37 		"/>
		<polygon id="XMLID_807_" class="st0" points="1293.96,223.24 1282.49,243.67 1263.21,276.36 1234.6,197.62 		"/>
		<polygon id="XMLID_806_" class="st0" points="1398.63,900.4 1416.72,902.12 1415.55,922.48 1400.39,912.51 		"/>
		<polygon id="XMLID_805_" class="st0" points="1356.59,447.3 1331.7,441.05 1341.98,421.09 		"/>
		<polygon id="XMLID_804_" class="st0" points="1286.79,468.97 1262.81,490.78 1253.43,475.42 		"/>
		<polygon id="XMLID_803_" class="st0" points="1345.98,551.45 1326.87,550.31 1324.87,540.66 		"/>
		<polygon id="XMLID_802_" class="st0" points="1335.69,492.05 1328.35,500.23 1317.25,488.19 		"/>
		<polygon id="XMLID_801_" class="st0" points="1427.61,600.42 1392.58,592.38 1410.94,575.42 		"/>
		<path id="XMLID_800_" class="st0" d="M1621.94,651.92l-13.01,1.68c0,0-12.43-24.32-8.46-20.41
			C1604.44,637.1,1621.94,651.92,1621.94,651.92z"/>
		<path id="XMLID_799_" class="st0" d="M1533.26,706.08l9.48-4.21c0,0-8.02-9.07-11.11-13.13c-3.09-4.06-30.59-20-30.59-20
			L1533.26,706.08z"/>
		<path id="XMLID_798_" class="st0" d="M1531.64,780.13c3.08,0.36,37.93-16.85,37.93-16.85l-2.19,21.78L1531.64,780.13z"/>
		<path id="XMLID_797_" class="st0" d="M1349.46,767.37c1.71,0.2,21.07-9.36,21.07-9.36l-1.21,12.1L1349.46,767.37z"/>
		<polygon id="XMLID_796_" class="st0" points="1318.37,435.33 1316.6,414.35 1278.9,417.63 1291.22,444.24 		"/>
		<path id="XMLID_795_" class="st0" d="M1351.81,503.28c0,0,4.48-4.26,6.3-3.54c1.82,0.71,23.59,22.01,23.59,22.01l-30.6,14.32
			L1351.81,503.28z"/>
		<path id="XMLID_794_" class="st0" d="M1475.19,856.62c0,0,2.71-0.94,3.45-0.19c0.74,0.75,7.72,15.69,7.72,15.69l-16.96-7.53
			L1475.19,856.62z"/>
		<polygon id="XMLID_793_" class="st0" points="1375.24,666.51 1383.54,663 1362.26,644.9 		"/>
		<polygon id="XMLID_792_" class="st0" points="1325.72,706.7 1343.96,686.03 1357.6,695.13 1343.24,703.79 		"/>
		<polygon id="XMLID_791_" class="st0" points="1304.56,730.21 1311.65,726.22 1321.42,747.33 		"/>
		<polygon id="XMLID_790_" class="st0" points="1581.49,655.39 1591.6,656.42 1586.32,674.14 		"/>
		<polygon id="XMLID_789_" class="st0" points="1442.89,508.13 1458.04,507.83 1461.52,522.44 		"/>
		<polygon id="XMLID_788_" class="st0" points="1467.61,562.78 1475.99,563.91 1479.72,580.62 		"/>
		<polygon id="XMLID_787_" class="st0" points="1413.6,623.3 1424.33,625.89 1425.72,648.53 		"/>
		<polygon id="XMLID_786_" class="st0" points="1491.5,551.98 1490.26,545.18 1497.05,551.15 		"/>
		<polygon id="XMLID_785_" class="st0" points="1424.64,673.13 1435.52,673.27 1440.57,688.35 1427.2,699.9 		"/>
		<polygon id="XMLID_784_" class="st0" points="1422.92,711.77 1430.03,697.84 1441.83,697.67 		"/>
		<polygon id="XMLID_783_" class="st0" points="1392.58,764.04 1393.95,751.97 1402.63,751.99 		"/>
		<polygon id="XMLID_782_" class="st0" points="1218.89,849.5 1210.69,857.92 1208.5,848.24 		"/>
		<polygon id="XMLID_781_" class="st0" points="1426.26,754.82 1427.76,748.39 1437.66,748.62 		"/>
		<polygon id="XMLID_780_" class="st0" points="1422.53,733.84 1418.52,733.53 1422.62,729.28 		"/>
		<polygon id="XMLID_779_" class="st0" points="1408.97,807.74 1406.34,789.82 1424.18,779.57 1442.29,800.08 		"/>
		<polygon id="XMLID_778_" class="st0" points="1352.59,629.51 1333.07,619.59 1329.81,600.2 		"/>
		<polygon id="XMLID_777_" class="st0" points="1293.45,655.28 1278.28,641.34 1291.42,632.33 		"/>
		<polygon id="XMLID_776_" class="st0" points="1236.75,628.47 1229.22,630.92 1225.28,618.65 		"/>
		<polygon id="XMLID_775_" class="st0" points="1398.05,624.83 1382.38,624.13 1380.16,609.84 		"/>
		<polygon id="XMLID_774_" class="st0" points="1404.82,392.7 1396.27,391.06 1393.99,374.74 		"/>
		<polygon id="XMLID_773_" class="st0" points="1600.51,295.91 1593.23,288.15 1607.98,283.36 		"/>
		<polygon id="XMLID_772_" class="st0" points="1489.37,297.38 1469.99,292.33 1478.55,279.42 		"/>
		<polygon id="XMLID_771_" class="st0" points="1471.76,616.04 1470.78,625.91 1456.91,627 		"/>
		<polygon id="XMLID_770_" class="st0" points="1476.83,763.02 1477,773.1 1463.58,776.5 		"/>
		<polygon id="XMLID_769_" class="st0" points="1380.69,627.31 1381.34,633.94 1374.9,627.74 		"/>
		<polygon id="XMLID_768_" class="st0" points="1258.33,748.53 1241.56,762.13 1225.39,754.6 		"/>
		<polygon id="XMLID_767_" class="st0" points="1214.52,787.08 1196.8,794.21 1196.26,776.38 		"/>
		<polygon id="XMLID_766_" class="st0" points="1425.53,855.09 1408.27,852.33 1423.68,842.29 		"/>
		<polygon id="XMLID_765_" class="st0" points="1291.08,666.38 1283.09,681.31 1271.27,675.58 		"/>
		<polygon id="XMLID_764_" class="st0" points="1240.47,656.35 1235.18,663.8 1221.78,657 		"/>
		<polygon id="XMLID_763_" class="st0" points="1270.04,719.84 1275.34,722.87 1267.61,725.75 		"/>
		<polygon id="XMLID_762_" class="st0" points="1409.52,827.58 1414.82,830.61 1407.09,833.49 		"/>
		<polygon id="XMLID_761_" class="st0" points="1418.95,637.32 1402.18,650.93 1386.01,643.4 		"/>
		<polygon id="XMLID_759_" class="st0" points="1345.88,823.86 1342.93,871.5 1331.16,857.52 		"/>
		<polygon id="XMLID_758_" class="st0" points="1305.27,912.91 1313.59,931.8 1298.37,930.98 		"/>
		<polygon id="XMLID_756_" class="st0" points="1509.74,811.48 1511.41,823.32 1496.19,822.49 		"/>
		<polygon id="XMLID_755_" class="st0" points="1355.9,672.08 1338.18,679.21 1337.64,661.38 		"/>
		<polygon id="XMLID_754_" class="st0" points="1432.46,551.38 1424.47,566.31 1412.65,560.58 		"/>
		<polygon id="XMLID_753_" class="st0" points="1410.57,589.21 1405.27,596.66 1391.88,589.86 		"/>
		<polygon id="XMLID_752_" class="st0" points="1329.1,593.39 1323.8,600.84 1310.41,594.04 		"/>
		<polygon id="XMLID_751_" class="st0" points="1470.93,418.23 1456.07,419.37 1453.37,410.17 		"/>
		<polygon id="XMLID_750_" class="st0" points="1376.32,571.33 1381.62,574.37 1373.89,577.25 		"/>
		<polygon id="XMLID_749_" class="st0" points="1232.41,546.73 1244.76,555.69 1242.57,548.82 		"/>
		<polygon id="XMLID_748_" class="st0" points="1398.99,714.1 1379.45,692.95 1400.48,697.71 		"/>
		<polygon id="XMLID_747_" class="st0" points="1355.96,464.33 1360.47,483.53 1351.3,493.58 1339.26,483.77 		"/>
		<polygon id="XMLID_746_" class="st0" points="1528.65,314.77 1533.16,333.97 1526.82,336.01 1522.83,328.83 		"/>
		<polygon id="XMLID_745_" class="st0" points="1383.59,734.59 1351.24,710.83 1340.56,735.18 		"/>
		<polygon id="XMLID_744_" class="st0" points="1636.18,446.37 1611.77,431.13 1613.17,445.28 		"/>
		<path id="XMLID_743_" class="st0" d="M1434.95,667.89l5.71,11.47c0,0-17.36,7.77-19.52,4.87c-2.16-2.89-10.9-14-10.9-14
			L1434.95,667.89z"/>
		<polygon id="XMLID_742_" class="st0" points="1384.41,626.69 1371.23,640.71 1345.14,632.95 1345.75,604.6 		"/>
		<polygon id="XMLID_741_" class="st0" points="1464.13,631.59 1439.96,638.47 1458.56,615.24 		"/>
		<polygon id="XMLID_740_" class="st0" points="1340.86,517.39 1359.43,535.68 1341.25,561.97 1297.5,553.39 		"/>
		<polygon id="XMLID_739_" class="st0" points="1348.57,361.75 1338.94,337.53 1360.54,335.78 1390.77,353.24 		"/>
		<polygon id="XMLID_738_" class="st0" points="1448.54,329.55 1467.11,347.83 1452.44,350.16 1440.68,346.38 		"/>
		<polygon id="XMLID_737_" class="st0" points="1432.76,423.46 1443.11,414.17 1446.85,423.57 		"/>
		<polygon id="XMLID_736_" class="st0" points="1348.35,625.27 1369.9,637.49 1352.95,647.92 		"/>
		<polygon id="XMLID_735_" class="st0" points="1426.81,645.73 1436.74,642.45 1443.05,654.25 		"/>
		<polygon id="XMLID_734_" class="st0" points="1387.97,528.46 1409.41,513.05 1431.79,518.76 		"/>
		<polygon id="XMLID_733_" class="st0" points="1443.74,485.2 1467.01,476.13 1469.19,493.84 		"/>
		<polygon id="XMLID_732_" class="st0" points="1350.63,613.94 1360.15,598.18 1376.53,602.59 		"/>
		<polygon id="XMLID_731_" class="st0" points="1419.53,618.35 1426.04,610.34 1444.61,615.64 		"/>
		<polygon id="XMLID_730_" class="st0" points="1374.57,558.34 1367.18,555.91 1377.35,552.18 		"/>
		<polygon id="XMLID_729_" class="st0" points="1439.33,726.72 1422,719.15 1425.5,725.75 		"/>
		<path id="XMLID_728_" class="st0" d="M1595.31,627.43c2.53,3.03,5.74,6.29,5.74,6.29l-5.66,3.48L1595.31,627.43z"/>
		<polygon id="XMLID_727_" class="st0" points="1252.92,372.7 1248.87,346.6 1258.46,341.41 1276.17,345.56 		"/>
		<polygon id="XMLID_726_" class="st0" points="1307.38,437.16 1311.6,455.48 1295.37,467.22 1276.01,447.23 		"/>
		<polygon id="XMLID_725_" class="st0" points="1259.92,442.59 1279.65,451.55 1284.61,471.36 		"/>
		<polygon id="XMLID_724_" class="st0" points="1314.47,412.15 1330.38,425.55 1318.57,435.7 		"/>
		<polygon id="XMLID_723_" class="st0" points="1368.21,422.44 1390.01,415.97 1392.99,430.07 		"/>
		<polygon id="XMLID_722_" class="st0" points="1375.98,228.5 1389.06,236.24 1388.21,243.68 		"/>
		<polygon id="XMLID_721_" class="st0" points="1300.47,279.79 1323.05,298.11 1306.3,303.24 		"/>
		<path id="XMLID_720_" class="st0" d="M1424.34,383.47l9.86-1.06c0,0,9.15,18.52,6.18,15.51
			C1437.42,394.91,1424.34,383.47,1424.34,383.47z"/>
		<polygon id="XMLID_719_" class="st0" points="1272.2,502.3 1273.04,516.08 1236.85,507.76 1257.42,501.89 		"/>
		<path id="XMLID_718_" class="st0" d="M1336.87,522.14c2.53,3.03,5.74,6.29,5.74,6.29l-5.66,3.48L1336.87,522.14z"/>
	</g>
	<defs>
		<filter id="Adobe_OpacityMaskFilter" filterUnits="userSpaceOnUse" x="508.51" y="166.65" width="768.94" height="768.94">
			<feFlood  style="flood-color:white;flood-opacity:1" result="back"/>
			<feBlend  in="SourceGraphic" in2="back" mode="normal"/>
		</filter>
	</defs>
	<mask maskUnits="userSpaceOnUse" x="508.51" y="166.65" width="768.94" height="768.94" id="XMLID_2_">
		<g id="XMLID_165_" class="st2">
			<polygon id="XMLID_181_" points="503.19,278.32 529.78,296.4 512.77,326.18 			"/>
			<polygon id="XMLID_180_" points="476.07,413.65 518.35,443.96 563.82,413.65 			"/>
			<polygon id="XMLID_179_" points="503.99,345.05 507.98,362.6 542.01,371.91 			"/>
			<path id="XMLID_178_" d="M500,565.21c0,0,25.53,15.16,27.92,13.56c2.39-1.6-3.19-48.66-3.19-48.66L500,565.21z"/>
			<polygon id="XMLID_177_" points="503.19,657.74 534.3,686.45 503.19,697.62 			"/>
			<polygon id="XMLID_176_" points="490.43,786.96 519.94,810.09 503.99,834.02 			"/>
			<polygon id="XMLID_175_" points="509.57,755.05 559.03,743.09 548.66,718.36 486.44,743.09 			"/>
			<polygon id="XMLID_174_" points="564.61,669.7 570.99,637 534.3,623.44 			"/>
			<path id="XMLID_173_" d="M489.63,506.98c0,0,35.89,31.11,35.89,15.16c0-15.95-15.95-52.65-15.95-52.65L489.63,506.98z"/>
			<polygon id="XMLID_172_" points="497.61,371.38 523.93,390.52 509.57,402.49 			"/>
			<path id="XMLID_171_" d="M520.74,592.06l5.32,12.76c0,0-34.03,11.7-31.37,8.51C497.34,610.14,520.74,592.06,520.74,592.06z"/>
			<path id="XMLID_170_" d="M1286.49,323.52c-7.98,6.38-46.26,54.24-46.26,54.24l33.5,17.55L1286.49,323.52z"/>
			<polygon id="XMLID_169_" points="1283.3,514.96 1259.37,558.03 1283.3,615.46 			"/>
			<path id="XMLID_168_" d="M1300.85,676.08c-6.38,0-60.62,62.22-60.62,62.22l46.26,89.34L1300.85,676.08z"/>
			<polygon id="XMLID_167_" points="1289.68,639.39 1240.23,663.32 1297.66,653.75 			"/>
			<polygon id="XMLID_166_" points="1289.68,420.03 1235.44,447.16 1299.26,437.58 			"/>
		</g>
	</mask>
	<rect id="XMLID_1514_" x="508.51" y="166.65" class="st3" width="768.94" height="768.94"/>
	<g id="XMLID_850_">
		<polygon id="XMLID_979_" class="st0" points="1444.68,669.36 1433.63,669.59 1426.31,628.33 1452.06,661.59 		"/>
		<polygon id="XMLID_978_" class="st0" points="1717.58,598.2 1695,584.5 1715.19,584.82 		"/>
		<path id="XMLID_977_" class="st0" d="M1751.58,651.22c0,0-16.05,5.56-14.43,4.38c1.62-1.19,8.24-13.41,8.24-13.41L1751.58,651.22z
			"/>
		<path id="XMLID_976_" class="st0" d="M1547.93,672.44c-2.35-0.16-37.31,4.91-37.31,4.91l8.68-14.75l33.47,4.27L1547.93,672.44z"/>
		<polygon id="XMLID_975_" class="st0" points="1303.2,569.59 1348.78,575.33 1344.96,606.84 1314.15,589.4 		"/>
		<polygon id="XMLID_974_" class="st0" points="1395.34,713.84 1408.06,733.06 1398.16,740.12 1375.72,742.38 		"/>
		<polygon id="XMLID_973_" class="st0" points="1656.86,839.98 1664.72,851.85 1658.6,856.21 1644.74,857.61 		"/>
		<polygon id="XMLID_972_" class="st0" points="1572.7,376.7 1581.18,391.33 1575.14,400.9 1561.98,395.04 		"/>
		<path id="XMLID_971_" class="st0" d="M1739.68,555.22l7.8,8.24c0,0-13.99,9.1-16.61,7.14c-2.62-1.96-13.09-9.4-13.09-9.4
			L1739.68,555.22z"/>
		<polygon id="XMLID_970_" class="st0" points="1619.09,528.47 1609.2,544.64 1594.47,537.61 1592.08,524.23 		"/>
		<polygon id="XMLID_969_" class="st0" points="1358.7,528.64 1347.87,536.14 1330.42,528.89 1362.41,516.1 		"/>
		<polygon id="XMLID_968_" class="st0" points="1310.74,680.24 1300.17,667.18 1316.04,652.91 1345.23,662.56 		"/>
		<polygon id="XMLID_967_" class="st0" points="1856,525.7 1835.62,535.21 1847.21,513.52 		"/>
		<polygon id="XMLID_966_" class="st0" points="1365.88,661.19 1339.57,660.31 1327.67,646.31 		"/>
		<polygon id="XMLID_965_" class="st0" points="1309.81,702.07 1286.73,696.51 1297.8,684.87 		"/>
		<polygon id="XMLID_964_" class="st0" points="1242.42,710.74 1218.29,722.61 1210.47,712.47 		"/>
		<polygon id="XMLID_963_" class="st0" points="1291.64,865.33 1273.66,863.33 1272.44,857.22 		"/>
		<polygon id="XMLID_962_" class="st0" points="1597.16,680.96 1589.68,685.52 1580.02,677.32 		"/>
		<polygon id="XMLID_961_" class="st0" points="1366.5,801.56 1333.96,794.22 1352.45,784.97 		"/>
		<path id="XMLID_960_" class="st0" d="M1187.03,758.81l-11.47,3.91c0,0-16.53-11.68-12.08-10.24
			C1167.93,753.91,1187.03,758.81,1187.03,758.81z"/>
		<polygon id="XMLID_959_" class="st0" points="1242.26,672.56 1255.62,667.66 1290.23,715.07 1238.07,685.14 		"/>
		<polygon id="XMLID_958_" class="st0" points="1333.17,618.17 1328.01,607.61 1373.81,602.87 1350.98,613.89 		"/>
		<polygon id="XMLID_957_" class="st0" points="1330.34,465.31 1351.37,476.87 1340.86,500.94 1299.18,501.32 		"/>
		<polygon id="XMLID_956_" class="st0" points="1638.54,718.3 1670.21,715.45 1663.92,734.32 		"/>
		<polygon id="XMLID_955_" class="st0" points="1715.5,679.56 1737.6,654.97 1753.46,664.1 		"/>
		<polygon id="XMLID_954_" class="st0" points="1619.81,633.28 1643.02,628.22 1648.31,635.18 		"/>
		<polygon id="XMLID_953_" class="st0" points="1650.04,676.68 1656.35,667.98 1673.26,673.97 		"/>
		<polygon id="XMLID_952_" class="st0" points="1507.38,620.3 1551.71,615.69 1534.87,634.72 		"/>
		<path id="XMLID_951_" class="st0" d="M1210.58,611.84l15.06-5.37c0,0,22.21,15.21,16.28,13.38
			C1235.99,618.01,1210.58,611.84,1210.58,611.84z"/>
		<path id="XMLID_950_" class="st0" d="M1300.32,541.71l-10.07,6.26c0,0,12.34,4.62,17.25,6.84c4.92,2.22,42.63,6.16,42.63,6.16
			L1300.32,541.71z"/>
		<path id="XMLID_949_" class="st0" d="M1279.92,483.11c-3.79,0.68-40.29,25.04-40.29,25.04l-3.96-17.77L1279.92,483.11z"/>
		<path id="XMLID_948_" class="st0" d="M1501.7,436.36c-2.11,0.38-22.38,13.91-22.38,13.91l-2.2-9.87L1501.7,436.36z"/>
		<polygon id="XMLID_947_" class="st0" points="1331.59,705.15 1340.04,721.06 1384.15,706.74 1361.38,689.7 		"/>
		<path id="XMLID_946_" class="st0" d="M1627.37,672.89c0,0-4.08,4.74-6.47,4.75c-2.39,0.01-34.87-9.92-34.87-9.92l32.29-20.77
			L1627.37,672.89z"/>
		<path id="XMLID_945_" class="st0" d="M1324.36,405.5c0,0-2.96,1.58-4.07,1.22c-1.11-0.36-13.98-9.91-13.98-9.91l22.56,0.63
			L1324.36,405.5z"/>
		<polygon id="XMLID_944_" class="st0" points="1550.08,552.12 1541.21,557.47 1572.14,565.04 		"/>
		<polygon id="XMLID_943_" class="st0" points="1548.4,476.56 1532.82,498.46 1513.76,495.57 1528.33,484.3 		"/>
		<polygon id="XMLID_942_" class="st0" points="1618.72,466.88 1611.44,472.21 1593.38,458.7 		"/>
		<polygon id="XMLID_941_" class="st0" points="1257.92,596.51 1245.52,598.85 1246.48,583.3 		"/>
		<polygon id="XMLID_940_" class="st0" points="1468.16,668.86 1450.12,673.82 1441.56,663.44 		"/>
		<polygon id="XMLID_939_" class="st0" points="1422.09,633.69 1411.72,635.41 1402.23,623.47 		"/>
		<polygon id="XMLID_938_" class="st0" points="1468.44,569.38 1454.83,570.69 1446.34,553.36 		"/>
		<polygon id="XMLID_937_" class="st0" points="1396.77,649.61 1400.31,654.56 1390.39,651.99 		"/>
		<polygon id="XMLID_936_" class="st0" points="1440.2,533.72 1427.14,537 1416.55,526.74 1429.06,513.51 		"/>
		<polygon id="XMLID_935_" class="st0" points="1430.61,502.86 1426.29,516.01 1412.23,519.82 		"/>
		<polygon id="XMLID_934_" class="st0" points="1451.13,452.4 1453.13,462.3 1442.73,464.99 		"/>
		<polygon id="XMLID_933_" class="st0" points="1633.11,331.23 1640.39,322.07 1645.92,328.99 		"/>
		<polygon id="XMLID_932_" class="st0" points="1413.61,470.13 1413.76,475.64 1401.84,478.55 		"/>
		<polygon id="XMLID_931_" class="st0" points="1424.41,485.43 1429.3,484.42 1425.68,489.03 		"/>
		<polygon id="XMLID_930_" class="st0" points="1505.49,455.14 1514.05,468.38 1495.8,481.99 1467.94,471.54 		"/>
		<polygon id="XMLID_929_" class="st0" points="1588.34,574.1 1614.69,575.8 1624.45,590 		"/>
		<polygon id="XMLID_928_" class="st0" points="1678.44,510.22 1686.71,505.95 1695.13,514.35 		"/>
		<polygon id="XMLID_927_" class="st0" points="1486.59,563.33 1505.54,558.99 1512.51,569.52 		"/>
		<polygon id="XMLID_926_" class="st0" points="1548.54,747.57 1559.25,746.19 1566.9,758.29 		"/>
		<polygon id="XMLID_925_" class="st0" points="1401.06,593.19 1399.26,585.14 1415.52,579.97 		"/>
		<polygon id="XMLID_924_" class="st0" points="1350.65,479.45 1347.41,471.6 1362.43,464.75 		"/>
		<polygon id="XMLID_923_" class="st0" points="1555.39,584.58 1552.62,579.58 1562.2,582.43 		"/>
		<polygon id="XMLID_922_" class="st0" points="1668.5,438.1 1684.45,422.2 1706.07,423.07 		"/>
		<polygon id="XMLID_921_" class="st0" points="1657.17,378.85 1676.23,367.73 1682.25,381.55 		"/>
		<polygon id="XMLID_920_" class="st0" points="1384.23,391.23 1405.71,388.02 1390.31,400.7 		"/>
		<polygon id="XMLID_919_" class="st0" points="1602.02,497.4 1607.06,483.2 1622.94,484.01 		"/>
		<polygon id="XMLID_918_" class="st0" points="1665.58,489.51 1669.66,482.01 1687.74,483.17 		"/>
		<polygon id="XMLID_917_" class="st0" points="1663.15,464.25 1655.89,463.53 1664.27,458.86 		"/>
		<polygon id="XMLID_916_" class="st0" points="1411.69,407.83 1404.43,407.1 1412.81,402.44 		"/>
		<polygon id="XMLID_915_" class="st0" points="1457.82,560.04 1473.76,544.14 1495.39,545.01 		"/>
		<polygon id="XMLID_914_" class="st0" points="1219.21,252.35 1239.19,264.94 1236.1,280.88 		"/>
		<polygon id="XMLID_913_" class="st0" points="1399.6,268.08 1388.75,229.78 1407.06,237.08 		"/>
		<polygon id="XMLID_912_" class="st0" points="1522.75,513.13 1541.8,502.01 1547.83,515.83 		"/>
		<polygon id="XMLID_911_" class="st0" points="1467.59,631.68 1472.63,617.48 1488.51,618.29 		"/>
		<polygon id="XMLID_910_" class="st0" points="1531.15,623.78 1535.24,616.29 1553.31,617.45 		"/>
		<polygon id="XMLID_909_" class="st0" points="1627.35,595.12 1631.44,587.62 1649.51,588.78 		"/>
		<polygon id="XMLID_908_" class="st0" points="1461.74,748.14 1479.18,742.61 1485.17,748.98 		"/>
		<polygon id="XMLID_907_" class="st0" points="1528.72,598.53 1521.46,597.81 1529.84,593.14 		"/>
		<polygon id="XMLID_887_" class="st0" points="1757.09,601.6 1739.62,598.42 1744.31,603.12 		"/>
		<path id="XMLID_854_" class="st0" d="M1249.83,622.75c-3.94-1.59-8.76-3.15-8.76-3.15l5.73-4.49L1249.83,622.75z"/>
	</g>
	<g id="XMLID_757_">
		<polygon id="XMLID_906_" class="st0" points="329.55,638.52 318.5,638.75 311.19,597.49 336.93,630.75 		"/>
		<path id="XMLID_905_" class="st0" d="M432.81,641.6c-2.35-0.16-37.31,4.91-37.31,4.91l8.68-14.75l33.47,4.27L432.81,641.6z"/>
		<polygon id="XMLID_904_" class="st0" points="301.88,555.76 325.05,562.82 343.64,593.01 304.41,588.82 		"/>
		<polygon id="XMLID_903_" class="st0" points="280.22,683 292.93,702.22 283.03,709.28 260.6,711.55 		"/>
		<polygon id="XMLID_902_" class="st0" points="541.74,809.14 549.59,821.01 543.48,825.37 529.62,826.77 		"/>
		<polygon id="XMLID_901_" class="st0" points="480.98,350.65 489.45,365.28 483.42,374.85 470.25,368.99 		"/>
		<polygon id="XMLID_900_" class="st0" points="503.96,497.63 494.08,513.8 479.34,506.77 476.95,493.4 		"/>
		<polygon id="XMLID_899_" class="st0" points="243.58,497.81 232.75,505.3 215.3,498.05 247.29,485.26 		"/>
		<polygon id="XMLID_898_" class="st0" points="195.61,649.4 185.05,636.34 200.91,622.07 230.11,631.72 		"/>
		<polygon id="XMLID_897_" class="st0" points="250.76,630.36 224.45,629.47 212.54,615.47 		"/>
		<polygon id="XMLID_896_" class="st0" points="194.69,671.23 171.61,665.67 182.68,654.03 		"/>
		<polygon id="XMLID_895_" class="st0" points="127.29,679.9 103.16,691.77 95.35,681.63 		"/>
		<polygon id="XMLID_894_" class="st0" points="176.51,834.49 158.54,832.49 157.31,826.38 		"/>
		<polygon id="XMLID_893_" class="st0" points="482.04,650.12 474.55,654.68 464.89,646.48 		"/>
		<polygon id="XMLID_892_" class="st0" points="251.37,770.72 218.83,763.38 237.32,754.13 		"/>
		<path id="XMLID_891_" class="st0" d="M71.9,727.97l-11.47,3.91c0,0-16.53-11.68-12.08-10.24C52.8,723.07,71.9,727.97,71.9,727.97z
			"/>
		<polygon id="XMLID_890_" class="st0" points="127.14,641.73 140.49,636.82 175.11,684.23 122.95,654.3 		"/>
		<polygon id="XMLID_889_" class="st0" points="218.05,587.33 212.89,576.78 258.69,572.03 235.85,583.05 		"/>
		<polygon id="XMLID_888_" class="st0" points="487.48,446.7 508.52,458.26 498.01,482.33 456.33,482.72 		"/>
		<polygon id="XMLID_886_" class="st0" points="504.68,602.44 527.89,597.39 533.19,604.34 		"/>
		<polygon id="XMLID_885_" class="st0" points="534.92,645.84 541.23,637.14 558.14,643.13 		"/>
		<polygon id="XMLID_884_" class="st0" points="392.26,589.46 436.58,584.85 419.74,603.88 		"/>
		<path id="XMLID_883_" class="st0" d="M95.45,581l15.06-5.37c0,0,22.21,15.21,16.28,13.38C120.86,587.17,95.45,581,95.45,581z"/>
		<path id="XMLID_882_" class="st0" d="M185.2,510.87l-10.07,6.26c0,0,12.34,4.62,17.25,6.84c4.92,2.22,42.63,6.16,42.63,6.16
			L185.2,510.87z"/>
		<path id="XMLID_881_" class="st0" d="M164.79,452.27c-3.79,0.68-40.29,25.04-40.29,25.04l-3.96-17.77L164.79,452.27z"/>
		<path id="XMLID_880_" class="st0" d="M386.57,405.52c-2.11,0.38-22.38,13.91-22.38,13.91l-2.2-9.87L386.57,405.52z"/>
		<polygon id="XMLID_879_" class="st0" points="216.46,674.31 224.91,690.22 269.03,675.9 246.26,658.86 		"/>
		<path id="XMLID_878_" class="st0" d="M512.24,642.05c0,0-4.08,4.74-6.47,4.75c-2.39,0.01-34.87-9.92-34.87-9.92l32.29-20.77
			L512.24,642.05z"/>
		<path id="XMLID_877_" class="st0" d="M209.24,374.67c0,0-2.96,1.58-4.07,1.22c-1.11-0.36-13.98-9.91-13.98-9.91l22.56,0.63
			L209.24,374.67z"/>
		<polygon id="XMLID_876_" class="st0" points="434.96,521.29 426.09,526.63 457.02,534.2 		"/>
		<polygon id="XMLID_875_" class="st0" points="433.28,445.72 417.7,467.62 398.63,464.73 413.2,453.47 		"/>
		<polygon id="XMLID_874_" class="st0" points="503.6,436.04 496.32,441.38 478.26,427.86 		"/>
		<polygon id="XMLID_873_" class="st0" points="142.8,565.67 130.4,568.01 131.36,552.46 		"/>
		<polygon id="XMLID_872_" class="st0" points="353.04,638.02 334.99,642.98 326.43,632.6 		"/>
		<polygon id="XMLID_871_" class="st0" points="306.97,602.85 296.6,604.57 287.11,592.63 		"/>
		<polygon id="XMLID_870_" class="st0" points="353.31,538.54 339.7,539.85 331.21,522.52 		"/>
		<polygon id="XMLID_869_" class="st0" points="281.65,618.77 285.19,623.72 275.27,621.15 		"/>
		<polygon id="XMLID_868_" class="st0" points="325.08,502.89 312.02,506.16 301.43,495.9 313.94,482.67 		"/>
		<polygon id="XMLID_867_" class="st0" points="315.48,472.03 311.17,485.18 297.1,488.99 		"/>
		<polygon id="XMLID_866_" class="st0" points="336,421.56 338,431.46 327.61,434.15 		"/>
		<polygon id="XMLID_865_" class="st0" points="517.98,300.4 525.26,291.23 530.8,298.15 		"/>
		<polygon id="XMLID_864_" class="st0" points="298.49,439.29 298.64,444.8 286.72,447.71 		"/>
		<polygon id="XMLID_863_" class="st0" points="309.29,454.59 314.17,453.59 310.55,458.19 		"/>
		<polygon id="XMLID_862_" class="st0" points="390.37,424.31 398.92,437.55 380.67,451.15 352.82,440.7 		"/>
		<polygon id="XMLID_861_" class="st0" points="473.22,543.26 499.56,544.96 509.32,559.16 		"/>
		<polygon id="XMLID_860_" class="st0" points="563.32,479.38 571.58,475.11 580,483.51 		"/>
		<polygon id="XMLID_859_" class="st0" points="371.46,532.49 390.42,528.16 397.38,538.68 		"/>
		<polygon id="XMLID_858_" class="st0" points="433.41,716.73 444.12,715.35 451.77,727.45 		"/>
		<polygon id="XMLID_857_" class="st0" points="285.93,562.35 284.13,554.3 300.39,549.13 		"/>
		<polygon id="XMLID_856_" class="st0" points="235.52,448.61 232.28,440.76 247.31,433.91 		"/>
		<polygon id="XMLID_855_" class="st0" points="440.27,553.75 437.49,548.75 447.07,551.59 		"/>
		<polygon id="XMLID_853_" class="st0" points="497.38,273.56 516.43,262.45 522.46,276.27 		"/>
		<polygon id="XMLID_852_" class="st0" points="269.11,360.39 290.58,357.18 275.18,369.86 		"/>
		<polygon id="XMLID_851_" class="st0" points="486.89,466.56 491.93,452.36 507.81,453.17 		"/>
		<polygon id="XMLID_849_" class="st0" points="548.02,433.42 540.76,432.69 549.15,428.02 		"/>
		<polygon id="XMLID_848_" class="st0" points="296.57,376.99 289.31,376.27 297.69,371.6 		"/>
		<polygon id="XMLID_847_" class="st0" points="342.69,529.2 358.64,513.3 380.26,514.17 		"/>
		<polygon id="XMLID_846_" class="st0" points="104.08,221.51 124.07,234.1 120.97,250.04 		"/>
		<polygon id="XMLID_845_" class="st0" points="478.19,319.87 517.99,319.71 506.03,335.38 		"/>
		<polygon id="XMLID_844_" class="st0" points="407.62,482.29 426.68,471.17 432.7,484.99 		"/>
		<polygon id="XMLID_843_" class="st0" points="352.47,600.84 357.51,586.64 373.39,587.45 		"/>
		<polygon id="XMLID_842_" class="st0" points="416.03,592.95 420.11,585.45 438.19,586.61 		"/>
		<polygon id="XMLID_841_" class="st0" points="512.22,564.28 516.31,556.78 534.38,557.94 		"/>
		<polygon id="XMLID_840_" class="st0" points="346.61,717.3 364.05,711.77 370.05,718.15 		"/>
		<polygon id="XMLID_839_" class="st0" points="413.6,567.69 406.34,566.97 414.72,562.3 		"/>
		<path id="XMLID_760_" class="st0" d="M134.7,591.92c-3.94-1.59-8.76-3.15-8.76-3.15l5.73-4.49L134.7,591.92z"/>
	</g>
</g>
<g>
	<path class="st4" d="M1179.38,552.89h-37.02v24.87h-36.69v-80.84h14.72v-37.13h-88.65v37.13h13.94v80.84h-8.21l-32.84-56.69
		c0.09-0.36,0.17-0.71,0.23-1.07c0.89-4.61,1.34-13.12,1.34-25.53v-34.68h-55.64v40.59h20.74c-0.03,2.71-0.11,5.07-0.25,7.09
		l-8.14,14.05c-1.82,0.82-4.02,1.39-6.6,1.71l-57.15-98.67c-0.97-1.68-2.76-2.71-4.7-2.71s-3.73,1.03-4.7,2.71l-19.33,33.37
		c-5.47-0.85-11.47-1.27-17.99-1.27c-19.18,0-34.3,3.83-45.38,11.49c-4.27,2.93-7.79,6.43-10.54,10.5l-2.79-4.82
		c-1.03-1.79-2.94-2.88-5-2.88c-2.06,0-3.97,1.09-5,2.88l-36.97,63.83c-4.03-2.72-8.76-4.67-14.18-5.84
		c7.36-2.23,13.19-6.25,17.51-12.04c4.31-5.72,6.46-12.26,6.46-19.62c0-12.26-5.09-22.6-15.28-31
		c-10.18-8.32-25.5-12.49-45.94-12.49c-19.18,0-34.3,3.83-45.38,11.49c-11.15,7.66-17.17,19.22-18.06,34.68l41.93,2.23
		c0.82-11.74,6.54-17.62,17.17-17.62c4.98,0,8.99,1.41,12.04,4.24c2.97,2.9,4.46,6.73,4.46,11.49c0,5.87-2.27,10.3-6.8,13.27
		c-4.61,3.05-9.52,4.57-14.72,4.57v25.2c16.87,0.6,25.31,7.21,25.31,19.85c0,4.98-1.52,9.22-4.57,12.71
		c-3.12,3.49-7.88,5.24-14.27,5.24c-14.72,0-22.41-8.25-23.08-24.76l-40.14,3.01c0.6,18.44,6.58,32.04,17.96,40.81
		c11.52,8.85,27.43,13.27,47.72,13.27c2.18,0,4.31-0.05,6.4-0.15l-22.83,39.41c-1.03,1.79-1.04,3.99,0,5.78
		c1.03,1.79,2.94,2.89,5,2.89h210.56c2.06,0,3.97-1.1,5-2.89c1.03-1.79,1.03-4-0.01-5.78L875,614.14
		c9.88-2.06,18.43-5.59,25.64-10.57h14.75l-10.49,18.12c-0.74,1.28-0.74,2.86,0,4.14c0.74,1.28,2.1,2.07,3.58,2.07h150.85
		c1.48,0,2.85-0.79,3.59-2.07c0.74-1.28,0.73-2.86,0-4.14l-3.94-6.8h120.4V552.89z M957.62,547.17L984,592.71h-52.75L957.62,547.17z
		 M827.08,554.46l16.84,29.09c-11.06-1.94-16.88-10.04-17.46-24.29l-2.26,0.17L827.08,554.46z M863.82,578.76
		c-1.76,1.97-4.04,3.38-6.85,4.24l-23.21-40.08l9.32-16.09v19.37c16.87,0.6,25.31,7.21,25.31,19.85
		C868.39,571.03,866.86,575.27,863.82,578.76z M864.6,503.16c0,5.87-2.27,10.3-6.8,13.27c-3.56,2.35-7.29,3.8-11.2,4.33l15.49-26.75
		C863.76,496.55,864.6,499.59,864.6,503.16z M830.92,505.06c0.82-11.74,6.54-17.62,17.17-17.62c1.77,0,3.41,0.18,4.94,0.54
		l-25.55,44.11l-16.27-28.08L830.92,505.06z M883.99,652.72H693.47l22.08-38.12c10.91-1.99,20.27-5.68,28.06-11.08
		c12.34-8.55,18.51-20.25,18.51-35.12c0-8.68-2.27-16.16-6.81-22.44l33.42-57.7l1.98,3.41c-0.91,3.46-1.48,7.18-1.71,11.17
		l8.44,0.45l23.37,40.34l-9.72,16.78l-24.76,1.86c0.36,11.31,2.76,20.81,7.19,28.48l-2.71,4.68c-0.97,1.68-0.98,3.75-0.01,5.43
		c0.97,1.68,2.76,2.72,4.71,2.72h9.45c11.47,8.52,27.15,12.77,47.06,12.77c3.69,0,7.24-0.14,10.67-0.43L883.99,652.72z
		 M911.9,592.71c4.89-6.86,7.33-14.96,7.33-24.32c0-9.29-2.6-17.21-7.81-23.75c-5.2-6.54-12.45-10.81-21.74-12.82
		c7.36-2.23,13.19-6.25,17.51-12.04c4.31-5.72,6.46-12.26,6.46-19.62c0-12.26-5.09-22.6-15.28-31c-4.58-3.74-10.2-6.65-16.86-8.7
		l12.93-22.33L950.57,535v7.84l-28.89,49.88H911.9z M1052.15,619.62H915.66l9.3-16.05h68.46c1.94,0,3.73-1.04,4.71-2.72
		c0.97-1.68,0.96-3.75-0.01-5.43l-29.32-50.63c5.21-0.43,9.39-1.07,12.55-1.93c6.24-1.71,11.49-4.8,15.72-9.26
		c1.18-1.2,2.23-2.41,3.15-3.64l31.52,54.42v30.5h17.67L1052.15,619.62z"/>
	<g>
		<g>
			<path class="st4" d="M860.13,492.11c-1.97-1.82-4.34-3.05-7.11-3.7l-25.55,44.11l-6.68,11.53l6.28,10.84l6.67-11.53l9.33-16.09
				l3.51-6.07l15.5-26.75C861.52,493.61,860.88,492.83,860.13,492.11z M860.13,492.11c-1.97-1.82-4.34-3.05-7.11-3.7l-25.55,44.11
				l-6.68,11.53l6.28,10.84l6.67-11.53l9.33-16.09l3.51-6.07l15.5-26.75C861.52,493.61,860.88,492.83,860.13,492.11z M860.13,492.11
				c-1.97-1.82-4.34-3.05-7.11-3.7l-25.55,44.11l-6.68,11.53l6.28,10.84l6.67-11.53l9.33-16.09l3.51-6.07l15.5-26.75
				C861.52,493.61,860.88,492.83,860.13,492.11z M860.13,492.11c-1.97-1.82-4.34-3.05-7.11-3.7l-25.55,44.11l-6.68,11.53l6.28,10.84
				l6.67-11.53l9.33-16.09l3.51-6.07l15.5-26.75C861.52,493.61,860.88,492.83,860.13,492.11z M860.13,492.11
				c-1.97-1.82-4.34-3.05-7.11-3.7l-25.55,44.11l-6.68,11.53l6.28,10.84l6.67-11.53l9.33-16.09l3.51-6.07l15.5-26.75
				C861.52,493.61,860.88,492.83,860.13,492.11z M860.13,492.11c-1.97-1.82-4.34-3.05-7.11-3.7l-25.55,44.11l-6.68,11.53l6.28,10.84
				l6.67-11.53l9.33-16.09l3.51-6.07l15.5-26.75C861.52,493.61,860.88,492.83,860.13,492.11z M860.13,492.11
				c-1.97-1.82-4.34-3.05-7.11-3.7l-25.55,44.11l-6.68,11.53l6.28,10.84l6.67-11.53l9.33-16.09l3.51-6.07l15.5-26.75
				C861.52,493.61,860.88,492.83,860.13,492.11z M860.13,492.11c-1.97-1.82-4.34-3.05-7.11-3.7l-25.55,44.11l-6.68,11.53l6.28,10.84
				l6.67-11.53l9.33-16.09l3.51-6.07l15.5-26.75C861.52,493.61,860.88,492.83,860.13,492.11z M956.31,523.67L899.15,425
				c-0.97-1.68-2.76-2.71-4.7-2.71c-1.94,0-3.72,1.03-4.7,2.71l-19.33,33.37c3.98,0.61,7.67,1.45,11.1,2.52l12.93-22.33l56.11,96.88
				l2.27,3.92l6.28-10.83L956.31,523.67z M853.03,488.41l-25.55,44.11l-6.68,11.53l6.28,10.84l6.67-11.53l9.33-16.09l3.51-6.07
				l15.5-26.75c-0.56-0.84-1.21-1.62-1.95-2.34C858.17,490.29,855.8,489.06,853.03,488.41z M860.13,492.11
				c-1.97-1.82-4.34-3.05-7.11-3.7l-25.55,44.11l-6.68,11.53l6.28,10.84l6.67-11.53l9.33-16.09l3.51-6.07l15.5-26.75
				C861.52,493.61,860.88,492.83,860.13,492.11z M860.13,492.11c-1.97-1.82-4.34-3.05-7.11-3.7l-25.55,44.11l-6.68,11.53l6.28,10.84
				l6.67-11.53l9.33-16.09l3.51-6.07l15.5-26.75C861.52,493.61,860.88,492.83,860.13,492.11z M860.13,492.11
				c-1.97-1.82-4.34-3.05-7.11-3.7l-25.55,44.11l-6.68,11.53l6.28,10.84l6.67-11.53l9.33-16.09l3.51-6.07l15.5-26.75
				C861.52,493.61,860.88,492.83,860.13,492.11z M860.13,492.11c-1.97-1.82-4.34-3.05-7.11-3.7l-25.55,44.11l-6.68,11.53l6.28,10.84
				l6.67-11.53l9.33-16.09l3.51-6.07l15.5-26.75C861.52,493.61,860.88,492.83,860.13,492.11z M860.13,492.11
				c-1.97-1.82-4.34-3.05-7.11-3.7l-25.55,44.11l-6.68,11.53l6.28,10.84l6.67-11.53l9.33-16.09l3.51-6.07l15.5-26.75
				C861.52,493.61,860.88,492.83,860.13,492.11z M860.13,492.11c-1.97-1.82-4.34-3.05-7.11-3.7l-25.55,44.11l-6.68,11.53l6.28,10.84
				l6.67-11.53l9.33-16.09l3.51-6.07l15.5-26.75C861.52,493.61,860.88,492.83,860.13,492.11z M860.13,492.11
				c-1.97-1.82-4.34-3.05-7.11-3.7l-25.55,44.11l-6.68,11.53l6.28,10.84l6.67-11.53l9.33-16.09l3.51-6.07l15.5-26.75
				C861.52,493.61,860.88,492.83,860.13,492.11z M860.13,492.11c-1.97-1.82-4.34-3.05-7.11-3.7l-25.55,44.11l-6.68,11.53
				l-9.72,16.78l13.12-0.98l2.88-4.96l6.67-11.53l9.33-16.09l3.51-6.07l15.5-26.75C861.52,493.61,860.88,492.83,860.13,492.11z
				 M843.08,521.44v5.83l3.51-6.07C845.43,521.36,844.26,521.44,843.08,521.44z M804.28,603.51c-4.4-3.39-7.99-7.5-10.77-12.33
				l-2.71,4.68c-0.97,1.68-0.98,3.75-0.01,5.43c0.97,1.68,2.76,2.72,4.71,2.72h9.45C804.72,603.85,804.49,603.68,804.28,603.51z
				 M843.08,521.44v5.83l3.51-6.07C845.43,521.36,844.26,521.44,843.08,521.44z M998.12,595.86l-29.32-50.63l-4.9-8.45l-5.2,8.98
				c-0.7,0.02-1.41,0.03-2.12,0.05l1.04,1.8L984,593.14h-72.1c-2.88,4.04-6.6,7.64-11.17,10.8c-0.03,0.02-0.06,0.04-0.08,0.06h92.77
				c1.94,0,3.73-1.04,4.71-2.72C999.1,599.6,999.09,597.53,998.12,595.86z"/>
		</g>
		<g>
			<path class="st4" d="M956.58,545.81l1.04,1.8l1.08-1.86C958,545.77,957.29,545.79,956.58,545.81z M956.58,545.81l1.04,1.8
				l1.08-1.86C958,545.77,957.29,545.79,956.58,545.81z M956.58,545.81l1.04,1.8l1.08-1.86C958,545.77,957.29,545.79,956.58,545.81z
				 M962.91,521.96c0.44-0.2,0.86-0.41,1.26-0.63c3.12-1.86,5.06-3.98,5.8-6.35c0.5-1.5,0.86-3.86,1.09-7.07L962.91,521.96z
				 M956.58,545.81l1.04,1.8l1.08-1.86C958,545.77,957.29,545.79,956.58,545.81z M956.58,545.81l1.04,1.8l1.08-1.86
				C958,545.77,957.29,545.79,956.58,545.81z M956.58,545.81l1.04,1.8l1.08-1.86C958,545.77,957.29,545.79,956.58,545.81z
				 M1062.91,622.12l-3.94-6.8h-9.57l2.74,4.74H915.66l9.29-16.05l6.29-10.86l26.37-45.54l1.08-1.86c-0.7,0.02-1.41,0.03-2.12,0.05
				c-1.91,0.03-3.92,0.05-6.01,0.05v-2.59l-28.89,49.88l-6.29,10.86l-10.49,18.12c-0.74,1.28-0.74,2.86,0,4.14
				c0.74,1.28,2.11,2.07,3.58,2.07h150.85c1.48,0,2.85-0.79,3.59-2.07C1063.66,624.98,1063.65,623.4,1062.91,622.12z M956.58,545.81
				c-1.91,0.03-3.92,0.05-6.01,0.05v-2.59l-28.89,49.88h9.57l26.37-45.54l1.08-1.86C958,545.77,957.29,545.79,956.58,545.81z
				 M956.58,545.81c-1.91,0.03-3.92,0.05-6.01,0.05v-2.59l-28.89,49.88h9.57l26.37-45.54l1.08-1.86
				C958,545.77,957.29,545.79,956.58,545.81z M956.58,545.81c-1.91,0.03-3.92,0.05-6.01,0.05v-2.59l-28.89,49.88h9.57l26.37-45.54
				l1.08-1.86C958,545.77,957.29,545.79,956.58,545.81z M956.58,545.81c-1.91,0.03-3.92,0.05-6.01,0.05v-2.59l-28.89,49.88h9.57
				l26.37-45.54l1.08-1.86C958,545.77,957.29,545.79,956.58,545.81z M956.58,545.81c-1.91,0.03-3.92,0.05-6.01,0.05v-2.59
				l-28.89,49.88h9.57l26.37-45.54l1.08-1.86C958,545.77,957.29,545.79,956.58,545.81z M1004.64,521.5c-0.76,3.03-2.23,6-4.42,8.9
				l31.52,54.42v-6.63h5.73L1004.64,521.5z M950.57,545.86v-2.59l-28.89,49.88h9.57l26.37-45.54l1.08-1.86
				c-0.7,0.02-1.41,0.03-2.12,0.05C954.66,545.84,952.66,545.86,950.57,545.86z M956.58,545.81c-1.91,0.03-3.92,0.05-6.01,0.05
				v-2.59l-28.89,49.88h9.57l26.37-45.54l1.08-1.86C958,545.77,957.29,545.79,956.58,545.81z M956.58,545.81
				c-1.91,0.03-3.92,0.05-6.01,0.05v-2.59l-28.89,49.88h9.57l26.37-45.54l1.08-1.86C958,545.77,957.29,545.79,956.58,545.81z
				 M956.58,545.81c-1.91,0.03-3.92,0.05-6.01,0.05v-2.59l-28.89,49.88h9.57l26.37-45.54l1.08-1.86
				C958,545.77,957.29,545.79,956.58,545.81z M956.58,545.81c-1.91,0.03-3.92,0.05-6.01,0.05v-2.59l-28.89,49.88h9.57l26.37-45.54
				l1.08-1.86C958,545.77,957.29,545.79,956.58,545.81z"/>
		</g>
		<g>
			<path class="st4" d="M856.96,583.44l-23.21-40.08l-6.27-10.84l-16.27-28.08l-13.78-0.73l23.37,40.34l6.28,10.84l16.84,29.09
				l5.31,9.17h13.36L856.96,583.44z M788.73,471.38c-2.06,0-3.97,1.09-5,2.88l-36.97,63.83c2.87,1.93,5.4,4.26,7.56,6.98
				c0.35,0.43,0.67,0.87,0.99,1.31l33.42-57.7l1.98,3.41c1.27-4.84,3.21-9.18,5.81-13.01l-2.79-4.82
				C792.7,472.48,790.79,471.38,788.73,471.38z M899.01,656.04L875,614.58l-6.12-10.57h-13.36l7.15,12.34l21.32,36.81H693.47
				l22.08-38.12c-4.49,0.82-9.25,1.35-14.27,1.59l-22.84,39.41c-1.03,1.79-1.03,3.99,0,5.78c1.03,1.79,2.93,2.89,5,2.89h210.57
				c2.06,0,3.97-1.1,5-2.89C900.05,660.03,900.05,657.82,899.01,656.04z"/>
		</g>
	</g>
	<g>
		<path class="st4" d="M755.31,546.39l-39.76,68.64c10.91-1.99,20.27-5.68,28.07-11.08c12.33-8.55,18.5-20.25,18.5-35.12
			C762.12,560.15,759.85,552.67,755.31,546.39z M750.08,520.21c4.31-5.72,6.46-12.26,6.46-19.62c0-12.26-5.09-22.6-15.28-31
			c-10.18-8.32-25.5-12.49-45.94-12.49c-19.18,0-34.31,3.83-45.39,11.49c-11.14,7.66-17.17,19.22-18.06,34.68l41.93,2.23
			c0.82-11.74,6.54-17.62,17.17-17.62c4.98,0,9,1.41,12.04,4.24c2.97,2.9,4.46,6.73,4.46,11.49c0,5.87-2.26,10.3-6.8,13.27
			c-4.61,3.05-9.52,4.57-14.72,4.57v25.2c16.87,0.6,25.31,7.21,25.31,19.85c0,4.98-1.52,9.22-4.57,12.71
			c-3.12,3.49-7.88,5.24-14.27,5.24c-14.72,0-22.41-8.25-23.08-24.76l-40.14,3.01c0.6,18.44,6.58,32.04,17.96,40.81
			c11.51,8.85,27.42,13.27,47.72,13.27c2.18,0,4.31-0.05,6.4-0.15l45.47-78.53c-4.03-2.72-8.76-4.67-14.18-5.84
			C739.93,530.02,745.77,526.01,750.08,520.21z"/>
		<path class="st4" d="M786.32,562.69c0.36,11.31,2.76,20.81,7.19,28.48l17.57-30.34L786.32,562.69z M843.92,583.98
			c-11.06-1.94-16.88-10.04-17.46-24.29l-2.26,0.17l-19.28,33.29h44.31L843.92,583.98z M843.92,583.98
			c-11.06-1.94-16.88-10.04-17.46-24.29l-2.26,0.17l-19.28,33.29h44.31L843.92,583.98z M843.92,583.98
			c-11.06-1.94-16.88-10.04-17.46-24.29l-2.26,0.17l-19.28,33.29h44.31L843.92,583.98z M843.92,583.98
			c-11.06-1.94-16.88-10.04-17.46-24.29l-2.26,0.17l-19.28,33.29h44.31L843.92,583.98z M786.32,562.69
			c0.36,11.31,2.76,20.81,7.19,28.48l17.57-30.34L786.32,562.69z M843.92,583.98c-11.06-1.94-16.88-10.04-17.46-24.29l-2.26,0.17
			l-19.28,33.29h44.31L843.92,583.98z M786.32,562.69c0.36,11.31,2.76,20.81,7.19,28.48l17.57-30.34L786.32,562.69z M843.92,583.98
			c-11.06-1.94-16.88-10.04-17.46-24.29l-2.26,0.17l-19.28,33.29h44.31L843.92,583.98z M786.32,562.69
			c0.36,11.31,2.76,20.81,7.19,28.48l17.57-30.34L786.32,562.69z M843.92,583.98c-11.06-1.94-16.88-10.04-17.46-24.29l-2.26,0.17
			l-19.28,33.29h44.31L843.92,583.98z M786.32,562.69c0.36,11.31,2.76,20.81,7.19,28.48l17.57-30.34L786.32,562.69z M843.92,583.98
			c-11.06-1.94-16.88-10.04-17.46-24.29l-2.26,0.17l-19.28,33.29h44.31L843.92,583.98z M804.94,604.01
			c11.47,8.52,27.15,12.77,47.06,12.77c3.69,0,7.24-0.14,10.67-0.43c4.32-0.36,8.43-0.95,12.33-1.77
			c9.88-2.06,18.43-5.59,25.65-10.57H804.94z M843.92,583.98c-11.06-1.94-16.88-10.04-17.46-24.29l-2.26,0.17l-19.28,33.29h44.31
			L843.92,583.98z M843.92,583.98c-11.06-1.94-16.88-10.04-17.46-24.29l-2.26,0.17l-19.28,33.29h44.31L843.92,583.98z
			 M786.32,562.69c0.36,11.31,2.76,20.81,7.19,28.48l17.57-30.34L786.32,562.69z M843.92,583.98
			c-11.06-1.94-16.88-10.04-17.46-24.29l-2.26,0.17l-19.28,33.29h44.31L843.92,583.98z M786.32,562.69
			c0.36,11.31,2.76,20.81,7.19,28.48l17.57-30.34L786.32,562.69z M843.92,583.98c-11.06-1.94-16.88-10.04-17.46-24.29l-2.26,0.17
			l-19.28,33.29h44.31L843.92,583.98z M786.32,562.69c0.36,11.31,2.76,20.81,7.19,28.48l17.57-30.34L786.32,562.69z M843.92,583.98
			c-11.06-1.94-16.88-10.04-17.46-24.29l-2.26,0.17l-19.28,33.29h44.31L843.92,583.98z M843.92,583.98
			c-11.06-1.94-16.88-10.04-17.46-24.29l-2.26,0.17l-19.28,33.29h44.31L843.92,583.98z M843.92,583.98
			c-11.06-1.94-16.88-10.04-17.46-24.29l-2.26,0.17l-19.28,33.29h44.31L843.92,583.98z M843.92,583.98
			c-11.06-1.94-16.88-10.04-17.46-24.29l-2.26,0.17l-19.28,33.29h44.31L843.92,583.98z M843.92,583.98
			c-11.06-1.94-16.88-10.04-17.46-24.29l-2.26,0.17l-19.28,33.29h44.31L843.92,583.98z M911.43,545.08
			c-5.21-6.54-12.46-10.81-21.75-12.82c7.36-2.23,13.19-6.25,17.51-12.04c4.31-5.72,6.46-12.26,6.46-19.62
			c0-12.26-5.09-22.6-15.28-31c-4.58-3.75-10.2-6.65-16.85-8.7l-19.44,33.57c1.67,2.53,2.51,5.57,2.51,9.15
			c0,5.87-2.26,10.3-6.8,13.27c-3.56,2.35-7.29,3.8-11.21,4.33c-1.16,0.16-2.33,0.24-3.51,0.24v25.2
			c16.87,0.6,25.31,7.21,25.31,19.85c0,4.98-1.52,9.22-4.57,12.71c-1.76,1.97-4.04,3.38-6.85,4.24c-2.16,0.66-4.64,0.99-7.42,0.99
			c-2,0-3.88-0.15-5.62-0.46c-11.06-1.94-16.88-10.04-17.46-24.29l-2.26,0.17l-19.28,33.29H911.9c4.89-6.86,7.33-14.96,7.33-24.32
			C919.23,559.53,916.63,551.62,911.43,545.08z M852.44,457.1c-19.18,0-34.3,3.83-45.38,11.49c-4.27,2.93-7.78,6.43-10.54,10.5
			l14.69,25.36l19.71,1.05c0.82-11.74,6.54-17.62,17.17-17.62c1.77,0,3.41,0.18,4.94,0.54l17.4-30.04
			C864.95,457.52,858.96,457.1,852.44,457.1z M789,503.26l8.44,0.45l-6.73-11.61C789.8,495.56,789.23,499.28,789,503.26z"/>
		<path class="st4" d="M950.57,460.22v40.59h20.74c-0.02,2.71-0.11,5.07-0.25,7.09l9.27-16.01c0.74-1.28,2.1-2.06,3.58-2.06
			c1.48,0,2.85,0.79,3.58,2.06l17.15,29.61c0.09-0.36,0.16-0.71,0.23-1.07c0.89-4.61,1.34-13.12,1.34-25.53v-34.68H950.57z
			 M983.9,502.23l-20,34.54l-5.2,8.98c3.71-0.1,7.07-0.27,10.1-0.53c5.21-0.43,9.38-1.07,12.54-1.93c6.25-1.71,11.49-4.8,15.73-9.26
			c1.18-1.2,2.23-2.41,3.15-3.64L983.9,502.23z M956.31,523.67c-1.74,0.22-3.66,0.33-5.74,0.33v19.27l2.27-3.92l6.28-10.83l3.8-6.56
			C961.09,522.78,958.89,523.34,956.31,523.67z"/>
		<path class="st4" d="M1031.74,584.82v30.5h17.67L1031.74,584.82z M1031.74,584.82v30.5h17.67L1031.74,584.82z M1031.74,584.82
			v30.5h17.67L1031.74,584.82z M1031.74,584.82v30.5h17.67L1031.74,584.82z M1031.74,584.82v30.5h17.67L1031.74,584.82z
			 M1142.36,553.33v24.87h-36.69v-80.84h14.72v-37.13h-88.65v37.13h13.94v80.84h-8.21l21.51,37.13h120.4v-62H1142.36z
			 M1031.74,615.32h17.67l-17.67-30.5V615.32z M1031.74,584.82v30.5h17.67L1031.74,584.82z M1031.74,584.82v30.5h17.67
			L1031.74,584.82z M1031.74,584.82v30.5h17.67L1031.74,584.82z M1031.74,584.82v30.5h17.67L1031.74,584.82z M1031.74,584.82v30.5
			h17.67L1031.74,584.82z"/>
	</g>
</g>
<g>
	<path class="st0" d="M1170.29,545.83h-37.02v24.87h-36.69v-80.84h14.72v-37.13h-88.65v37.13h13.94v80.84h-8.21L995.55,514
		c0.09-0.36,0.17-0.71,0.23-1.07c0.89-4.61,1.34-13.12,1.34-25.53v-34.68h-55.64v40.59h20.74c-0.03,2.71-0.11,5.07-0.25,7.09
		l-8.14,14.05c-1.82,0.82-4.02,1.39-6.6,1.71l-57.15-98.67c-0.97-1.68-2.76-2.71-4.7-2.71s-3.73,1.03-4.7,2.71l-19.33,33.37
		c-5.47-0.85-11.47-1.27-17.99-1.27c-19.18,0-34.3,3.83-45.38,11.49c-4.27,2.93-7.79,6.43-10.54,10.5l-2.79-4.82
		c-1.03-1.79-2.94-2.88-5-2.88c-2.06,0-3.97,1.09-5,2.88l-36.97,63.83c-4.03-2.72-8.76-4.67-14.18-5.84
		c7.36-2.23,13.19-6.25,17.51-12.04c4.31-5.72,6.46-12.26,6.46-19.62c0-12.26-5.09-22.6-15.28-31
		c-10.18-8.32-25.5-12.49-45.94-12.49c-19.18,0-34.3,3.83-45.38,11.49c-11.15,7.66-17.17,19.22-18.06,34.68l41.93,2.23
		c0.82-11.74,6.54-17.62,17.17-17.62c4.98,0,8.99,1.41,12.04,4.24c2.97,2.9,4.46,6.73,4.46,11.49c0,5.87-2.27,10.3-6.8,13.27
		c-4.61,3.05-9.52,4.57-14.72,4.57v25.2c16.87,0.6,25.31,7.21,25.31,19.85c0,4.98-1.52,9.22-4.57,12.71
		c-3.12,3.49-7.88,5.24-14.27,5.24c-14.72,0-22.41-8.25-23.08-24.76l-40.14,3.01c0.6,18.44,6.58,32.04,17.96,40.81
		c11.52,8.85,27.43,13.27,47.72,13.27c2.18,0,4.31-0.05,6.4-0.15l-22.83,39.41c-1.03,1.79-1.04,3.99,0,5.78
		c1.03,1.79,2.94,2.89,5,2.89h210.56c2.06,0,3.97-1.1,5-2.89c1.03-1.79,1.03-4-0.01-5.78l-24.01-41.46
		c9.88-2.06,18.43-5.59,25.64-10.57h14.75l-10.49,18.12c-0.74,1.28-0.74,2.86,0,4.14c0.74,1.28,2.1,2.07,3.58,2.07h150.85
		c1.48,0,2.85-0.79,3.59-2.07c0.74-1.28,0.73-2.86,0-4.14l-3.94-6.8h120.4V545.83z M948.53,540.11l26.38,45.54h-52.75L948.53,540.11
		z M817.99,547.39l16.84,29.09c-11.06-1.94-16.88-10.04-17.46-24.29l-2.26,0.17L817.99,547.39z M854.73,571.7
		c-1.76,1.97-4.04,3.38-6.85,4.24l-23.21-40.08l9.32-16.09v19.37c16.87,0.6,25.31,7.21,25.31,19.85
		C859.3,563.97,857.78,568.21,854.73,571.7z M855.51,496.1c0,5.87-2.27,10.3-6.8,13.27c-3.56,2.35-7.29,3.8-11.2,4.33L853,486.96
		C854.67,489.48,855.51,492.53,855.51,496.1z M821.84,497.99c0.82-11.74,6.54-17.62,17.17-17.62c1.77,0,3.41,0.18,4.94,0.54
		l-25.55,44.11l-16.27-28.08L821.84,497.99z M874.9,645.65H684.39l22.08-38.12c10.91-1.99,20.27-5.68,28.06-11.08
		c12.34-8.55,18.51-20.25,18.51-35.12c0-8.68-2.27-16.16-6.81-22.44l33.42-57.7l1.98,3.41c-0.91,3.46-1.48,7.18-1.71,11.17
		l8.44,0.45l23.37,40.34L802,553.34l-24.76,1.86c0.36,11.31,2.76,20.81,7.19,28.48l-2.71,4.68c-0.97,1.68-0.98,3.75-0.01,5.43
		c0.97,1.68,2.76,2.72,4.71,2.72h9.45c11.47,8.52,27.15,12.77,47.06,12.77c3.69,0,7.24-0.14,10.67-0.43L874.9,645.65z
		 M902.82,585.65c4.89-6.86,7.33-14.96,7.33-24.32c0-9.29-2.6-17.21-7.81-23.75c-5.2-6.54-12.45-10.81-21.74-12.82
		c7.36-2.23,13.19-6.25,17.51-12.04c4.31-5.72,6.46-12.26,6.46-19.62c0-12.26-5.09-22.6-15.28-31c-4.58-3.75-10.2-6.65-16.86-8.7
		l12.93-22.33l56.11,96.88v7.84l-28.89,49.88H902.82z M1043.06,612.56H906.58l9.3-16.05h68.46c1.94,0,3.73-1.04,4.71-2.72
		c0.97-1.68,0.96-3.75-0.01-5.43l-29.32-50.63c5.21-0.43,9.39-1.07,12.55-1.93c6.24-1.71,11.49-4.8,15.72-9.26
		c1.18-1.2,2.23-2.41,3.15-3.64l31.52,54.42v30.5h17.67L1043.06,612.56z"/>
	<g>
		<g>
			<path class="st1" d="M851.05,485.05c-1.97-1.82-4.34-3.05-7.11-3.7l-25.55,44.11l-6.68,11.53l6.28,10.84l6.67-11.53l9.33-16.09
				l3.51-6.07l15.5-26.75C852.44,486.55,851.79,485.77,851.05,485.05z M851.05,485.05c-1.97-1.82-4.34-3.05-7.11-3.7l-25.55,44.11
				l-6.68,11.53l6.28,10.84l6.67-11.53l9.33-16.09l3.51-6.07l15.5-26.75C852.44,486.55,851.79,485.77,851.05,485.05z M851.05,485.05
				c-1.97-1.82-4.34-3.05-7.11-3.7l-25.55,44.11l-6.68,11.53l6.28,10.84l6.67-11.53l9.33-16.09l3.51-6.07l15.5-26.75
				C852.44,486.55,851.79,485.77,851.05,485.05z M851.05,485.05c-1.97-1.82-4.34-3.05-7.11-3.7l-25.55,44.11l-6.68,11.53l6.28,10.84
				l6.67-11.53l9.33-16.09l3.51-6.07l15.5-26.75C852.44,486.55,851.79,485.77,851.05,485.05z M851.05,485.05
				c-1.97-1.82-4.34-3.05-7.11-3.7l-25.55,44.11l-6.68,11.53l6.28,10.84l6.67-11.53l9.33-16.09l3.51-6.07l15.5-26.75
				C852.44,486.55,851.79,485.77,851.05,485.05z M851.05,485.05c-1.97-1.82-4.34-3.05-7.11-3.7l-25.55,44.11l-6.68,11.53l6.28,10.84
				l6.67-11.53l9.33-16.09l3.51-6.07l15.5-26.75C852.44,486.55,851.79,485.77,851.05,485.05z M851.05,485.05
				c-1.97-1.82-4.34-3.05-7.11-3.7l-25.55,44.11l-6.68,11.53l6.28,10.84l6.67-11.53l9.33-16.09l3.51-6.07l15.5-26.75
				C852.44,486.55,851.79,485.77,851.05,485.05z M851.05,485.05c-1.97-1.82-4.34-3.05-7.11-3.7l-25.55,44.11l-6.68,11.53l6.28,10.84
				l6.67-11.53l9.33-16.09l3.51-6.07l15.5-26.75C852.44,486.55,851.79,485.77,851.05,485.05z M947.23,516.61l-57.16-98.67
				c-0.97-1.68-2.76-2.71-4.7-2.71c-1.94,0-3.72,1.03-4.7,2.71l-19.33,33.37c3.98,0.61,7.67,1.45,11.1,2.52l12.93-22.33l56.11,96.88
				l2.27,3.92l6.28-10.83L947.23,516.61z M843.94,481.35l-25.55,44.11l-6.68,11.53l6.28,10.84l6.67-11.53l9.33-16.09l3.51-6.07
				l15.5-26.75c-0.56-0.84-1.21-1.62-1.95-2.34C849.08,483.23,846.71,481.99,843.94,481.35z M851.05,485.05
				c-1.97-1.82-4.34-3.05-7.11-3.7l-25.55,44.11l-6.68,11.53l6.28,10.84l6.67-11.53l9.33-16.09l3.51-6.07l15.5-26.75
				C852.44,486.55,851.79,485.77,851.05,485.05z M851.05,485.05c-1.97-1.82-4.34-3.05-7.11-3.7l-25.55,44.11l-6.68,11.53l6.28,10.84
				l6.67-11.53l9.33-16.09l3.51-6.07l15.5-26.75C852.44,486.55,851.79,485.77,851.05,485.05z M851.05,485.05
				c-1.97-1.82-4.34-3.05-7.11-3.7l-25.55,44.11l-6.68,11.53l6.28,10.84l6.67-11.53l9.33-16.09l3.51-6.07l15.5-26.75
				C852.44,486.55,851.79,485.77,851.05,485.05z M851.05,485.05c-1.97-1.82-4.34-3.05-7.11-3.7l-25.55,44.11l-6.68,11.53l6.28,10.84
				l6.67-11.53l9.33-16.09l3.51-6.07l15.5-26.75C852.44,486.55,851.79,485.77,851.05,485.05z M851.05,485.05
				c-1.97-1.82-4.34-3.05-7.11-3.7l-25.55,44.11l-6.68,11.53l6.28,10.84l6.67-11.53l9.33-16.09l3.51-6.07l15.5-26.75
				C852.44,486.55,851.79,485.77,851.05,485.05z M851.05,485.05c-1.97-1.82-4.34-3.05-7.11-3.7l-25.55,44.11l-6.68,11.53l6.28,10.84
				l6.67-11.53l9.33-16.09l3.51-6.07l15.5-26.75C852.44,486.55,851.79,485.77,851.05,485.05z M851.05,485.05
				c-1.97-1.82-4.34-3.05-7.11-3.7l-25.55,44.11l-6.68,11.53l6.28,10.84l6.67-11.53l9.33-16.09l3.51-6.07l15.5-26.75
				C852.44,486.55,851.79,485.77,851.05,485.05z M851.05,485.05c-1.97-1.82-4.34-3.05-7.11-3.7l-25.55,44.11l-6.68,11.53
				l-9.72,16.78l13.12-0.98l2.88-4.96l6.67-11.53l9.33-16.09l3.51-6.07l15.5-26.75C852.44,486.55,851.79,485.77,851.05,485.05z
				 M833.99,514.37v5.83l3.51-6.07C836.35,514.3,835.17,514.37,833.99,514.37z M795.19,596.44c-4.4-3.39-7.99-7.5-10.77-12.33
				l-2.71,4.68c-0.97,1.68-0.98,3.75-0.01,5.43s2.76,2.72,4.71,2.72h9.45C795.63,596.78,795.41,596.61,795.19,596.44z
				 M833.99,514.37v5.83l3.51-6.07C836.35,514.3,835.17,514.37,833.99,514.37z M989.03,588.79l-29.32-50.63l-4.9-8.45l-5.2,8.98
				c-0.7,0.02-1.41,0.03-2.12,0.05l1.04,1.8l26.38,45.54h-72.1c-2.88,4.04-6.6,7.64-11.17,10.8c-0.03,0.02-0.06,0.04-0.08,0.06
				h92.77c1.94,0,3.73-1.04,4.71-2.72C990.01,592.54,990.01,590.47,989.03,588.79z"/>
		</g>
		<g>
			<path class="st1" d="M947.49,538.74l1.04,1.8l1.08-1.86C948.92,538.71,948.21,538.72,947.49,538.74z M947.49,538.74l1.04,1.8
				l1.08-1.86C948.92,538.71,948.21,538.72,947.49,538.74z M947.49,538.74l1.04,1.8l1.08-1.86
				C948.92,538.71,948.21,538.72,947.49,538.74z M953.83,514.9c0.44-0.2,0.86-0.41,1.26-0.63c3.12-1.86,5.06-3.98,5.8-6.35
				c0.5-1.5,0.86-3.86,1.09-7.07L953.83,514.9z M947.49,538.74l1.04,1.8l1.08-1.86C948.92,538.71,948.21,538.72,947.49,538.74z
				 M947.49,538.74l1.04,1.8l1.08-1.86C948.92,538.71,948.21,538.72,947.49,538.74z M947.49,538.74l1.04,1.8l1.08-1.86
				C948.92,538.71,948.21,538.72,947.49,538.74z M1053.83,615.06l-3.94-6.8h-9.57l2.74,4.74H906.58l9.29-16.05l6.29-10.86
				l26.37-45.54l1.08-1.86c-0.7,0.02-1.41,0.03-2.12,0.05c-1.91,0.03-3.92,0.05-6.01,0.05v-2.59l-28.89,49.88l-6.29,10.86
				l-10.49,18.12c-0.74,1.28-0.74,2.86,0,4.14c0.74,1.28,2.11,2.07,3.58,2.07h150.85c1.48,0,2.85-0.79,3.59-2.07
				C1054.57,617.92,1054.57,616.34,1053.83,615.06z M947.49,538.74c-1.91,0.03-3.92,0.05-6.01,0.05v-2.59l-28.89,49.88h9.57
				l26.37-45.54l1.08-1.86C948.92,538.71,948.21,538.72,947.49,538.74z M947.49,538.74c-1.91,0.03-3.92,0.05-6.01,0.05v-2.59
				l-28.89,49.88h9.57l26.37-45.54l1.08-1.86C948.92,538.71,948.21,538.72,947.49,538.74z M947.49,538.74
				c-1.91,0.03-3.92,0.05-6.01,0.05v-2.59l-28.89,49.88h9.57l26.37-45.54l1.08-1.86C948.92,538.71,948.21,538.72,947.49,538.74z
				 M947.49,538.74c-1.91,0.03-3.92,0.05-6.01,0.05v-2.59l-28.89,49.88h9.57l26.37-45.54l1.08-1.86
				C948.92,538.71,948.21,538.72,947.49,538.74z M947.49,538.74c-1.91,0.03-3.92,0.05-6.01,0.05v-2.59l-28.89,49.88h9.57
				l26.37-45.54l1.08-1.86C948.92,538.71,948.21,538.72,947.49,538.74z M995.55,514.44c-0.76,3.03-2.23,6-4.42,8.9l31.52,54.42
				v-6.63h5.73L995.55,514.44z M941.48,538.79v-2.59l-28.89,49.88h9.57l26.37-45.54l1.08-1.86c-0.7,0.02-1.41,0.03-2.12,0.05
				C945.58,538.78,943.57,538.79,941.48,538.79z M947.49,538.74c-1.91,0.03-3.92,0.05-6.01,0.05v-2.59l-28.89,49.88h9.57
				l26.37-45.54l1.08-1.86C948.92,538.71,948.21,538.72,947.49,538.74z M947.49,538.74c-1.91,0.03-3.92,0.05-6.01,0.05v-2.59
				l-28.89,49.88h9.57l26.37-45.54l1.08-1.86C948.92,538.71,948.21,538.72,947.49,538.74z M947.49,538.74
				c-1.91,0.03-3.92,0.05-6.01,0.05v-2.59l-28.89,49.88h9.57l26.37-45.54l1.08-1.86C948.92,538.71,948.21,538.72,947.49,538.74z
				 M947.49,538.74c-1.91,0.03-3.92,0.05-6.01,0.05v-2.59l-28.89,49.88h9.57l26.37-45.54l1.08-1.86
				C948.92,538.71,948.21,538.72,947.49,538.74z"/>
		</g>
		<g>
			<path class="st1" d="M847.88,576.38l-23.21-40.08l-6.27-10.84l-16.27-28.08l-13.78-0.73l23.37,40.34l6.28,10.84l16.84,29.09
				l5.31,9.17h13.36L847.88,576.38z M779.65,464.32c-2.06,0-3.97,1.09-5,2.88l-36.97,63.83c2.87,1.93,5.4,4.26,7.56,6.98
				c0.35,0.43,0.67,0.87,0.99,1.31l33.42-57.7l1.98,3.41c1.27-4.84,3.21-9.18,5.81-13.01l-2.79-4.82
				C783.61,465.41,781.71,464.32,779.65,464.32z M889.93,648.97l-24.02-41.46l-6.12-10.57h-13.36l7.15,12.34l21.32,36.81H684.39
				l22.08-38.12c-4.49,0.82-9.25,1.35-14.27,1.59l-22.84,39.41c-1.03,1.79-1.03,3.99,0,5.78c1.03,1.79,2.93,2.89,5,2.89h210.57
				c2.06,0,3.97-1.1,5-2.89C890.96,652.97,890.96,650.76,889.93,648.97z"/>
		</g>
	</g>
	<g>
		<path class="st1" d="M746.22,539.32l-39.76,68.64c10.91-1.99,20.27-5.68,28.07-11.08c12.33-8.55,18.5-20.25,18.5-35.12
			C753.04,553.08,750.77,545.61,746.22,539.32z M741,513.15c4.31-5.72,6.46-12.26,6.46-19.62c0-12.26-5.09-22.6-15.28-31
			c-10.18-8.32-25.5-12.49-45.94-12.49c-19.18,0-34.31,3.83-45.39,11.49c-11.14,7.66-17.17,19.22-18.06,34.68l41.93,2.23
			c0.82-11.74,6.54-17.62,17.17-17.62c4.98,0,9,1.41,12.04,4.24c2.97,2.9,4.46,6.73,4.46,11.49c0,5.87-2.26,10.3-6.8,13.27
			c-4.61,3.05-9.52,4.57-14.72,4.57v25.2c16.87,0.6,25.31,7.21,25.31,19.85c0,4.98-1.52,9.22-4.57,12.71
			c-3.12,3.49-7.88,5.24-14.27,5.24c-14.72,0-22.41-8.25-23.08-24.76l-40.14,3.01c0.6,18.44,6.58,32.04,17.96,40.81
			c11.51,8.85,27.42,13.27,47.72,13.27c2.18,0,4.31-0.05,6.4-0.15l45.47-78.53c-4.03-2.72-8.76-4.67-14.18-5.84
			C730.85,522.96,736.68,518.94,741,513.15z"/>
		<path class="st1" d="M777.24,555.63c0.36,11.31,2.76,20.81,7.19,28.48l17.57-30.34L777.24,555.63z M834.84,576.91
			c-11.06-1.94-16.88-10.04-17.46-24.29l-2.26,0.17l-19.28,33.29h44.31L834.84,576.91z M834.84,576.91
			c-11.06-1.94-16.88-10.04-17.46-24.29l-2.26,0.17l-19.28,33.29h44.31L834.84,576.91z M834.84,576.91
			c-11.06-1.94-16.88-10.04-17.46-24.29l-2.26,0.17l-19.28,33.29h44.31L834.84,576.91z M834.84,576.91
			c-11.06-1.94-16.88-10.04-17.46-24.29l-2.26,0.17l-19.28,33.29h44.31L834.84,576.91z M777.24,555.63
			c0.36,11.31,2.76,20.81,7.19,28.48l17.57-30.34L777.24,555.63z M834.84,576.91c-11.06-1.94-16.88-10.04-17.46-24.29l-2.26,0.17
			l-19.28,33.29h44.31L834.84,576.91z M777.24,555.63c0.36,11.31,2.76,20.81,7.19,28.48l17.57-30.34L777.24,555.63z M834.84,576.91
			c-11.06-1.94-16.88-10.04-17.46-24.29l-2.26,0.17l-19.28,33.29h44.31L834.84,576.91z M777.24,555.63
			c0.36,11.31,2.76,20.81,7.19,28.48l17.57-30.34L777.24,555.63z M834.84,576.91c-11.06-1.94-16.88-10.04-17.46-24.29l-2.26,0.17
			l-19.28,33.29h44.31L834.84,576.91z M777.24,555.63c0.36,11.31,2.76,20.81,7.19,28.48l17.57-30.34L777.24,555.63z M834.84,576.91
			c-11.06-1.94-16.88-10.04-17.46-24.29l-2.26,0.17l-19.28,33.29h44.31L834.84,576.91z M795.86,596.94
			c11.47,8.52,27.15,12.77,47.06,12.77c3.69,0,7.24-0.14,10.67-0.43c4.32-0.36,8.43-0.95,12.33-1.77
			c9.88-2.06,18.43-5.59,25.65-10.57H795.86z M834.84,576.91c-11.06-1.94-16.88-10.04-17.46-24.29l-2.26,0.17l-19.28,33.29h44.31
			L834.84,576.91z M834.84,576.91c-11.06-1.94-16.88-10.04-17.46-24.29l-2.26,0.17l-19.28,33.29h44.31L834.84,576.91z
			 M777.24,555.63c0.36,11.31,2.76,20.81,7.19,28.48l17.57-30.34L777.24,555.63z M834.84,576.91
			c-11.06-1.94-16.88-10.04-17.46-24.29l-2.26,0.17l-19.28,33.29h44.31L834.84,576.91z M777.24,555.63
			c0.36,11.31,2.76,20.81,7.19,28.48l17.57-30.34L777.24,555.63z M834.84,576.91c-11.06-1.94-16.88-10.04-17.46-24.29l-2.26,0.17
			l-19.28,33.29h44.31L834.84,576.91z M777.24,555.63c0.36,11.31,2.76,20.81,7.19,28.48l17.57-30.34L777.24,555.63z M834.84,576.91
			c-11.06-1.94-16.88-10.04-17.46-24.29l-2.26,0.17l-19.28,33.29h44.31L834.84,576.91z M834.84,576.91
			c-11.06-1.94-16.88-10.04-17.46-24.29l-2.26,0.17l-19.28,33.29h44.31L834.84,576.91z M834.84,576.91
			c-11.06-1.94-16.88-10.04-17.46-24.29l-2.26,0.17l-19.28,33.29h44.31L834.84,576.91z M834.84,576.91
			c-11.06-1.94-16.88-10.04-17.46-24.29l-2.26,0.17l-19.28,33.29h44.31L834.84,576.91z M834.84,576.91
			c-11.06-1.94-16.88-10.04-17.46-24.29l-2.26,0.17l-19.28,33.29h44.31L834.84,576.91z M902.35,538.01
			c-5.21-6.54-12.46-10.81-21.75-12.82c7.36-2.23,13.19-6.25,17.51-12.04c4.31-5.72,6.46-12.26,6.46-19.62
			c0-12.26-5.09-22.6-15.28-31c-4.58-3.75-10.2-6.65-16.85-8.7L853,487.39c1.67,2.53,2.51,5.57,2.51,9.15
			c0,5.87-2.26,10.3-6.8,13.27c-3.56,2.35-7.29,3.8-11.21,4.33c-1.16,0.16-2.33,0.24-3.51,0.24v25.2
			c16.87,0.6,25.31,7.21,25.31,19.85c0,4.98-1.52,9.22-4.57,12.71c-1.76,1.97-4.04,3.38-6.85,4.24c-2.16,0.66-4.64,0.99-7.42,0.99
			c-2,0-3.88-0.15-5.62-0.46c-11.06-1.94-16.88-10.04-17.46-24.29l-2.26,0.17l-19.28,33.29h106.98c4.89-6.86,7.33-14.96,7.33-24.32
			C910.15,552.47,907.55,544.56,902.35,538.01z M843.36,450.03c-19.18,0-34.3,3.83-45.38,11.49c-4.27,2.93-7.78,6.43-10.54,10.5
			l14.69,25.36l19.71,1.05c0.82-11.74,6.54-17.62,17.17-17.62c1.77,0,3.41,0.18,4.94,0.54l17.4-30.04
			C855.87,450.46,849.87,450.03,843.36,450.03z M779.91,496.2l8.44,0.45l-6.73-11.61C780.71,488.5,780.14,492.22,779.91,496.2z"/>
		<path class="st1" d="M941.48,453.16v40.59h20.74c-0.02,2.71-0.11,5.07-0.25,7.09l9.27-16.01c0.74-1.28,2.1-2.06,3.58-2.06
			c1.48,0,2.85,0.79,3.58,2.06l17.15,29.61c0.09-0.36,0.16-0.71,0.23-1.07c0.89-4.61,1.34-13.12,1.34-25.53v-34.68H941.48z
			 M974.82,495.17l-20,34.54l-5.2,8.98c3.71-0.1,7.07-0.27,10.1-0.53c5.21-0.43,9.38-1.07,12.54-1.93
			c6.25-1.71,11.49-4.8,15.73-9.26c1.18-1.2,2.23-2.41,3.15-3.64L974.82,495.17z M947.23,516.61c-1.74,0.22-3.66,0.33-5.74,0.33
			v19.27l2.27-3.92l6.28-10.83l3.8-6.56C952.01,515.71,949.81,516.28,947.23,516.61z"/>
		<path class="st1" d="M1022.66,577.76v30.5h17.66L1022.66,577.76z M1022.66,577.76v30.5h17.66L1022.66,577.76z M1022.66,577.76
			v30.5h17.66L1022.66,577.76z M1022.66,577.76v30.5h17.66L1022.66,577.76z M1022.66,577.76v30.5h17.66L1022.66,577.76z
			 M1133.27,546.26v24.87h-36.69v-80.84h14.72v-37.13h-88.65v37.13h13.94v80.84h-8.21l21.51,37.13h120.4v-62H1133.27z
			 M1022.66,608.26h17.66l-17.66-30.5V608.26z M1022.66,577.76v30.5h17.66L1022.66,577.76z M1022.66,577.76v30.5h17.66
			L1022.66,577.76z M1022.66,577.76v30.5h17.66L1022.66,577.76z M1022.66,577.76v30.5h17.66L1022.66,577.76z M1022.66,577.76v30.5
			h17.66L1022.66,577.76z"/>
	</g>
</g>
</svg>
