<?xml version="1.0" encoding="utf-8"?>
<!-- Generator: Adobe Illustrator 25.0.0, SVG Export Plug-In . SVG Version: 6.00 Build 0)  -->
<svg version="1.1" id="Calque_1" xmlns="http://www.w3.org/2000/svg" xmlns:xlink="http://www.w3.org/1999/xlink" x="0px" y="0px"
	 viewBox="0 0 1920 1080" style="enable-background:new 0 0 1920 1080;" xml:space="preserve">
<style type="text/css">
	.st0{fill:#1B1464;}
	.st1{fill:#0071BC;}
	.st2{filter:url(#Adobe_OpacityMaskFilter);}
	.st3{mask:url(#XMLID_2_);fill:#1B1464;}
	.st4{fill:#FFFFFF;stroke:#FFFFFF;stroke-miterlimit:10;}
	.st5{filter:url(#Adobe_OpacityMaskFilter_1_);}
	.st6{mask:url(#XMLID_3_);fill:#1B1464;}
</style>
<path class="st1" d="M1593.17,562.62h-85.21v57.24h-84.44V433.78h33.88v-85.46h-204.04v85.46h32.08v186.08h-18.89l-75.58-130.49
	c0.2-0.82,0.38-1.64,0.54-2.46c2.05-10.61,3.08-30.2,3.08-58.77v-79.82h-128.07v93.42h47.73c-0.06,6.23-0.26,11.67-0.58,16.33
	l-18.74,32.35c-4.18,1.88-9.25,3.19-15.2,3.94L948.17,267.24c-2.23-3.86-6.35-6.23-10.81-6.23c-4.46,0-8.58,2.37-10.82,6.23
	l-44.49,76.82c-12.6-1.95-26.4-2.93-41.4-2.93c-44.14,0-78.96,8.82-104.45,26.44c-9.82,6.74-17.92,14.8-24.26,24.17l-6.43-11.1
	c-2.37-4.11-6.76-6.63-11.5-6.63c-4.75,0-9.13,2.52-11.51,6.63l-85.1,146.92c-9.27-6.26-20.16-10.74-32.65-13.44
	c16.94-5.14,30.37-14.38,40.3-27.72c9.92-13.17,14.88-28.23,14.88-45.17c0-28.23-11.72-52.01-35.16-71.35
	c-23.44-19.16-58.69-28.75-105.74-28.75c-44.14,0-78.96,8.82-104.46,26.44c-25.66,17.62-39.52,44.23-41.58,79.82l96.51,5.13
	c1.88-27.03,15.05-40.55,39.52-40.55c11.46,0,20.7,3.25,27.72,9.75c6.84,6.67,10.26,15.49,10.26,26.44
	c0,13.52-5.22,23.7-15.65,30.54c-10.61,7.02-21.91,10.52-33.88,10.52v58.01c38.84,1.37,58.26,16.59,58.26,45.68
	c0,11.46-3.51,21.22-10.52,29.26c-7.19,8.04-18.14,12.06-32.85,12.06c-33.88,0-51.59-18.99-53.13-56.98l-92.4,6.93
	c1.37,42.44,15.15,73.75,41.33,93.94c26.51,20.36,63.13,30.54,109.84,30.54c5.01,0,9.92-0.11,14.72-0.35l-52.55,90.72
	c-2.38,4.11-2.39,9.19-0.01,13.31c2.37,4.11,6.76,6.65,11.52,6.65h484.66c4.75,0,9.14-2.54,11.52-6.65
	c2.37-4.12,2.37-9.2-0.02-13.31l-55.27-95.43c22.74-4.75,42.41-12.86,59.02-24.33h33.95l-24.15,41.7c-1.71,2.95-1.71,6.58-0.01,9.53
	s4.84,4.77,8.25,4.77h347.22c3.41,0,6.56-1.82,8.26-4.77s1.69-6.59-0.01-9.53l-9.06-15.65h277.12V562.62z M1082.74,549.46
	l60.71,104.81h-121.41L1082.74,549.46z M782.27,566.22l38.77,66.95c-25.46-4.47-38.86-23.1-40.19-55.92l-5.2,0.39L782.27,566.22z
	 M866.83,622.17c-4.06,4.54-9.31,7.79-15.77,9.77l-53.43-92.25l21.46-37.04v44.58c38.84,1.37,58.26,16.59,58.26,45.68
	C877.35,604.37,873.84,614.13,866.83,622.17z M868.63,448.16c0,13.52-5.22,23.7-15.66,30.54c-8.19,5.42-16.78,8.74-25.79,9.97
	l35.66-61.56C866.7,432.93,868.63,439.94,868.63,448.16z M791.12,452.52c1.88-27.03,15.05-40.55,39.52-40.55
	c4.07,0,7.85,0.41,11.36,1.24l-58.81,101.54l-37.44-64.64L791.12,452.52z M913.27,792.39H474.75l50.82-87.74
	c25.12-4.57,46.65-13.08,64.59-25.51c28.4-19.67,42.6-46.62,42.6-80.84c0-19.98-5.23-37.19-15.68-51.65l76.93-132.81l4.55,7.85
	c-2.1,7.97-3.41,16.53-3.94,25.7l19.42,1.03l53.78,92.86l-22.37,38.62l-56.99,4.28c0.84,26.04,6.35,47.9,16.55,65.56l-6.24,10.77
	c-2.24,3.86-2.25,8.63-0.02,12.5s6.36,6.26,10.83,6.26h21.74c26.39,19.6,62.5,29.39,108.31,29.39c8.49,0,16.67-0.33,24.56-0.99
	L913.27,792.39z M977.52,654.27c11.25-15.78,16.88-34.43,16.88-55.97c0-21.39-5.99-39.61-17.97-54.67
	c-11.98-15.05-28.66-24.89-50.05-29.51c16.94-5.14,30.37-14.38,40.3-27.72c9.92-13.17,14.88-28.23,14.88-45.17
	c0-28.23-11.72-52.01-35.16-71.35c-10.54-8.62-23.47-15.3-38.8-20.03l29.77-51.4l129.15,222.98v18.04l-66.49,114.8H977.52z
	 M1300.32,716.22H986.17l21.4-36.95h157.58c4.46,0,8.59-2.39,10.83-6.26c2.23-3.87,2.22-8.64-0.02-12.5l-67.49-116.53
	c11.99-0.98,21.61-2.46,28.88-4.45c14.37-3.94,26.44-11.04,36.19-21.31c2.72-2.77,5.14-5.55,7.26-8.37l72.56,125.27v70.2h40.66
	L1300.32,716.22z"/>
<g>
	<g>
		<path class="st0" d="M1175.96,660.51l-67.49-116.53l-11.27-19.46l-11.97,20.67c-1.6,0.04-3.23,0.08-4.88,0.12l2.4,4.15
			l60.71,104.81H977.52c-6.63,9.29-15.2,17.58-25.73,24.87c-0.06,0.04-0.13,0.09-0.19,0.13h213.55c4.46,0,8.59-2.39,10.83-6.26
			C1178.21,669.14,1178.2,664.37,1175.96,660.51z M819.09,489.22v13.43l8.09-13.98C824.52,489.04,821.82,489.22,819.09,489.22z
			 M729.78,678.12c-10.11-7.8-18.38-17.26-24.77-28.38l-6.24,10.77c-2.24,3.86-2.25,8.63-0.02,12.5s6.36,6.26,10.83,6.26h21.74
			C730.8,678.9,730.29,678.51,729.78,678.12z M819.09,489.22v13.43l8.09-13.98C824.52,489.04,821.82,489.22,819.09,489.22z
			 M858.36,421.72c-4.53-4.19-9.98-7.03-16.36-8.51l-58.81,101.54l-15.37,26.53l-22.37,38.62l30.2-2.26l6.62-11.42l15.36-26.53
			l21.46-37.04l8.09-13.98l35.66-61.56C861.56,425.18,860.07,423.38,858.36,421.72z M858.36,421.72c-4.53-4.19-9.98-7.03-16.36-8.51
			l-58.81,101.54l-15.37,26.53l14.45,24.94l15.36-26.53l21.46-37.04l8.09-13.98l35.66-61.56
			C861.56,425.18,860.07,423.38,858.36,421.72z M858.36,421.72c-4.53-4.19-9.98-7.03-16.36-8.51l-58.81,101.54l-15.37,26.53
			l14.45,24.94l15.36-26.53l21.46-37.04l8.09-13.98l35.66-61.56C861.56,425.18,860.07,423.38,858.36,421.72z M858.36,421.72
			c-4.53-4.19-9.98-7.03-16.36-8.51l-58.81,101.54l-15.37,26.53l14.45,24.94l15.36-26.53l21.46-37.04l8.09-13.98l35.66-61.56
			C861.56,425.18,860.07,423.38,858.36,421.72z M858.36,421.72c-4.53-4.19-9.98-7.03-16.36-8.51l-58.81,101.54l-15.37,26.53
			l14.45,24.94l15.36-26.53l21.46-37.04l8.09-13.98l35.66-61.56C861.56,425.18,860.07,423.38,858.36,421.72z M858.36,421.72
			c-4.53-4.19-9.98-7.03-16.36-8.51l-58.81,101.54l-15.37,26.53l14.45,24.94l15.36-26.53l21.46-37.04l8.09-13.98l35.66-61.56
			C861.56,425.18,860.07,423.38,858.36,421.72z M858.36,421.72c-4.53-4.19-9.98-7.03-16.36-8.51l-58.81,101.54l-15.37,26.53
			l14.45,24.94l15.36-26.53l21.46-37.04l8.09-13.98l35.66-61.56C861.56,425.18,860.07,423.38,858.36,421.72z M858.36,421.72
			c-4.53-4.19-9.98-7.03-16.36-8.51l-58.81,101.54l-15.37,26.53l14.45,24.94l15.36-26.53l21.46-37.04l8.09-13.98l35.66-61.56
			C861.56,425.18,860.07,423.38,858.36,421.72z M1079.73,494.36L948.17,267.24c-2.23-3.86-6.35-6.23-10.81-6.23
			c-4.46,0-8.58,2.37-10.82,6.23l-44.49,76.82c9.15,1.41,17.66,3.34,25.54,5.79l29.77-51.4l129.15,222.98l5.22,9.02l14.45-24.93
			L1079.73,494.36z M842,413.21l-58.81,101.54l-15.37,26.53l14.45,24.94l15.36-26.53l21.46-37.04l8.09-13.98l35.66-61.56
			c-1.28-1.93-2.77-3.73-4.48-5.39C853.83,417.53,848.38,414.69,842,413.21z M858.36,421.72c-4.53-4.19-9.98-7.03-16.36-8.51
			l-58.81,101.54l-15.37,26.53l14.45,24.94l15.36-26.53l21.46-37.04l8.09-13.98l35.66-61.56
			C861.56,425.18,860.07,423.38,858.36,421.72z M858.36,421.72c-4.53-4.19-9.98-7.03-16.36-8.51l-58.81,101.54l-15.37,26.53
			l14.45,24.94l15.36-26.53l21.46-37.04l8.09-13.98l35.66-61.56C861.56,425.18,860.07,423.38,858.36,421.72z M858.36,421.72
			c-4.53-4.19-9.98-7.03-16.36-8.51l-58.81,101.54l-15.37,26.53l14.45,24.94l15.36-26.53l21.46-37.04l8.09-13.98l35.66-61.56
			C861.56,425.18,860.07,423.38,858.36,421.72z M858.36,421.72c-4.53-4.19-9.98-7.03-16.36-8.51l-58.81,101.54l-15.37,26.53
			l14.45,24.94l15.36-26.53l21.46-37.04l8.09-13.98l35.66-61.56C861.56,425.18,860.07,423.38,858.36,421.72z M858.36,421.72
			c-4.53-4.19-9.98-7.03-16.36-8.51l-58.81,101.54l-15.37,26.53l14.45,24.94l15.36-26.53l21.46-37.04l8.09-13.98l35.66-61.56
			C861.56,425.18,860.07,423.38,858.36,421.72z M858.36,421.72c-4.53-4.19-9.98-7.03-16.36-8.51l-58.81,101.54l-15.37,26.53
			l14.45,24.94l15.36-26.53l21.46-37.04l8.09-13.98l35.66-61.56C861.56,425.18,860.07,423.38,858.36,421.72z M858.36,421.72
			c-4.53-4.19-9.98-7.03-16.36-8.51l-58.81,101.54l-15.37,26.53l14.45,24.94l15.36-26.53l21.46-37.04l8.09-13.98l35.66-61.56
			C861.56,425.18,860.07,423.38,858.36,421.72z"/>
	</g>
	<g>
		<path class="st0" d="M1080.34,545.31c-4.41,0.08-9.02,0.12-13.83,0.12v-5.96l-66.49,114.8h22.02l60.7-104.81l2.48-4.27
			C1083.63,545.23,1081.99,545.27,1080.34,545.31z M1080.34,545.31c-4.41,0.08-9.02,0.12-13.83,0.12v-5.96l-66.49,114.8h22.02
			l60.7-104.81l2.48-4.27C1083.63,545.23,1081.99,545.27,1080.34,545.31z M1080.34,545.31c-4.41,0.08-9.02,0.12-13.83,0.12v-5.96
			l-66.49,114.8h22.02l60.7-104.81l2.48-4.27C1083.63,545.23,1081.99,545.27,1080.34,545.31z M1080.34,545.31
			c-4.41,0.08-9.02,0.12-13.83,0.12v-5.96l-66.49,114.8h22.02l60.7-104.81l2.48-4.27C1083.63,545.23,1081.99,545.27,1080.34,545.31z
			 M1190.97,489.37c-1.73,6.97-5.12,13.8-10.17,20.48l72.56,125.27v-15.26h13.19L1190.97,489.37z M1066.52,545.43v-5.96
			l-66.49,114.8h22.02l60.7-104.81l2.48-4.27c-1.6,0.04-3.23,0.08-4.88,0.12C1075.94,545.39,1071.32,545.43,1066.52,545.43z
			 M1080.34,545.31c-4.41,0.08-9.02,0.12-13.83,0.12v-5.96l-66.49,114.8h22.02l60.7-104.81l2.48-4.27
			C1083.63,545.23,1081.99,545.27,1080.34,545.31z M1080.34,545.31c-4.41,0.08-9.02,0.12-13.83,0.12v-5.96l-66.49,114.8h22.02
			l60.7-104.81l2.48-4.27C1083.63,545.23,1081.99,545.27,1080.34,545.31z M1080.34,545.31c-4.41,0.08-9.02,0.12-13.83,0.12v-5.96
			l-66.49,114.8h22.02l60.7-104.81l2.48-4.27C1083.63,545.23,1081.99,545.27,1080.34,545.31z M1080.34,545.31
			c-4.41,0.08-9.02,0.12-13.83,0.12v-5.96l-66.49,114.8h22.02l60.7-104.81l2.48-4.27C1083.63,545.23,1081.99,545.27,1080.34,545.31z
			 M1325.1,720.97l-9.06-15.65h-22.03l6.31,10.9H986.17l21.4-36.95l14.48-25l60.7-104.81l2.48-4.27c-1.6,0.04-3.23,0.08-4.88,0.12
			c-4.41,0.08-9.02,0.12-13.83,0.12v-5.96l-66.49,114.8l-14.48,25l-24.15,41.7c-1.71,2.95-1.71,6.58-0.01,9.53s4.84,4.77,8.25,4.77
			h347.22c3.41,0,6.56-1.82,8.26-4.77S1326.8,723.91,1325.1,720.97z M1080.34,545.31l2.4,4.15l2.48-4.27
			C1083.63,545.23,1081.99,545.27,1080.34,545.31z M1080.34,545.31l2.4,4.15l2.48-4.27
			C1083.63,545.23,1081.99,545.27,1080.34,545.31z M1080.34,545.31l2.4,4.15l2.48-4.27
			C1083.63,545.23,1081.99,545.27,1080.34,545.31z M1094.93,490.42c1.02-0.45,1.99-0.94,2.9-1.46c7.18-4.27,11.63-9.15,13.34-14.62
			c1.16-3.46,1.99-8.88,2.5-16.27L1094.93,490.42z M1080.34,545.31l2.4,4.15l2.48-4.27
			C1083.63,545.23,1081.99,545.27,1080.34,545.31z M1080.34,545.31l2.4,4.15l2.48-4.27
			C1083.63,545.23,1081.99,545.27,1080.34,545.31z M1080.34,545.31l2.4,4.15l2.48-4.27
			C1083.63,545.23,1081.99,545.27,1080.34,545.31z"/>
	</g>
	<g>
		<path class="st0" d="M947.85,799.03l-55.27-95.43l-14.09-24.33h-30.74l16.45,28.4l49.07,84.72H474.75l50.82-87.74
			c-10.34,1.89-21.29,3.11-32.85,3.66l-52.55,90.72c-2.38,4.11-2.39,9.19-0.01,13.31c2.37,4.11,6.76,6.65,11.52,6.65h484.66
			c4.75,0,9.14-2.54,11.52-6.65C950.23,808.22,950.23,803.14,947.85,799.03z M851.06,631.94l-53.43-92.25l-14.44-24.94l-37.44-64.64
			l-33.81-58.37l-6.43-11.1c-2.37-4.11-6.76-6.63-11.5-6.63c-4.75,0-9.13,2.52-11.51,6.63l-85.1,146.92
			c6.61,4.45,12.42,9.81,17.4,16.07c0.79,0.99,1.55,2,2.28,3.02l76.93-132.81l4.55,7.85l15.48,26.73l53.78,92.86l14.45,24.94
			l38.77,66.95l12.22,21.1H864L851.06,631.94z"/>
	</g>
</g>
<g>
	<path class="st0" d="M605.05,486.4c9.92-13.17,14.88-28.23,14.88-45.17c0-28.23-11.72-52.01-35.16-71.35
		c-23.44-19.16-58.69-28.75-105.74-28.75c-44.14,0-78.96,8.82-104.46,26.44c-25.66,17.62-39.52,44.23-41.58,79.82l96.51,5.13
		c1.88-27.03,15.05-40.55,39.52-40.55c11.46,0,20.7,3.25,27.72,9.75c6.84,6.67,10.26,15.49,10.26,26.44
		c0,13.52-5.22,23.7-15.65,30.54c-10.61,7.02-21.91,10.52-33.88,10.52v58.01c38.84,1.37,58.26,16.59,58.26,45.68
		c0,11.46-3.51,21.22-10.52,29.26c-7.19,8.04-18.14,12.06-32.85,12.06c-33.88,0-51.59-18.99-53.13-56.98l-92.4,6.93
		c1.37,42.44,15.15,73.75,41.33,93.94c26.51,20.36,63.13,30.54,109.84,30.54c5.01,0,9.92-0.11,14.72-0.35L597.4,527.56
		c-9.27-6.26-20.16-10.74-32.65-13.44C581.69,508.98,595.12,499.74,605.05,486.4z M617.08,546.65l-91.51,158
		c25.12-4.57,46.65-13.08,64.59-25.51c28.4-19.67,42.6-46.62,42.6-80.84C632.76,578.32,627.53,561.11,617.08,546.65z"/>
	<path class="st0" d="M840.65,341.13c-44.14,0-78.96,8.82-104.45,26.44c-9.82,6.74-17.92,14.8-24.26,24.17
		c-6,8.82-10.46,18.8-13.38,29.95c-2.1,7.97-3.41,16.53-3.94,25.7l19.42,1.03l31.71,1.69l45.37,2.41
		c1.88-27.03,15.05-40.55,39.52-40.55c4.07,0,7.85,0.41,11.36,1.24l40.05-69.15C869.45,342.11,855.65,341.13,840.65,341.13z
		 M976.43,543.63c-11.98-15.05-28.66-24.89-50.05-29.51c16.94-5.14,30.37-14.38,40.3-27.72c9.92-13.17,14.88-28.23,14.88-45.17
		c0-28.23-11.72-52.01-35.16-71.35c-10.54-8.62-23.47-15.3-38.8-20.03l-44.75,77.26c3.86,5.82,5.79,12.83,5.79,21.05
		c0,13.52-5.22,23.7-15.66,30.54c-8.19,5.42-16.78,8.74-25.79,9.97c-2.66,0.37-5.36,0.55-8.09,0.55v58.01
		c38.84,1.37,58.26,16.59,58.26,45.68c0,11.46-3.51,21.22-10.52,29.26c-4.06,4.54-9.31,7.79-15.77,9.77
		c-4.98,1.53-10.67,2.29-17.08,2.29c-4.61,0-8.93-0.35-12.94-1.06c-25.46-4.47-38.86-23.1-40.19-55.92l-5.2,0.39l-44.38,76.63
		h246.24c11.25-15.78,16.88-34.43,16.88-55.97C994.4,576.91,988.41,558.69,976.43,543.63z M821.04,633.17
		c-25.46-4.47-38.86-23.1-40.19-55.92l-5.2,0.39l-44.38,76.63h101.99L821.04,633.17z M821.04,633.17
		c-25.46-4.47-38.86-23.1-40.19-55.92l-5.2,0.39l-44.38,76.63h101.99L821.04,633.17z M821.04,633.17
		c-25.46-4.47-38.86-23.1-40.19-55.92l-5.2,0.39l-44.38,76.63h101.99L821.04,633.17z M821.04,633.17
		c-25.46-4.47-38.86-23.1-40.19-55.92l-5.2,0.39l-44.38,76.63h101.99L821.04,633.17z M821.04,633.17
		c-25.46-4.47-38.86-23.1-40.19-55.92l-5.2,0.39l-44.38,76.63h101.99L821.04,633.17z M688.46,584.18
		c0.84,26.04,6.35,47.9,16.55,65.56l40.44-69.84L688.46,584.18z M821.04,633.17c-25.46-4.47-38.86-23.1-40.19-55.92l-5.2,0.39
		l-44.38,76.63h101.99L821.04,633.17z M688.46,584.18c0.84,26.04,6.35,47.9,16.55,65.56l40.44-69.84L688.46,584.18z M821.04,633.17
		c-25.46-4.47-38.86-23.1-40.19-55.92l-5.2,0.39l-44.38,76.63h101.99L821.04,633.17z M688.46,584.18
		c0.84,26.04,6.35,47.9,16.55,65.56l40.44-69.84L688.46,584.18z M821.04,633.17c-25.46-4.47-38.86-23.1-40.19-55.92l-5.2,0.39
		l-44.38,76.63h101.99L821.04,633.17z M731.32,679.27c26.39,19.6,62.5,29.39,108.31,29.39c8.49,0,16.67-0.33,24.56-0.99
		c9.94-0.83,19.4-2.19,28.38-4.07c22.74-4.75,42.41-12.86,59.02-24.33H731.32z M821.04,633.17c-25.46-4.47-38.86-23.1-40.19-55.92
		l-5.2,0.39l-44.38,76.63h101.99L821.04,633.17z M688.46,584.18c0.84,26.04,6.35,47.9,16.55,65.56l40.44-69.84L688.46,584.18z
		 M821.04,633.17c-25.46-4.47-38.86-23.1-40.19-55.92l-5.2,0.39l-44.38,76.63h101.99L821.04,633.17z M688.46,584.18
		c0.84,26.04,6.35,47.9,16.55,65.56l40.44-69.84L688.46,584.18z M821.04,633.17c-25.46-4.47-38.86-23.1-40.19-55.92l-5.2,0.39
		l-44.38,76.63h101.99L821.04,633.17z M688.46,584.18c0.84,26.04,6.35,47.9,16.55,65.56l40.44-69.84L688.46,584.18z M821.04,633.17
		c-25.46-4.47-38.86-23.1-40.19-55.92l-5.2,0.39l-44.38,76.63h101.99L821.04,633.17z M688.46,584.18
		c0.84,26.04,6.35,47.9,16.55,65.56l40.44-69.84L688.46,584.18z M821.04,633.17c-25.46-4.47-38.86-23.1-40.19-55.92l-5.2,0.39
		l-44.38,76.63h101.99L821.04,633.17z M821.04,633.17c-25.46-4.47-38.86-23.1-40.19-55.92l-5.2,0.39l-44.38,76.63h101.99
		L821.04,633.17z M821.04,633.17c-25.46-4.47-38.86-23.1-40.19-55.92l-5.2,0.39l-44.38,76.63h101.99L821.04,633.17z M821.04,633.17
		c-25.46-4.47-38.86-23.1-40.19-55.92l-5.2,0.39l-44.38,76.63h101.99L821.04,633.17z M688.46,584.18
		c0.84,26.04,6.35,47.9,16.55,65.56l40.44-69.84L688.46,584.18z"/>
	<path class="st0" d="M1079.73,494.36c-4,0.51-8.41,0.76-13.21,0.76v44.35l5.22-9.02l14.45-24.93l8.74-15.1
		C1090.74,492.3,1085.68,493.61,1079.73,494.36z M1143.24,445.01l-46.05,79.51l-11.97,20.67c8.54-0.23,16.29-0.63,23.24-1.21
		c11.99-0.98,21.61-2.46,28.88-4.45c14.37-3.94,26.44-11.04,36.19-21.31c2.72-2.77,5.14-5.55,7.26-8.37L1143.24,445.01z
		 M1066.52,348.32v93.42h47.73c-0.06,6.23-0.26,11.67-0.58,16.33l21.34-36.85c1.7-2.94,4.84-4.75,8.24-4.75s6.54,1.81,8.25,4.75
		l39.47,68.15c0.2-0.82,0.38-1.64,0.54-2.46c2.05-10.61,3.08-30.2,3.08-58.77v-79.82H1066.52z"/>
	<path class="st0" d="M1253.35,635.12v70.2h40.66L1253.35,635.12z M1253.35,635.12v70.2h40.66L1253.35,635.12z M1253.35,635.12v70.2
		h40.66L1253.35,635.12z M1253.35,635.12v70.2h40.66L1253.35,635.12z M1253.35,635.12v70.2h40.66L1253.35,635.12z M1507.96,562.62
		v57.24h-84.44V433.78h33.88v-85.46h-204.04v85.46h32.08v186.08h-18.89l49.5,85.46h277.12v-142.7H1507.96z M1253.35,705.32h40.66
		l-40.66-70.2V705.32z M1253.35,635.12v70.2h40.66L1253.35,635.12z M1253.35,635.12v70.2h40.66L1253.35,635.12z M1253.35,635.12
		v70.2h40.66L1253.35,635.12z M1253.35,635.12v70.2h40.66L1253.35,635.12z"/>
</g>
</svg>
