<?xml version="1.0" encoding="utf-8"?>
<!-- Generator: Adobe Illustrator 25.0.0, SVG Export Plug-In . SVG Version: 6.00 Build 0)  -->
<svg version="1.1" id="Calque_1" xmlns="http://www.w3.org/2000/svg" xmlns:xlink="http://www.w3.org/1999/xlink" x="0px" y="0px"
	 viewBox="0 0 1920 1080" style="enable-background:new 0 0 1920 1080;" xml:space="preserve">
<style type="text/css">
	.st0{fill:#0071BC;}
	.st1{fill:#1B1464;}
</style>
<path class="st0" d="M-303.39,450.14h-85.21v57.24h-84.44V321.3h33.88v-85.46H-643.2v85.46h32.08v186.08h-18.89l-75.58-130.49
	c0.2-0.82,0.38-1.64,0.54-2.46c2.05-10.61,3.08-30.2,3.08-58.77v-79.82h-128.07v93.42h47.73c-0.06,6.23-0.26,11.67-0.58,16.33
	l-18.74,32.35c-4.18,1.88-9.25,3.19-15.2,3.94l-131.55-227.12c-2.23-3.86-6.35-6.23-10.81-6.23c-4.46,0-8.58,2.37-10.82,6.23
	l-44.49,76.82c-12.6-1.95-26.4-2.93-41.4-2.93c-44.14,0-78.96,8.82-104.45,26.44c-9.82,6.74-17.92,14.8-24.26,24.17l-6.43-11.1
	c-2.37-4.11-6.76-6.63-11.5-6.63c-4.75,0-9.13,2.52-11.51,6.63l-85.1,146.92c-9.27-6.26-20.16-10.74-32.65-13.44
	c16.94-5.14,30.37-14.38,40.3-27.72c9.92-13.17,14.88-28.23,14.88-45.17c0-28.23-11.72-52.01-35.16-71.35
	c-23.44-19.16-58.69-28.75-105.74-28.75c-44.14,0-78.96,8.82-104.46,26.44c-25.66,17.62-39.52,44.23-41.58,79.82l96.51,5.13
	c1.88-27.03,15.05-40.55,39.52-40.55c11.46,0,20.7,3.25,27.72,9.75c6.84,6.67,10.26,15.49,10.26,26.44
	c0,13.52-5.22,23.7-15.65,30.54c-10.61,7.02-21.91,10.52-33.88,10.52v58.01c38.84,1.37,58.26,16.59,58.26,45.68
	c0,11.46-3.51,21.22-10.52,29.26c-7.19,8.04-18.14,12.06-32.85,12.06c-33.88,0-51.59-18.99-53.13-56.98l-92.4,6.93
	c1.37,42.44,15.15,73.75,41.33,93.94c26.51,20.36,63.13,30.54,109.84,30.54c5.01,0,9.92-0.11,14.72-0.35l-52.55,90.72
	c-2.38,4.11-2.39,9.19-0.01,13.31c2.37,4.11,6.76,6.65,11.52,6.65h484.66c4.75,0,9.14-2.54,11.52-6.65
	c2.37-4.12,2.37-9.2-0.02-13.31l-55.27-95.43c22.74-4.75,42.41-12.86,59.02-24.33h33.95l-24.15,41.7c-1.71,2.95-1.71,6.58-0.01,9.53
	s4.84,4.77,8.25,4.77h347.22c3.41,0,6.56-1.82,8.26-4.77s1.69-6.59-0.01-9.53l-9.06-15.65h277.12V450.14z M-813.81,436.98
	l60.71,104.81h-121.41L-813.81,436.98z M-1114.28,453.74l38.77,66.95c-25.46-4.47-38.86-23.1-40.19-55.92l-5.2,0.39L-1114.28,453.74
	z M-1029.72,509.69c-4.06,4.54-9.31,7.79-15.77,9.77l-53.43-92.25l21.46-37.04v44.58c38.84,1.37,58.26,16.59,58.26,45.68
	C-1019.2,491.89-1022.71,501.65-1029.72,509.69z M-1027.92,335.68c0,13.52-5.22,23.7-15.66,30.54c-8.19,5.42-16.78,8.74-25.79,9.97
	l35.66-61.56C-1029.85,320.45-1027.92,327.46-1027.92,335.68z M-1105.43,340.04c1.88-27.03,15.05-40.55,39.52-40.55
	c4.07,0,7.85,0.41,11.36,1.24l-58.81,101.54l-37.44-64.64L-1105.43,340.04z M-983.29,679.91h-438.51l50.82-87.74
	c25.12-4.57,46.65-13.08,64.59-25.51c28.4-19.67,42.6-46.62,42.6-80.84c0-19.98-5.23-37.19-15.68-51.65l76.93-132.81l4.55,7.85
	c-2.1,7.97-3.41,16.53-3.94,25.7l19.42,1.03l53.78,92.86l-22.37,38.62l-56.99,4.28c0.84,26.04,6.35,47.9,16.55,65.56l-6.24,10.77
	c-2.24,3.86-2.25,8.63-0.02,12.5s6.36,6.26,10.83,6.26h21.74c26.39,19.6,62.5,29.39,108.31,29.39c8.49,0,16.67-0.33,24.56-0.99
	L-983.29,679.91z M-919.04,541.79c11.25-15.78,16.88-34.43,16.88-55.97c0-21.39-5.99-39.61-17.97-54.67
	c-11.98-15.05-28.66-24.89-50.05-29.51c16.94-5.14,30.37-14.38,40.3-27.72c9.92-13.17,14.88-28.23,14.88-45.17
	c0-28.23-11.72-52.01-35.16-71.35c-10.54-8.62-23.47-15.3-38.8-20.03l29.77-51.4l129.15,222.98v18.04l-66.49,114.8H-919.04z
	 M-596.23,603.74h-314.16l21.4-36.95h157.58c4.46,0,8.59-2.39,10.83-6.26c2.23-3.87,2.22-8.64-0.02-12.5l-67.49-116.53
	c11.99-0.98,21.61-2.46,28.88-4.45c14.37-3.94,26.44-11.04,36.19-21.31c2.72-2.77,5.14-5.55,7.26-8.37l72.56,125.27v70.2h40.66
	L-596.23,603.74z"/>
<g>
	<g>
		<path class="st1" d="M-720.6,548.03l-67.49-116.53l-11.27-19.46l-11.97,20.67c-1.6,0.04-3.23,0.08-4.88,0.12l2.4,4.15
			l60.71,104.81h-165.94c-6.63,9.29-15.2,17.58-25.73,24.87c-0.06,0.04-0.13,0.09-0.19,0.13h213.55c4.46,0,8.59-2.39,10.83-6.26
			C-718.35,556.66-718.36,551.89-720.6,548.03z M-1077.46,376.74v13.43l8.09-13.98C-1072.03,376.56-1074.73,376.74-1077.46,376.74z
			 M-1166.77,565.64c-10.11-7.8-18.38-17.26-24.77-28.38l-6.24,10.77c-2.24,3.86-2.25,8.63-0.02,12.5s6.36,6.26,10.83,6.26h21.74
			C-1165.75,566.42-1166.26,566.03-1166.77,565.64z M-1077.46,376.74v13.43l8.09-13.98
			C-1072.03,376.56-1074.73,376.74-1077.46,376.74z M-1038.19,309.24c-4.53-4.19-9.98-7.03-16.36-8.51l-58.81,101.54l-15.37,26.53
			l-22.37,38.62l30.2-2.26l6.62-11.42l15.36-26.53l21.46-37.04l8.09-13.98l35.66-61.56C-1034.99,312.7-1036.48,310.9-1038.19,309.24
			z M-1038.19,309.24c-4.53-4.19-9.98-7.03-16.36-8.51l-58.81,101.54l-15.37,26.53l14.45,24.94l15.36-26.53l21.46-37.04l8.09-13.98
			l35.66-61.56C-1034.99,312.7-1036.48,310.9-1038.19,309.24z M-1038.19,309.24c-4.53-4.19-9.98-7.03-16.36-8.51l-58.81,101.54
			l-15.37,26.53l14.45,24.94l15.36-26.53l21.46-37.04l8.09-13.98l35.66-61.56C-1034.99,312.7-1036.48,310.9-1038.19,309.24z
			 M-1038.19,309.24c-4.53-4.19-9.98-7.03-16.36-8.51l-58.81,101.54l-15.37,26.53l14.45,24.94l15.36-26.53l21.46-37.04l8.09-13.98
			l35.66-61.56C-1034.99,312.7-1036.48,310.9-1038.19,309.24z M-1038.19,309.24c-4.53-4.19-9.98-7.03-16.36-8.51l-58.81,101.54
			l-15.37,26.53l14.45,24.94l15.36-26.53l21.46-37.04l8.09-13.98l35.66-61.56C-1034.99,312.7-1036.48,310.9-1038.19,309.24z
			 M-1038.19,309.24c-4.53-4.19-9.98-7.03-16.36-8.51l-58.81,101.54l-15.37,26.53l14.45,24.94l15.36-26.53l21.46-37.04l8.09-13.98
			l35.66-61.56C-1034.99,312.7-1036.48,310.9-1038.19,309.24z M-1038.19,309.24c-4.53-4.19-9.98-7.03-16.36-8.51l-58.81,101.54
			l-15.37,26.53l14.45,24.94l15.36-26.53l21.46-37.04l8.09-13.98l35.66-61.56C-1034.99,312.7-1036.48,310.9-1038.19,309.24z
			 M-1038.19,309.24c-4.53-4.19-9.98-7.03-16.36-8.51l-58.81,101.54l-15.37,26.53l14.45,24.94l15.36-26.53l21.46-37.04l8.09-13.98
			l35.66-61.56C-1034.99,312.7-1036.48,310.9-1038.19,309.24z M-816.83,381.88l-131.55-227.12c-2.23-3.86-6.35-6.23-10.81-6.23
			c-4.46,0-8.58,2.37-10.82,6.23l-44.49,76.82c9.15,1.41,17.66,3.34,25.54,5.79l29.77-51.4l129.15,222.98l5.22,9.02l14.45-24.93
			L-816.83,381.88z M-1054.55,300.73l-58.81,101.54l-15.37,26.53l14.45,24.94l15.36-26.53l21.46-37.04l8.09-13.98l35.66-61.56
			c-1.28-1.93-2.77-3.73-4.48-5.39C-1042.72,305.05-1048.17,302.21-1054.55,300.73z M-1038.19,309.24
			c-4.53-4.19-9.98-7.03-16.36-8.51l-58.81,101.54l-15.37,26.53l14.45,24.94l15.36-26.53l21.46-37.04l8.09-13.98l35.66-61.56
			C-1034.99,312.7-1036.48,310.9-1038.19,309.24z M-1038.19,309.24c-4.53-4.19-9.98-7.03-16.36-8.51l-58.81,101.54l-15.37,26.53
			l14.45,24.94l15.36-26.53l21.46-37.04l8.09-13.98l35.66-61.56C-1034.99,312.7-1036.48,310.9-1038.19,309.24z M-1038.19,309.24
			c-4.53-4.19-9.98-7.03-16.36-8.51l-58.81,101.54l-15.37,26.53l14.45,24.94l15.36-26.53l21.46-37.04l8.09-13.98l35.66-61.56
			C-1034.99,312.7-1036.48,310.9-1038.19,309.24z M-1038.19,309.24c-4.53-4.19-9.98-7.03-16.36-8.51l-58.81,101.54l-15.37,26.53
			l14.45,24.94l15.36-26.53l21.46-37.04l8.09-13.98l35.66-61.56C-1034.99,312.7-1036.48,310.9-1038.19,309.24z M-1038.19,309.24
			c-4.53-4.19-9.98-7.03-16.36-8.51l-58.81,101.54l-15.37,26.53l14.45,24.94l15.36-26.53l21.46-37.04l8.09-13.98l35.66-61.56
			C-1034.99,312.7-1036.48,310.9-1038.19,309.24z M-1038.19,309.24c-4.53-4.19-9.98-7.03-16.36-8.51l-58.81,101.54l-15.37,26.53
			l14.45,24.94l15.36-26.53l21.46-37.04l8.09-13.98l35.66-61.56C-1034.99,312.7-1036.48,310.9-1038.19,309.24z M-1038.19,309.24
			c-4.53-4.19-9.98-7.03-16.36-8.51l-58.81,101.54l-15.37,26.53l14.45,24.94l15.36-26.53l21.46-37.04l8.09-13.98l35.66-61.56
			C-1034.99,312.7-1036.48,310.9-1038.19,309.24z"/>
	</g>
	<g>
		<path class="st1" d="M-816.21,432.83c-4.41,0.08-9.02,0.12-13.83,0.12v-5.96l-66.49,114.8h22.02l60.7-104.81l2.48-4.27
			C-812.93,432.75-814.56,432.79-816.21,432.83z M-816.21,432.83c-4.41,0.08-9.02,0.12-13.83,0.12v-5.96l-66.49,114.8h22.02
			l60.7-104.81l2.48-4.27C-812.93,432.75-814.56,432.79-816.21,432.83z M-816.21,432.83c-4.41,0.08-9.02,0.12-13.83,0.12v-5.96
			l-66.49,114.8h22.02l60.7-104.81l2.48-4.27C-812.93,432.75-814.56,432.79-816.21,432.83z M-816.21,432.83
			c-4.41,0.08-9.02,0.12-13.83,0.12v-5.96l-66.49,114.8h22.02l60.7-104.81l2.48-4.27C-812.93,432.75-814.56,432.79-816.21,432.83z
			 M-705.59,376.89c-1.73,6.97-5.12,13.8-10.17,20.48l72.56,125.27v-15.26h13.19L-705.59,376.89z M-830.04,432.95v-5.96
			l-66.49,114.8h22.02l60.7-104.81l2.48-4.27c-1.6,0.04-3.23,0.08-4.88,0.12C-820.62,432.91-825.23,432.95-830.04,432.95z
			 M-816.21,432.83c-4.41,0.08-9.02,0.12-13.83,0.12v-5.96l-66.49,114.8h22.02l60.7-104.81l2.48-4.27
			C-812.93,432.75-814.56,432.79-816.21,432.83z M-816.21,432.83c-4.41,0.08-9.02,0.12-13.83,0.12v-5.96l-66.49,114.8h22.02
			l60.7-104.81l2.48-4.27C-812.93,432.75-814.56,432.79-816.21,432.83z M-816.21,432.83c-4.41,0.08-9.02,0.12-13.83,0.12v-5.96
			l-66.49,114.8h22.02l60.7-104.81l2.48-4.27C-812.93,432.75-814.56,432.79-816.21,432.83z M-816.21,432.83
			c-4.41,0.08-9.02,0.12-13.83,0.12v-5.96l-66.49,114.8h22.02l60.7-104.81l2.48-4.27C-812.93,432.75-814.56,432.79-816.21,432.83z
			 M-571.45,608.49l-9.06-15.65h-22.03l6.31,10.9h-314.16l21.4-36.95l14.48-25l60.7-104.81l2.48-4.27c-1.6,0.04-3.23,0.08-4.88,0.12
			c-4.41,0.08-9.02,0.12-13.83,0.12v-5.96l-66.49,114.8l-14.48,25l-24.15,41.7c-1.71,2.95-1.71,6.58-0.01,9.53s4.84,4.77,8.25,4.77
			h347.22c3.41,0,6.56-1.82,8.26-4.77S-569.75,611.43-571.45,608.49z M-816.21,432.83l2.4,4.15l2.48-4.27
			C-812.93,432.75-814.56,432.79-816.21,432.83z M-816.21,432.83l2.4,4.15l2.48-4.27C-812.93,432.75-814.56,432.79-816.21,432.83z
			 M-816.21,432.83l2.4,4.15l2.48-4.27C-812.93,432.75-814.56,432.79-816.21,432.83z M-801.63,377.94c1.02-0.45,1.99-0.94,2.9-1.46
			c7.18-4.27,11.63-9.15,13.34-14.62c1.16-3.46,1.99-8.88,2.5-16.27L-801.63,377.94z M-816.21,432.83l2.4,4.15l2.48-4.27
			C-812.93,432.75-814.56,432.79-816.21,432.83z M-816.21,432.83l2.4,4.15l2.48-4.27C-812.93,432.75-814.56,432.79-816.21,432.83z
			 M-816.21,432.83l2.4,4.15l2.48-4.27C-812.93,432.75-814.56,432.79-816.21,432.83z"/>
	</g>
	<g>
		<path class="st1" d="M-948.71,686.55l-55.27-95.43l-14.09-24.33h-30.74l16.45,28.4l49.07,84.72h-438.51l50.82-87.74
			c-10.34,1.89-21.29,3.11-32.85,3.66l-52.55,90.72c-2.38,4.11-2.39,9.19-0.01,13.31c2.37,4.11,6.76,6.65,11.52,6.65h484.66
			c4.75,0,9.14-2.54,11.52-6.65C-946.32,695.74-946.32,690.66-948.71,686.55z M-1045.49,519.46l-53.43-92.25l-14.44-24.94
			l-37.44-64.64l-33.81-58.37l-6.43-11.1c-2.37-4.11-6.76-6.63-11.5-6.63c-4.75,0-9.13,2.52-11.51,6.63l-85.1,146.92
			c6.61,4.45,12.42,9.81,17.4,16.07c0.79,0.99,1.55,2,2.28,3.02l76.93-132.81l4.55,7.85l15.48,26.73l53.78,92.86l14.45,24.94
			l38.77,66.95l12.22,21.1h30.74L-1045.49,519.46z"/>
	</g>
</g>
<g>
	<path class="st1" d="M-1291.5,373.92c9.92-13.17,14.88-28.23,14.88-45.17c0-28.23-11.72-52.01-35.16-71.35
		c-23.44-19.16-58.69-28.75-105.74-28.75c-44.14,0-78.96,8.82-104.46,26.44c-25.66,17.62-39.52,44.23-41.58,79.82l96.51,5.13
		c1.88-27.03,15.05-40.55,39.52-40.55c11.46,0,20.7,3.25,27.72,9.75c6.84,6.67,10.26,15.49,10.26,26.44
		c0,13.52-5.22,23.7-15.65,30.54c-10.61,7.02-21.91,10.52-33.88,10.52v58.01c38.84,1.37,58.26,16.59,58.26,45.68
		c0,11.46-3.51,21.22-10.52,29.26c-7.19,8.04-18.14,12.06-32.85,12.06c-33.88,0-51.59-18.99-53.13-56.98l-92.4,6.93
		c1.37,42.44,15.15,73.75,41.33,93.94c26.51,20.36,63.13,30.54,109.84,30.54c5.01,0,9.92-0.11,14.72-0.35l104.68-180.75
		c-9.27-6.26-20.16-10.74-32.65-13.44C-1314.86,396.5-1301.43,387.26-1291.5,373.92z M-1279.47,434.17l-91.51,158
		c25.12-4.57,46.65-13.08,64.59-25.51c28.4-19.67,42.6-46.62,42.6-80.84C-1263.79,465.84-1269.02,448.63-1279.47,434.17z"/>
	<path class="st1" d="M-1055.9,228.65c-44.14,0-78.96,8.82-104.45,26.44c-9.82,6.74-17.92,14.8-24.26,24.17
		c-6,8.82-10.46,18.8-13.38,29.95c-2.1,7.97-3.41,16.53-3.94,25.7l19.42,1.03l31.71,1.69l45.37,2.41
		c1.88-27.03,15.05-40.55,39.52-40.55c4.07,0,7.85,0.41,11.36,1.24l40.05-69.15C-1027.1,229.63-1040.9,228.65-1055.9,228.65z
		 M-920.13,431.15c-11.98-15.05-28.66-24.89-50.05-29.51c16.94-5.14,30.37-14.38,40.3-27.72c9.92-13.17,14.88-28.23,14.88-45.17
		c0-28.23-11.72-52.01-35.16-71.35c-10.54-8.62-23.47-15.3-38.8-20.03l-44.75,77.26c3.86,5.82,5.79,12.83,5.79,21.05
		c0,13.52-5.22,23.7-15.66,30.54c-8.19,5.42-16.78,8.74-25.79,9.97c-2.66,0.37-5.36,0.55-8.09,0.55v58.01
		c38.84,1.37,58.26,16.59,58.26,45.68c0,11.46-3.51,21.22-10.52,29.26c-4.06,4.54-9.31,7.79-15.77,9.77
		c-4.98,1.53-10.67,2.29-17.08,2.29c-4.61,0-8.93-0.35-12.94-1.06c-25.46-4.47-38.86-23.1-40.19-55.92l-5.2,0.39l-44.38,76.63
		h246.24c11.25-15.78,16.88-34.43,16.88-55.97C-902.16,464.43-908.15,446.21-920.13,431.15z M-1075.51,520.69
		c-25.46-4.47-38.86-23.1-40.19-55.92l-5.2,0.39l-44.38,76.63h101.99L-1075.51,520.69z M-1075.51,520.69
		c-25.46-4.47-38.86-23.1-40.19-55.92l-5.2,0.39l-44.38,76.63h101.99L-1075.51,520.69z M-1075.51,520.69
		c-25.46-4.47-38.86-23.1-40.19-55.92l-5.2,0.39l-44.38,76.63h101.99L-1075.51,520.69z M-1075.51,520.69
		c-25.46-4.47-38.86-23.1-40.19-55.92l-5.2,0.39l-44.38,76.63h101.99L-1075.51,520.69z M-1075.51,520.69
		c-25.46-4.47-38.86-23.1-40.19-55.92l-5.2,0.39l-44.38,76.63h101.99L-1075.51,520.69z M-1208.09,471.7
		c0.84,26.04,6.35,47.9,16.55,65.56l40.44-69.84L-1208.09,471.7z M-1075.51,520.69c-25.46-4.47-38.86-23.1-40.19-55.92l-5.2,0.39
		l-44.38,76.63h101.99L-1075.51,520.69z M-1208.09,471.7c0.84,26.04,6.35,47.9,16.55,65.56l40.44-69.84L-1208.09,471.7z
		 M-1075.51,520.69c-25.46-4.47-38.86-23.1-40.19-55.92l-5.2,0.39l-44.38,76.63h101.99L-1075.51,520.69z M-1208.09,471.7
		c0.84,26.04,6.35,47.9,16.55,65.56l40.44-69.84L-1208.09,471.7z M-1075.51,520.69c-25.46-4.47-38.86-23.1-40.19-55.92l-5.2,0.39
		l-44.38,76.63h101.99L-1075.51,520.69z M-1165.23,566.79c26.39,19.6,62.5,29.39,108.31,29.39c8.49,0,16.67-0.33,24.56-0.99
		c9.94-0.83,19.4-2.19,28.38-4.07c22.74-4.75,42.41-12.86,59.02-24.33H-1165.23z M-1075.51,520.69
		c-25.46-4.47-38.86-23.1-40.19-55.92l-5.2,0.39l-44.38,76.63h101.99L-1075.51,520.69z M-1208.09,471.7
		c0.84,26.04,6.35,47.9,16.55,65.56l40.44-69.84L-1208.09,471.7z M-1075.51,520.69c-25.46-4.47-38.86-23.1-40.19-55.92l-5.2,0.39
		l-44.38,76.63h101.99L-1075.51,520.69z M-1208.09,471.7c0.84,26.04,6.35,47.9,16.55,65.56l40.44-69.84L-1208.09,471.7z
		 M-1075.51,520.69c-25.46-4.47-38.86-23.1-40.19-55.92l-5.2,0.39l-44.38,76.63h101.99L-1075.51,520.69z M-1208.09,471.7
		c0.84,26.04,6.35,47.9,16.55,65.56l40.44-69.84L-1208.09,471.7z M-1075.51,520.69c-25.46-4.47-38.86-23.1-40.19-55.92l-5.2,0.39
		l-44.38,76.63h101.99L-1075.51,520.69z M-1208.09,471.7c0.84,26.04,6.35,47.9,16.55,65.56l40.44-69.84L-1208.09,471.7z
		 M-1075.51,520.69c-25.46-4.47-38.86-23.1-40.19-55.92l-5.2,0.39l-44.38,76.63h101.99L-1075.51,520.69z M-1075.51,520.69
		c-25.46-4.47-38.86-23.1-40.19-55.92l-5.2,0.39l-44.38,76.63h101.99L-1075.51,520.69z M-1075.51,520.69
		c-25.46-4.47-38.86-23.1-40.19-55.92l-5.2,0.39l-44.38,76.63h101.99L-1075.51,520.69z M-1075.51,520.69
		c-25.46-4.47-38.86-23.1-40.19-55.92l-5.2,0.39l-44.38,76.63h101.99L-1075.51,520.69z M-1208.09,471.7
		c0.84,26.04,6.35,47.9,16.55,65.56l40.44-69.84L-1208.09,471.7z"/>
	<path class="st1" d="M-816.83,381.88c-4,0.51-8.41,0.76-13.21,0.76v44.35l5.22-9.02l14.45-24.93l8.74-15.1
		C-805.81,379.82-810.88,381.13-816.83,381.88z M-753.31,332.53l-46.05,79.51l-11.97,20.67c8.54-0.23,16.29-0.63,23.24-1.21
		c11.99-0.98,21.61-2.46,28.88-4.45c14.37-3.94,26.44-11.04,36.19-21.31c2.72-2.77,5.14-5.55,7.26-8.37L-753.31,332.53z
		 M-830.04,235.84v93.42h47.73c-0.06,6.23-0.26,11.67-0.58,16.33l21.34-36.85c1.7-2.94,4.84-4.75,8.24-4.75s6.54,1.81,8.25,4.75
		l39.47,68.15c0.2-0.82,0.38-1.64,0.54-2.46c2.05-10.61,3.08-30.2,3.08-58.77v-79.82H-830.04z"/>
	<path class="st1" d="M-643.2,522.64v70.2h40.66L-643.2,522.64z M-643.2,522.64v70.2h40.66L-643.2,522.64z M-643.2,522.64v70.2
		h40.66L-643.2,522.64z M-643.2,522.64v70.2h40.66L-643.2,522.64z M-643.2,522.64v70.2h40.66L-643.2,522.64z M-388.6,450.14v57.24
		h-84.44V321.3h33.88v-85.46H-643.2v85.46h32.08v186.08h-18.89l49.5,85.46h277.12v-142.7H-388.6z M-643.2,592.84h40.66l-40.66-70.2
		V592.84z M-643.2,522.64v70.2h40.66L-643.2,522.64z M-643.2,522.64v70.2h40.66L-643.2,522.64z M-643.2,522.64v70.2h40.66
		L-643.2,522.64z M-643.2,522.64v70.2h40.66L-643.2,522.64z"/>
</g>
<g>
	<g>
		<path class="st0" d="M1731.34,472.9l-249.06-164.69l-30.76-20.34l-6.2-4.1l-57.58-38.07l-216.99-143.49
			c-3.09-2.05-6.63-3.01-10.13-2.81c-2.74,0.12-5.45,0.93-7.94,2.42c-5.66,3.4-9.24,9.85-9.39,16.89l-1.33,64.75l16.64-28.86
			l19.38,33.63l0.71-34.61l35.34,23.38l101.59,67.18l57.58,38.07l58.3,38.56l30.76,20.34l223.65,147.88l-216.74,130.82l-31.55,19.04
			l-69.36,41.86l-60.83,36.71l-116.79,70.49l-25.35,15.3l0.94-46.1l-27.15,44.67l-9.52-17.27l-1.08,52.14
			c-0.15,7.04,3.15,13.62,8.68,17.26c1.81,1.19,3.79,2.02,5.82,2.45c4.11,0.88,8.46,0.18,12.25-2.11l226.43-136.65l60.81-36.71
			l14.37-8.67l31.54-19.04L1730.64,507c5.64-3.4,9.21-9.83,9.36-16.86C1740.14,483.11,1736.84,476.54,1731.34,472.9z"/>
	</g>
	<g>
		<path class="st0" d="M1174.57,108.51c-2.95-5.13-8.17-8.49-13.96-9.11c-0.66-0.07-1.33-0.12-2-0.12c-6.59,0-12.67,3.51-15.96,9.21
			l-75.21,130.4l-21,36.42l42.02,0.88l21-36.4l32.5-56.34l16.64-28.86l19.38,33.63l0.71-34.61l35.34,23.38L1174.57,108.51z
			 M1509.75,690.26l-21.36-37.05l-19.22-33.37l-31.55,19.04l19.23,33.37l5.01,8.71l-19.38-0.04l-74.22-0.18l-60.83,36.71l74.24,0.18
			l112.07,0.25c6.59,0.01,12.68-3.48,15.98-9.18C1513.02,702.99,1513.04,695.96,1509.75,690.26z M1071.99,680.07l-42.12-0.1
			l-174.05-0.4l88.87-154.1l21.52-37.3l-20.78-37.72l-21.52,37.3l-115.9,200.97c-3.27,5.69-3.27,12.7,0,18.39
			c3.29,5.7,9.34,9.21,15.92,9.23l226.28,0.52l42.12,0.1L1071.99,680.07z"/>
	</g>
	<g>
		<path class="st0" d="M1502.4,257.35c-3.17-5.76-9.18-9.42-15.76-9.55l-98.91-2.09l-72.11-1.53l57.58,38.07l72.11,1.53l8.59,0.18
			l-2.39,3.92l-20.01,32.93l30.76,20.34l20.01-32.93l19.7-32.42C1505.41,270.16,1505.57,263.13,1502.4,257.35z M1067.44,238.9
			l-252.07-5.35c-6.57-0.13-12.73,3.26-16.15,8.89c-3.4,5.63-3.55,12.66-0.37,18.42l125.07,226.9l20.78,37.72l21.52-37.3
			l-20.78-37.72l-98.88-179.38l199.88,4.24l42.02,0.88l21-36.4L1067.44,238.9z M1165.3,803.24l0.94-46.1l-27.15,44.67l-9.52-17.27
			l-37.24-67.58l-20.34-36.89l-42.12-0.1l20.34,36.89l71.98,130.6c3.17,5.76,9.17,9.39,15.74,9.52c1.74,0.04,3.43-0.16,5.07-0.59
			c4.55-1.21,8.55-4.13,11.05-8.25l36.6-60.19L1165.3,803.24z"/>
	</g>
</g>
<g>
	<path class="st1" d="M133.29,532.28l94.37-7.08c1.57,38.8,19.66,58.2,54.26,58.2c15.03,0,26.21-4.1,33.55-12.32
		c7.16-8.21,10.75-18.17,10.75-29.88c0-29.71-19.84-45.26-59.51-46.66v-59.24c12.23,0,23.77-3.58,34.6-10.75
		c10.66-6.99,15.99-17.39,15.99-31.2c0-11.18-3.5-20.19-10.49-27c-7.17-6.64-16.6-9.96-28.31-9.96c-24.99,0-38.45,13.81-40.37,41.42
		l-98.57-5.24c2.1-36.35,16.25-63.52,42.47-81.53c26.04-18,61.6-27,106.69-27c48.06,0,84.06,9.79,108,29.36
		c23.94,19.75,35.91,44.04,35.91,72.88c0,17.3-5.07,32.68-15.2,46.14c-10.14,13.63-23.86,23.07-41.16,28.31
		c21.84,4.72,38.88,14.77,51.12,30.15c12.23,15.38,18.35,33.99,18.35,55.84c0,34.96-14.51,62.48-43.52,82.58
		c-29.01,20.1-67.2,30.15-114.56,30.15c-47.71,0-85.11-10.4-112.2-31.2C148.76,607.6,134.69,575.62,133.29,532.28z"/>
	<path class="st1" d="M502.66,532.28l94.37-7.08c1.57,38.8,19.66,58.2,54.26,58.2c15.03,0,26.21-4.1,33.55-12.32
		c7.16-8.21,10.75-18.17,10.75-29.88c0-29.71-19.84-45.26-59.51-46.66v-59.24c12.23,0,23.77-3.58,34.6-10.75
		c10.66-6.99,15.99-17.39,15.99-31.2c0-11.18-3.5-20.19-10.49-27c-7.17-6.64-16.6-9.96-28.31-9.96c-24.99,0-38.45,13.81-40.37,41.42
		l-98.57-5.24c2.1-36.35,16.25-63.52,42.47-81.53c26.04-18,61.6-27,106.69-27c48.06,0,84.06,9.79,108,29.36
		c23.94,19.75,35.91,44.04,35.91,72.88c0,17.3-5.07,32.68-15.2,46.14c-10.14,13.63-23.86,23.07-41.16,28.31
		c21.84,4.72,38.88,14.77,51.12,30.15c12.23,15.38,18.35,33.99,18.35,55.84c0,34.96-14.51,62.48-43.52,82.58
		c-29.01,20.1-67.2,30.15-114.56,30.15c-47.71,0-85.11-10.4-112.2-31.2C518.12,607.6,504.05,575.62,502.66,532.28z"/>
	<path class="st1" d="M888.8,492.69v-51.38c13.98,0,24.64-2.1,31.98-6.29c7.34-4.37,11.88-9.35,13.63-14.94
		c1.92-5.77,2.97-16.86,3.15-33.29H888.8v-95.42h130.81v81.53c0,29.19-1.05,49.2-3.15,60.03c-2.1,11.01-8.22,21.67-18.35,31.98
		c-9.96,10.49-22.28,17.74-36.96,21.76C946.47,490.68,922.35,492.69,888.8,492.69z"/>
	<path class="st1" d="M1426.72,656.01h-347.08v-87.29h32.77V378.66h-32.77v-87.29h208.41v87.29h-34.6v190.06h86.25v-58.46h87.03
		V656.01z"/>
</g>
</svg>
