<?xml version="1.0" encoding="utf-8"?>
<!-- Generator: Adobe Illustrator 25.0.0, SVG Export Plug-In . SVG Version: 6.00 Build 0)  -->
<svg version="1.1" id="Calque_1" xmlns="http://www.w3.org/2000/svg" xmlns:xlink="http://www.w3.org/1999/xlink" x="0px" y="0px"
	 viewBox="0 0 1920 1080" style="enable-background:new 0 0 1920 1080;" xml:space="preserve">
<style type="text/css">
	.st0{fill:#1B1464;}
	.st1{fill:#0071BC;}
	.st2{filter:url(#Adobe_OpacityMaskFilter);}
	.st3{mask:url(#XMLID_2_);fill:#1B1464;}
	.st4{fill:#FFFFFF;stroke:#FFFFFF;stroke-miterlimit:10;}
	.st5{filter:url(#Adobe_OpacityMaskFilter_1_);}
	.st6{mask:url(#XMLID_3_);fill:#1B1464;}
</style>
<g>
	<path class="st0" d="M1593.17,562.12h-85.21v57.24h-84.44V433.28h33.88v-85.46h-204.04v85.46h32.08v186.08h-18.89l-75.58-130.49
		c0.2-0.82,0.38-1.64,0.54-2.46c2.05-10.61,3.08-30.2,3.08-58.77v-79.82h-128.07v93.42h47.73c-0.06,6.23-0.26,11.67-0.58,16.33
		l-18.74,32.35c-4.18,1.88-9.25,3.19-15.2,3.94L948.17,266.74c-2.23-3.86-6.35-6.23-10.81-6.23c-4.46,0-8.58,2.37-10.82,6.23
		l-44.49,76.82c-12.6-1.95-26.4-2.93-41.4-2.93c-44.14,0-78.96,8.82-104.45,26.44c-9.82,6.74-17.92,14.8-24.26,24.17l-6.43-11.1
		c-2.37-4.11-6.76-6.63-11.5-6.63c-4.75,0-9.13,2.52-11.51,6.63l-85.1,146.92c-9.27-6.26-20.16-10.74-32.65-13.44
		c16.94-5.14,30.37-14.38,40.3-27.72c9.92-13.17,14.88-28.23,14.88-45.17c0-28.23-11.72-52.01-35.16-71.35
		c-23.44-19.16-58.69-28.75-105.74-28.75c-44.14,0-78.96,8.82-104.46,26.44c-25.66,17.62-39.52,44.23-41.58,79.82l96.51,5.13
		c1.88-27.03,15.05-40.55,39.52-40.55c11.46,0,20.7,3.25,27.72,9.75c6.84,6.67,10.26,15.49,10.26,26.44
		c0,13.52-5.22,23.7-15.65,30.54c-10.61,7.02-21.91,10.52-33.88,10.52v58.01c38.84,1.37,58.26,16.59,58.26,45.68
		c0,11.46-3.51,21.22-10.52,29.26c-7.19,8.04-18.14,12.06-32.85,12.06c-33.88,0-51.59-18.99-53.13-56.98l-92.4,6.93
		c1.37,42.44,15.15,73.75,41.33,93.94c26.51,20.36,63.13,30.54,109.84,30.54c5.01,0,9.92-0.11,14.72-0.35l-52.55,90.72
		c-2.38,4.11-2.39,9.19-0.01,13.31c2.37,4.11,6.76,6.65,11.52,6.65h484.66c4.75,0,9.14-2.54,11.52-6.65
		c2.37-4.12,2.37-9.2-0.02-13.31l-55.27-95.43c22.74-4.75,42.41-12.86,59.02-24.33h33.95l-24.15,41.7
		c-1.71,2.95-1.71,6.58-0.01,9.53s4.84,4.77,8.25,4.77h347.22c3.41,0,6.56-1.82,8.26-4.77s1.69-6.59-0.01-9.53l-9.06-15.65h277.12
		V562.12z M1082.74,548.96l60.71,104.81h-121.41L1082.74,548.96z M782.27,565.72l38.77,66.95c-25.46-4.47-38.86-23.1-40.19-55.92
		l-5.2,0.39L782.27,565.72z M866.83,621.67c-4.06,4.54-9.31,7.79-15.77,9.77l-53.43-92.25l21.46-37.04v44.58
		c38.84,1.37,58.26,16.59,58.26,45.68C877.35,603.87,873.84,613.63,866.83,621.67z M868.63,447.66c0,13.52-5.22,23.7-15.66,30.54
		c-8.19,5.42-16.78,8.74-25.79,9.97l35.66-61.56C866.7,432.43,868.63,439.44,868.63,447.66z M791.12,452.02
		c1.88-27.03,15.05-40.55,39.52-40.55c4.07,0,7.85,0.41,11.36,1.24l-58.81,101.54l-37.44-64.64L791.12,452.02z M913.27,791.89
		H474.75l50.82-87.74c25.12-4.57,46.65-13.08,64.59-25.51c28.4-19.67,42.6-46.62,42.6-80.84c0-19.98-5.23-37.19-15.68-51.65
		l76.93-132.81l4.55,7.85c-2.1,7.97-3.41,16.53-3.94,25.7l19.42,1.03l53.78,92.86l-22.37,38.62l-56.99,4.28
		c0.84,26.04,6.35,47.9,16.55,65.56l-6.24,10.77c-2.24,3.86-2.25,8.63-0.02,12.5s6.36,6.26,10.83,6.26h21.74
		c26.39,19.6,62.5,29.39,108.31,29.39c8.49,0,16.67-0.33,24.56-0.99L913.27,791.89z M977.52,653.77
		c11.25-15.78,16.88-34.43,16.88-55.97c0-21.39-5.99-39.61-17.97-54.67c-11.98-15.05-28.66-24.89-50.05-29.51
		c16.94-5.14,30.37-14.38,40.3-27.72c9.92-13.17,14.88-28.23,14.88-45.17c0-28.23-11.72-52.01-35.16-71.35
		c-10.54-8.62-23.47-15.3-38.8-20.03l29.77-51.4l129.15,222.98v18.04l-66.49,114.8H977.52z M1300.32,715.72H986.17l21.4-36.95
		h157.58c4.46,0,8.59-2.39,10.83-6.26c2.23-3.87,2.22-8.64-0.02-12.5l-67.49-116.53c11.99-0.98,21.61-2.46,28.88-4.45
		c14.37-3.94,26.44-11.04,36.19-21.31c2.72-2.77,5.14-5.55,7.26-8.37l72.56,125.27v70.2h40.66L1300.32,715.72z"/>
	<g>
		<g>
			<path class="st1" d="M858.36,422.22c-4.53-4.19-9.98-7.03-16.36-8.51l-58.81,101.54l-15.37,26.53l14.45,24.94l15.36-26.53
				l21.47-37.04l8.08-13.98l35.67-61.56C861.56,425.68,860.07,423.88,858.36,422.22z M858.36,422.22
				c-4.53-4.19-9.98-7.03-16.36-8.51l-58.81,101.54l-15.37,26.53l14.45,24.94l15.36-26.53l21.47-37.04l8.08-13.98l35.67-61.56
				C861.56,425.68,860.07,423.88,858.36,422.22z M858.36,422.22c-4.53-4.19-9.98-7.03-16.36-8.51l-58.81,101.54l-15.37,26.53
				l14.45,24.94l15.36-26.53l21.47-37.04l8.08-13.98l35.67-61.56C861.56,425.68,860.07,423.88,858.36,422.22z M858.36,422.22
				c-4.53-4.19-9.98-7.03-16.36-8.51l-58.81,101.54l-15.37,26.53l14.45,24.94l15.36-26.53l21.47-37.04l8.08-13.98l35.67-61.56
				C861.56,425.68,860.07,423.88,858.36,422.22z M858.36,422.22c-4.53-4.19-9.98-7.03-16.36-8.51l-58.81,101.54l-15.37,26.53
				l14.45,24.94l15.36-26.53l21.47-37.04l8.08-13.98l35.67-61.56C861.56,425.68,860.07,423.88,858.36,422.22z M858.36,422.22
				c-4.53-4.19-9.98-7.03-16.36-8.51l-58.81,101.54l-15.37,26.53l14.45,24.94l15.36-26.53l21.47-37.04l8.08-13.98l35.67-61.56
				C861.56,425.68,860.07,423.88,858.36,422.22z M858.36,422.22c-4.53-4.19-9.98-7.03-16.36-8.51l-58.81,101.54l-15.37,26.53
				l14.45,24.94l15.36-26.53l21.47-37.04l8.08-13.98l35.67-61.56C861.56,425.68,860.07,423.88,858.36,422.22z M858.36,422.22
				c-4.53-4.19-9.98-7.03-16.36-8.51l-58.81,101.54l-15.37,26.53l14.45,24.94l15.36-26.53l21.47-37.04l8.08-13.98l35.67-61.56
				C861.56,425.68,860.07,423.88,858.36,422.22z M1079.73,494.86L948.17,267.74c-2.23-3.86-6.35-6.23-10.81-6.23
				c-4.46,0-8.57,2.37-10.82,6.23l-44.49,76.82c9.15,1.41,17.66,3.34,25.55,5.79l29.76-51.4l129.15,222.98l5.22,9.02l14.46-24.93
				L1079.73,494.86z M842,413.71l-58.81,101.54l-15.37,26.53l14.45,24.94l15.36-26.53l21.47-37.04l8.08-13.98l35.67-61.56
				c-1.29-1.93-2.78-3.73-4.49-5.39C853.83,418.03,848.38,415.19,842,413.71z M858.36,422.22c-4.53-4.19-9.98-7.03-16.36-8.51
				l-58.81,101.54l-15.37,26.53l14.45,24.94l15.36-26.53l21.47-37.04l8.08-13.98l35.67-61.56
				C861.56,425.68,860.07,423.88,858.36,422.22z M858.36,422.22c-4.53-4.19-9.98-7.03-16.36-8.51l-58.81,101.54l-15.37,26.53
				l14.45,24.94l15.36-26.53l21.47-37.04l8.08-13.98l35.67-61.56C861.56,425.68,860.07,423.88,858.36,422.22z M858.36,422.22
				c-4.53-4.19-9.98-7.03-16.36-8.51l-58.81,101.54l-15.37,26.53l14.45,24.94l15.36-26.53l21.47-37.04l8.08-13.98l35.67-61.56
				C861.56,425.68,860.07,423.88,858.36,422.22z M858.36,422.22c-4.53-4.19-9.98-7.03-16.36-8.51l-58.81,101.54l-15.37,26.53
				l14.45,24.94l15.36-26.53l21.47-37.04l8.08-13.98l35.67-61.56C861.56,425.68,860.07,423.88,858.36,422.22z M858.36,422.22
				c-4.53-4.19-9.98-7.03-16.36-8.51l-58.81,101.54l-15.37,26.53l14.45,24.94l15.36-26.53l21.47-37.04l8.08-13.98l35.67-61.56
				C861.56,425.68,860.07,423.88,858.36,422.22z M858.36,422.22c-4.53-4.19-9.98-7.03-16.36-8.51l-58.81,101.54l-15.37,26.53
				l14.45,24.94l15.36-26.53l21.47-37.04l8.08-13.98l35.67-61.56C861.56,425.68,860.07,423.88,858.36,422.22z M858.36,422.22
				c-4.53-4.19-9.98-7.03-16.36-8.51l-58.81,101.54l-15.37,26.53l14.45,24.94l15.36-26.53l21.47-37.04l8.08-13.98l35.67-61.56
				C861.56,425.68,860.07,423.88,858.36,422.22z M858.36,422.22c-4.53-4.19-9.98-7.03-16.36-8.51l-58.81,101.54l-15.37,26.53
				l-22.37,38.62l30.2-2.26l6.62-11.42l15.36-26.53l21.47-37.04l8.08-13.98l35.67-61.56C861.56,425.68,860.07,423.88,858.36,422.22z
				 M819.1,489.72v13.43l8.08-13.98C824.52,489.54,821.82,489.72,819.1,489.72z M729.79,678.62c-10.12-7.8-18.39-17.26-24.78-28.38
				l-6.24,10.77c-2.23,3.86-2.25,8.63-0.02,12.5s6.36,6.26,10.83,6.26h21.74C730.8,679.4,730.29,679.01,729.79,678.62z
				 M819.1,489.72v13.43l8.08-13.98C824.52,489.54,821.82,489.72,819.1,489.72z M1175.96,661.01l-67.49-116.53l-11.27-19.46
				l-11.97,20.67c-1.61,0.04-3.24,0.08-4.89,0.12l2.4,4.15l60.72,104.81H977.51c-6.63,9.29-15.2,17.58-25.72,24.87
				c-0.06,0.04-0.14,0.09-0.19,0.13h213.54c4.46,0,8.59-2.39,10.84-6.26C1178.21,669.64,1178.2,664.87,1175.96,661.01z"/>
		</g>
		<g>
			<path class="st1" d="M1080.34,545.81l2.4,4.15l2.49-4.27C1083.62,545.73,1081.99,545.77,1080.34,545.81z M1080.34,545.81
				l2.4,4.15l2.49-4.27C1083.62,545.73,1081.99,545.77,1080.34,545.81z M1080.34,545.81l2.4,4.15l2.49-4.27
				C1083.62,545.73,1081.99,545.77,1080.34,545.81z M1094.93,490.92c1.02-0.45,1.99-0.94,2.89-1.46
				c7.18-4.27,11.64-9.15,13.35-14.62c1.15-3.46,1.98-8.88,2.5-16.27L1094.93,490.92z M1080.34,545.81l2.4,4.15l2.49-4.27
				C1083.62,545.73,1081.99,545.77,1080.34,545.81z M1080.34,545.81l2.4,4.15l2.49-4.27
				C1083.62,545.73,1081.99,545.77,1080.34,545.81z M1080.34,545.81l2.4,4.15l2.49-4.27
				C1083.62,545.73,1081.99,545.77,1080.34,545.81z M1325.1,721.47l-9.06-15.65h-22.03l6.31,10.9H986.17l21.39-36.95l14.48-25
				l60.7-104.81l2.49-4.27c-1.61,0.04-3.24,0.08-4.89,0.12c-4.4,0.08-9.02,0.12-13.83,0.12v-5.96l-66.49,114.8l-14.48,25
				l-24.15,41.7c-1.71,2.95-1.71,6.58-0.01,9.53c1.7,2.95,4.85,4.77,8.25,4.77h347.22c3.41,0,6.57-1.82,8.26-4.77
				C1326.81,728.05,1326.8,724.41,1325.1,721.47z M1080.34,545.81c-4.4,0.08-9.02,0.12-13.83,0.12v-5.96l-66.49,114.8h22.02
				l60.7-104.81l2.49-4.27C1083.62,545.73,1081.99,545.77,1080.34,545.81z M1080.34,545.81c-4.4,0.08-9.02,0.12-13.83,0.12v-5.96
				l-66.49,114.8h22.02l60.7-104.81l2.49-4.27C1083.62,545.73,1081.99,545.77,1080.34,545.81z M1080.34,545.81
				c-4.4,0.08-9.02,0.12-13.83,0.12v-5.96l-66.49,114.8h22.02l60.7-104.81l2.49-4.27C1083.62,545.73,1081.99,545.77,1080.34,545.81z
				 M1080.34,545.81c-4.4,0.08-9.02,0.12-13.83,0.12v-5.96l-66.49,114.8h22.02l60.7-104.81l2.49-4.27
				C1083.62,545.73,1081.99,545.77,1080.34,545.81z M1080.34,545.81c-4.4,0.08-9.02,0.12-13.83,0.12v-5.96l-66.49,114.8h22.02
				l60.7-104.81l2.49-4.27C1083.62,545.73,1081.99,545.77,1080.34,545.81z M1190.97,489.87c-1.74,6.97-5.13,13.8-10.18,20.48
				l72.56,125.27v-15.26h13.19L1190.97,489.87z M1066.51,545.93v-5.96l-66.49,114.8h22.02l60.7-104.81l2.49-4.27
				c-1.61,0.04-3.24,0.08-4.89,0.12C1075.94,545.89,1071.32,545.93,1066.51,545.93z M1080.34,545.81c-4.4,0.08-9.02,0.12-13.83,0.12
				v-5.96l-66.49,114.8h22.02l60.7-104.81l2.49-4.27C1083.62,545.73,1081.99,545.77,1080.34,545.81z M1080.34,545.81
				c-4.4,0.08-9.02,0.12-13.83,0.12v-5.96l-66.49,114.8h22.02l60.7-104.81l2.49-4.27C1083.62,545.73,1081.99,545.77,1080.34,545.81z
				 M1080.34,545.81c-4.4,0.08-9.02,0.12-13.83,0.12v-5.96l-66.49,114.8h22.02l60.7-104.81l2.49-4.27
				C1083.62,545.73,1081.99,545.77,1080.34,545.81z M1080.34,545.81c-4.4,0.08-9.02,0.12-13.83,0.12v-5.96l-66.49,114.8h22.02
				l60.7-104.81l2.49-4.27C1083.62,545.73,1081.99,545.77,1080.34,545.81z"/>
		</g>
		<g>
			<path class="st1" d="M851.06,632.44l-53.43-92.25l-14.44-24.94l-37.44-64.64l-31.71-1.69l53.78,92.86l14.45,24.94l38.77,66.95
				l12.22,21.1H864L851.06,632.44z M694.01,374.51c-4.75,0-9.13,2.52-11.51,6.63l-85.1,146.92c6.61,4.45,12.42,9.81,17.4,16.07
				c0.8,0.99,1.55,2,2.28,3.02l76.93-132.81l4.55,7.85c2.92-11.15,7.38-21.13,13.38-29.95l-6.43-11.1
				C703.14,377.03,698.75,374.51,694.01,374.51z M947.85,799.53l-55.28-95.43l-14.09-24.33h-30.74l16.45,28.4l49.07,84.72H474.75
				l50.82-87.74c-10.34,1.89-21.28,3.11-32.84,3.66l-52.56,90.72c-2.38,4.11-2.38,9.19,0,13.31c2.37,4.11,6.75,6.65,11.51,6.65
				h484.67c4.75,0,9.13-2.54,11.51-6.65C950.23,808.72,950.23,803.64,947.85,799.53z"/>
		</g>
	</g>
	<g>
		<path class="st1" d="M617.08,547.15l-91.51,158c25.12-4.57,46.66-13.08,64.6-25.51c28.39-19.67,42.59-46.62,42.59-80.84
			C632.76,578.82,627.54,561.61,617.08,547.15z M605.05,486.9c9.93-13.17,14.88-28.23,14.88-45.17c0-28.23-11.72-52.01-35.16-71.35
			c-23.44-19.16-58.69-28.75-105.73-28.75c-44.15,0-78.97,8.82-104.47,26.44c-25.65,17.62-39.52,44.23-41.58,79.82l96.51,5.13
			c1.88-27.03,15.05-40.55,39.52-40.55c11.46,0,20.71,3.25,27.72,9.75c6.84,6.67,10.26,15.49,10.26,26.44
			c0,13.52-5.21,23.7-15.65,30.54c-10.61,7.02-21.91,10.52-33.87,10.52v58.01c38.83,1.37,58.25,16.59,58.25,45.68
			c0,11.46-3.5,21.22-10.52,29.26c-7.19,8.04-18.14,12.06-32.85,12.06c-33.88,0-51.59-18.99-53.13-56.98l-92.4,6.93
			c1.37,42.44,15.15,73.75,41.34,93.94c26.5,20.36,63.12,30.54,109.83,30.54c5.01,0,9.92-0.11,14.73-0.35L597.4,528.06
			c-9.27-6.26-20.16-10.74-32.65-13.44C581.69,509.48,595.12,500.24,605.05,486.9z"/>
		<path class="st1" d="M688.46,584.68c0.84,26.04,6.35,47.9,16.55,65.56l40.44-69.84L688.46,584.68z M821.04,633.67
			c-25.46-4.47-38.86-23.1-40.19-55.92l-5.2,0.39l-44.38,76.63h101.99L821.04,633.67z M821.04,633.67
			c-25.46-4.47-38.86-23.1-40.19-55.92l-5.2,0.39l-44.38,76.63h101.99L821.04,633.67z M821.04,633.67
			c-25.46-4.47-38.86-23.1-40.19-55.92l-5.2,0.39l-44.38,76.63h101.99L821.04,633.67z M821.04,633.67
			c-25.46-4.47-38.86-23.1-40.19-55.92l-5.2,0.39l-44.38,76.63h101.99L821.04,633.67z M688.46,584.68
			c0.84,26.04,6.35,47.9,16.55,65.56l40.44-69.84L688.46,584.68z M821.04,633.67c-25.46-4.47-38.86-23.1-40.19-55.92l-5.2,0.39
			l-44.38,76.63h101.99L821.04,633.67z M688.46,584.68c0.84,26.04,6.35,47.9,16.55,65.56l40.44-69.84L688.46,584.68z M821.04,633.67
			c-25.46-4.47-38.86-23.1-40.19-55.92l-5.2,0.39l-44.38,76.63h101.99L821.04,633.67z M688.46,584.68
			c0.84,26.04,6.35,47.9,16.55,65.56l40.44-69.84L688.46,584.68z M821.04,633.67c-25.46-4.47-38.86-23.1-40.19-55.92l-5.2,0.39
			l-44.38,76.63h101.99L821.04,633.67z M688.46,584.68c0.84,26.04,6.35,47.9,16.55,65.56l40.44-69.84L688.46,584.68z M821.04,633.67
			c-25.46-4.47-38.86-23.1-40.19-55.92l-5.2,0.39l-44.38,76.63h101.99L821.04,633.67z M731.32,679.77
			c26.39,19.6,62.5,29.39,108.31,29.39c8.49,0,16.67-0.33,24.56-0.99c9.94-0.83,19.41-2.19,28.38-4.07
			c22.74-4.75,42.41-12.86,59.03-24.33H731.32z M821.04,633.67c-25.46-4.47-38.86-23.1-40.19-55.92l-5.2,0.39l-44.38,76.63h101.99
			L821.04,633.67z M821.04,633.67c-25.46-4.47-38.86-23.1-40.19-55.92l-5.2,0.39l-44.38,76.63h101.99L821.04,633.67z M688.46,584.68
			c0.84,26.04,6.35,47.9,16.55,65.56l40.44-69.84L688.46,584.68z M821.04,633.67c-25.46-4.47-38.86-23.1-40.19-55.92l-5.2,0.39
			l-44.38,76.63h101.99L821.04,633.67z M688.46,584.68c0.84,26.04,6.35,47.9,16.55,65.56l40.44-69.84L688.46,584.68z M821.04,633.67
			c-25.46-4.47-38.86-23.1-40.19-55.92l-5.2,0.39l-44.38,76.63h101.99L821.04,633.67z M688.46,584.68
			c0.84,26.04,6.35,47.9,16.55,65.56l40.44-69.84L688.46,584.68z M821.04,633.67c-25.46-4.47-38.86-23.1-40.19-55.92l-5.2,0.39
			l-44.38,76.63h101.99L821.04,633.67z M821.04,633.67c-25.46-4.47-38.86-23.1-40.19-55.92l-5.2,0.39l-44.38,76.63h101.99
			L821.04,633.67z M821.04,633.67c-25.46-4.47-38.86-23.1-40.19-55.92l-5.2,0.39l-44.38,76.63h101.99L821.04,633.67z M821.04,633.67
			c-25.46-4.47-38.86-23.1-40.19-55.92l-5.2,0.39l-44.38,76.63h101.99L821.04,633.67z M821.04,633.67
			c-25.46-4.47-38.86-23.1-40.19-55.92l-5.2,0.39l-44.38,76.63h101.99L821.04,633.67z M976.43,544.13
			c-11.99-15.05-28.67-24.89-50.06-29.51c16.94-5.14,30.37-14.38,40.3-27.72c9.92-13.17,14.88-28.23,14.88-45.17
			c0-28.23-11.72-52.01-35.16-71.35c-10.54-8.62-23.47-15.3-38.79-20.03l-44.75,77.26c3.85,5.82,5.78,12.83,5.78,21.05
			c0,13.52-5.21,23.7-15.65,30.54c-8.19,5.42-16.79,8.74-25.8,9.97c-2.66,0.37-5.36,0.55-8.08,0.55v58.01
			c38.83,1.37,58.25,16.59,58.25,45.68c0,11.46-3.5,21.22-10.52,29.26c-4.06,4.54-9.31,7.79-15.77,9.77
			c-4.98,1.53-10.67,2.29-17.08,2.29c-4.61,0-8.93-0.35-12.94-1.06c-25.46-4.47-38.86-23.1-40.19-55.92l-5.2,0.39l-44.38,76.63
			h246.24c11.25-15.78,16.88-34.43,16.88-55.97C994.39,577.41,988.4,559.19,976.43,544.13z M840.65,341.63
			c-44.14,0-78.96,8.82-104.45,26.44c-9.82,6.74-17.91,14.8-24.26,24.17l33.81,58.37l45.37,2.41c1.88-27.03,15.05-40.55,39.52-40.55
			c4.07,0,7.85,0.41,11.36,1.24l40.05-69.15C869.45,342.61,855.65,341.63,840.65,341.63z M694.62,447.89l19.42,1.03l-15.48-26.73
			C696.46,430.16,695.15,438.72,694.62,447.89z"/>
		<path class="st1" d="M1066.51,348.82v93.42h47.73c-0.05,6.23-0.26,11.67-0.57,16.33l21.33-36.85c1.71-2.94,4.84-4.75,8.24-4.75
			c3.4,0,6.55,1.81,8.25,4.75l39.48,68.15c0.2-0.82,0.37-1.64,0.53-2.46c2.05-10.61,3.08-30.2,3.08-58.77v-79.82H1066.51z
			 M1143.24,445.51l-46.04,79.51l-11.97,20.67c8.53-0.23,16.28-0.63,23.24-1.21c11.99-0.98,21.6-2.46,28.87-4.45
			c14.38-3.94,26.45-11.04,36.2-21.31c2.71-2.77,5.14-5.55,7.25-8.37L1143.24,445.51z M1079.73,494.86c-4,0.51-8.42,0.76-13.22,0.76
			v44.35l5.22-9.02l14.46-24.93l8.74-15.1C1090.74,492.8,1085.68,494.11,1079.73,494.86z"/>
		<path class="st1" d="M1253.35,635.62v70.2h40.66L1253.35,635.62z M1253.35,635.62v70.2h40.66L1253.35,635.62z M1253.35,635.62
			v70.2h40.66L1253.35,635.62z M1253.35,635.62v70.2h40.66L1253.35,635.62z M1253.35,635.62v70.2h40.66L1253.35,635.62z
			 M1507.96,563.12v57.24h-84.45V434.28h33.88v-85.46h-204.04v85.46h32.09v186.08h-18.9l49.5,85.46h277.13v-142.7H1507.96z
			 M1253.35,705.82h40.66l-40.66-70.2V705.82z M1253.35,635.62v70.2h40.66L1253.35,635.62z M1253.35,635.62v70.2h40.66
			L1253.35,635.62z M1253.35,635.62v70.2h40.66L1253.35,635.62z M1253.35,635.62v70.2h40.66L1253.35,635.62z M1253.35,635.62v70.2
			h40.66L1253.35,635.62z"/>
	</g>
</g>
</svg>
