<?xml version="1.0" encoding="utf-8"?>
<!-- Generator: Adobe Illustrator 25.0.0, SVG Export Plug-In . SVG Version: 6.00 Build 0)  -->
<svg version="1.1" id="Calque_1" xmlns="http://www.w3.org/2000/svg" xmlns:xlink="http://www.w3.org/1999/xlink" x="0px" y="0px"
	 viewBox="0 0 1920 1080" style="enable-background:new 0 0 1920 1080;" xml:space="preserve">
<style type="text/css">
	.st0{fill:#1B1464;}
	.st1{fill:#0071BC;}
	.st2{filter:url(#Adobe_OpacityMaskFilter);}
	.st3{mask:url(#XMLID_2_);fill:#1B1464;}
	.st4{fill:#FFFFFF;stroke:#FFFFFF;stroke-miterlimit:10;}
	.st5{filter:url(#Adobe_OpacityMaskFilter_1_);}
	.st6{mask:url(#XMLID_3_);fill:#1B1464;}
</style>
<path class="st0" d="M1636.61,450.14h-85.21v57.24h-84.44V321.3h33.88v-85.46H1296.8v85.46h32.08v186.08h-18.89l-75.58-130.49
	c0.2-0.82,0.38-1.64,0.54-2.46c2.05-10.61,3.08-30.2,3.08-58.77v-79.82h-128.07v93.42h47.73c-0.06,6.23-0.26,11.67-0.58,16.33
	l-18.74,32.35c-4.18,1.88-9.25,3.19-15.2,3.94L991.62,154.76c-2.23-3.86-6.35-6.23-10.81-6.23c-4.46,0-8.58,2.37-10.82,6.23
	l-44.49,76.82c-12.6-1.95-26.4-2.93-41.4-2.93c-44.14,0-78.96,8.82-104.45,26.44c-9.82,6.74-17.92,14.8-24.26,24.17l-6.43-11.1
	c-2.37-4.11-6.76-6.63-11.5-6.63c-4.75,0-9.13,2.52-11.51,6.63l-85.1,146.92c-9.27-6.26-20.16-10.74-32.65-13.44
	c16.94-5.14,30.37-14.38,40.3-27.72c9.92-13.17,14.88-28.23,14.88-45.17c0-28.23-11.72-52.01-35.16-71.35
	c-23.44-19.16-58.69-28.75-105.74-28.75c-44.14,0-78.96,8.82-104.46,26.44c-25.66,17.62-39.52,44.23-41.58,79.82l96.51,5.13
	c1.88-27.03,15.05-40.55,39.52-40.55c11.46,0,20.7,3.25,27.72,9.75c6.84,6.67,10.26,15.49,10.26,26.44
	c0,13.52-5.22,23.7-15.65,30.54c-10.61,7.02-21.91,10.52-33.88,10.52v58.01c38.84,1.37,58.26,16.59,58.26,45.68
	c0,11.46-3.51,21.22-10.52,29.26c-7.19,8.04-18.14,12.06-32.85,12.06c-33.88,0-51.59-18.99-53.13-56.98l-92.4,6.93
	c1.37,42.44,15.15,73.75,41.33,93.94c26.51,20.36,63.13,30.54,109.84,30.54c5.01,0,9.92-0.11,14.72-0.35l-52.55,90.72
	c-2.38,4.11-2.39,9.19-0.01,13.31c2.37,4.11,6.76,6.65,11.52,6.65h484.66c4.75,0,9.14-2.54,11.52-6.65
	c2.37-4.12,2.37-9.2-0.02-13.31l-55.27-95.43c22.74-4.75,42.41-12.86,59.02-24.33h33.95l-24.15,41.7c-1.71,2.95-1.71,6.58-0.01,9.53
	s4.84,4.77,8.25,4.77h347.22c3.41,0,6.56-1.82,8.26-4.77s1.69-6.59-0.01-9.53l-9.06-15.65h277.12V450.14z M1126.19,436.98
	l60.71,104.81h-121.41L1126.19,436.98z M825.72,453.74l38.77,66.95c-25.46-4.47-38.86-23.1-40.19-55.92l-5.2,0.39L825.72,453.74z
	 M910.28,509.69c-4.06,4.54-9.31,7.79-15.77,9.77l-53.43-92.25l21.46-37.04v44.58c38.84,1.37,58.26,16.59,58.26,45.68
	C920.8,491.89,917.29,501.65,910.28,509.69z M912.08,335.68c0,13.52-5.22,23.7-15.66,30.54c-8.19,5.42-16.78,8.74-25.79,9.97
	l35.66-61.56C910.15,320.45,912.08,327.46,912.08,335.68z M834.57,340.04c1.88-27.03,15.05-40.55,39.52-40.55
	c4.07,0,7.85,0.41,11.36,1.24l-58.81,101.54l-37.44-64.64L834.57,340.04z M956.71,679.91H518.2l50.82-87.74
	c25.12-4.57,46.65-13.08,64.59-25.51c28.4-19.67,42.6-46.62,42.6-80.84c0-19.98-5.23-37.19-15.68-51.65l76.93-132.81l4.55,7.85
	c-2.1,7.97-3.41,16.53-3.94,25.7l19.42,1.03l53.78,92.86l-22.37,38.62l-56.99,4.28c0.84,26.04,6.35,47.9,16.55,65.56l-6.24,10.77
	c-2.24,3.86-2.25,8.63-0.02,12.5s6.36,6.26,10.83,6.26h21.74c26.39,19.6,62.5,29.39,108.31,29.39c8.49,0,16.67-0.33,24.56-0.99
	L956.71,679.91z M1020.96,541.79c11.25-15.78,16.88-34.43,16.88-55.97c0-21.39-5.99-39.61-17.97-54.67
	c-11.98-15.05-28.66-24.89-50.05-29.51c16.94-5.14,30.37-14.38,40.3-27.72c9.92-13.17,14.88-28.23,14.88-45.17
	c0-28.23-11.72-52.01-35.16-71.35c-10.54-8.62-23.47-15.3-38.8-20.03l29.77-51.4l129.15,222.98v18.04l-66.49,114.8H1020.96z
	 M1343.77,603.74h-314.16l21.4-36.95h157.58c4.46,0,8.59-2.39,10.83-6.26c2.23-3.87,2.22-8.64-0.02-12.5l-67.49-116.53
	c11.99-0.98,21.61-2.46,28.88-4.45c14.37-3.94,26.44-11.04,36.19-21.31c2.72-2.77,5.14-5.55,7.26-8.37l72.56,125.27v70.2h40.66
	L1343.77,603.74z"/>
<g>
	<g>
		<path class="st1" d="M1219.4,548.03l-67.49-116.53l-11.27-19.46l-11.97,20.67c-1.6,0.04-3.23,0.08-4.88,0.12l2.4,4.15
			l60.71,104.81h-165.94c-6.63,9.29-15.2,17.58-25.73,24.87c-0.06,0.04-0.13,0.09-0.19,0.13h213.55c4.46,0,8.59-2.39,10.83-6.26
			C1221.65,556.66,1221.64,551.89,1219.4,548.03z M862.54,376.74v13.43l8.09-13.98C867.97,376.56,865.27,376.74,862.54,376.74z
			 M773.23,565.64c-10.11-7.8-18.38-17.26-24.77-28.38l-6.24,10.77c-2.24,3.86-2.25,8.63-0.02,12.5s6.36,6.26,10.83,6.26h21.74
			C774.25,566.42,773.74,566.03,773.23,565.64z M862.54,376.74v13.43l8.09-13.98C867.97,376.56,865.27,376.74,862.54,376.74z
			 M901.81,309.24c-4.53-4.19-9.98-7.03-16.36-8.51l-58.81,101.54l-15.37,26.53l-22.37,38.62l30.2-2.26l6.62-11.42l15.36-26.53
			l21.46-37.04l8.09-13.98l35.66-61.56C905.01,312.7,903.52,310.9,901.81,309.24z M901.81,309.24c-4.53-4.19-9.98-7.03-16.36-8.51
			l-58.81,101.54l-15.37,26.53l14.45,24.94l15.36-26.53l21.46-37.04l8.09-13.98l35.66-61.56
			C905.01,312.7,903.52,310.9,901.81,309.24z M901.81,309.24c-4.53-4.19-9.98-7.03-16.36-8.51l-58.81,101.54l-15.37,26.53
			l14.45,24.94l15.36-26.53l21.46-37.04l8.09-13.98l35.66-61.56C905.01,312.7,903.52,310.9,901.81,309.24z M901.81,309.24
			c-4.53-4.19-9.98-7.03-16.36-8.51l-58.81,101.54l-15.37,26.53l14.45,24.94l15.36-26.53l21.46-37.04l8.09-13.98l35.66-61.56
			C905.01,312.7,903.52,310.9,901.81,309.24z M901.81,309.24c-4.53-4.19-9.98-7.03-16.36-8.51l-58.81,101.54l-15.37,26.53
			l14.45,24.94l15.36-26.53l21.46-37.04l8.09-13.98l35.66-61.56C905.01,312.7,903.52,310.9,901.81,309.24z M901.81,309.24
			c-4.53-4.19-9.98-7.03-16.36-8.51l-58.81,101.54l-15.37,26.53l14.45,24.94l15.36-26.53l21.46-37.04l8.09-13.98l35.66-61.56
			C905.01,312.7,903.52,310.9,901.81,309.24z M901.81,309.24c-4.53-4.19-9.98-7.03-16.36-8.51l-58.81,101.54l-15.37,26.53
			l14.45,24.94l15.36-26.53l21.46-37.04l8.09-13.98l35.66-61.56C905.01,312.7,903.52,310.9,901.81,309.24z M901.81,309.24
			c-4.53-4.19-9.98-7.03-16.36-8.51l-58.81,101.54l-15.37,26.53l14.45,24.94l15.36-26.53l21.46-37.04l8.09-13.98l35.66-61.56
			C905.01,312.7,903.52,310.9,901.81,309.24z M1123.17,381.88L991.62,154.76c-2.23-3.86-6.35-6.23-10.81-6.23
			c-4.46,0-8.58,2.37-10.82,6.23l-44.49,76.82c9.15,1.41,17.66,3.34,25.54,5.79l29.77-51.4l129.15,222.98l5.22,9.02l14.45-24.93
			L1123.17,381.88z M885.45,300.73l-58.81,101.54l-15.37,26.53l14.45,24.94l15.36-26.53l21.46-37.04l8.09-13.98l35.66-61.56
			c-1.28-1.93-2.77-3.73-4.48-5.39C897.28,305.05,891.83,302.21,885.45,300.73z M901.81,309.24c-4.53-4.19-9.98-7.03-16.36-8.51
			l-58.81,101.54l-15.37,26.53l14.45,24.94l15.36-26.53l21.46-37.04l8.09-13.98l35.66-61.56
			C905.01,312.7,903.52,310.9,901.81,309.24z M901.81,309.24c-4.53-4.19-9.98-7.03-16.36-8.51l-58.81,101.54l-15.37,26.53
			l14.45,24.94l15.36-26.53l21.46-37.04l8.09-13.98l35.66-61.56C905.01,312.7,903.52,310.9,901.81,309.24z M901.81,309.24
			c-4.53-4.19-9.98-7.03-16.36-8.51l-58.81,101.54l-15.37,26.53l14.45,24.94l15.36-26.53l21.46-37.04l8.09-13.98l35.66-61.56
			C905.01,312.7,903.52,310.9,901.81,309.24z M901.81,309.24c-4.53-4.19-9.98-7.03-16.36-8.51l-58.81,101.54l-15.37,26.53
			l14.45,24.94l15.36-26.53l21.46-37.04l8.09-13.98l35.66-61.56C905.01,312.7,903.52,310.9,901.81,309.24z M901.81,309.24
			c-4.53-4.19-9.98-7.03-16.36-8.51l-58.81,101.54l-15.37,26.53l14.45,24.94l15.36-26.53l21.46-37.04l8.09-13.98l35.66-61.56
			C905.01,312.7,903.52,310.9,901.81,309.24z M901.81,309.24c-4.53-4.19-9.98-7.03-16.36-8.51l-58.81,101.54l-15.37,26.53
			l14.45,24.94l15.36-26.53l21.46-37.04l8.09-13.98l35.66-61.56C905.01,312.7,903.52,310.9,901.81,309.24z M901.81,309.24
			c-4.53-4.19-9.98-7.03-16.36-8.51l-58.81,101.54l-15.37,26.53l14.45,24.94l15.36-26.53l21.46-37.04l8.09-13.98l35.66-61.56
			C905.01,312.7,903.52,310.9,901.81,309.24z"/>
	</g>
	<g>
		<path class="st1" d="M1123.79,432.83c-4.41,0.08-9.02,0.12-13.83,0.12v-5.96l-66.49,114.8h22.02l60.7-104.81l2.48-4.27
			C1127.07,432.75,1125.44,432.79,1123.79,432.83z M1123.79,432.83c-4.41,0.08-9.02,0.12-13.83,0.12v-5.96l-66.49,114.8h22.02
			l60.7-104.81l2.48-4.27C1127.07,432.75,1125.44,432.79,1123.79,432.83z M1123.79,432.83c-4.41,0.08-9.02,0.12-13.83,0.12v-5.96
			l-66.49,114.8h22.02l60.7-104.81l2.48-4.27C1127.07,432.75,1125.44,432.79,1123.79,432.83z M1123.79,432.83
			c-4.41,0.08-9.02,0.12-13.83,0.12v-5.96l-66.49,114.8h22.02l60.7-104.81l2.48-4.27C1127.07,432.75,1125.44,432.79,1123.79,432.83z
			 M1234.41,376.89c-1.73,6.97-5.12,13.8-10.17,20.48l72.56,125.27v-15.26h13.19L1234.41,376.89z M1109.96,432.95v-5.96
			l-66.49,114.8h22.02l60.7-104.81l2.48-4.27c-1.6,0.04-3.23,0.08-4.88,0.12C1119.38,432.91,1114.77,432.95,1109.96,432.95z
			 M1123.79,432.83c-4.41,0.08-9.02,0.12-13.83,0.12v-5.96l-66.49,114.8h22.02l60.7-104.81l2.48-4.27
			C1127.07,432.75,1125.44,432.79,1123.79,432.83z M1123.79,432.83c-4.41,0.08-9.02,0.12-13.83,0.12v-5.96l-66.49,114.8h22.02
			l60.7-104.81l2.48-4.27C1127.07,432.75,1125.44,432.79,1123.79,432.83z M1123.79,432.83c-4.41,0.08-9.02,0.12-13.83,0.12v-5.96
			l-66.49,114.8h22.02l60.7-104.81l2.48-4.27C1127.07,432.75,1125.44,432.79,1123.79,432.83z M1123.79,432.83
			c-4.41,0.08-9.02,0.12-13.83,0.12v-5.96l-66.49,114.8h22.02l60.7-104.81l2.48-4.27C1127.07,432.75,1125.44,432.79,1123.79,432.83z
			 M1368.55,608.49l-9.06-15.65h-22.03l6.31,10.9h-314.16l21.4-36.95l14.48-25l60.7-104.81l2.48-4.27c-1.6,0.04-3.23,0.08-4.88,0.12
			c-4.41,0.08-9.02,0.12-13.83,0.12v-5.96l-66.49,114.8l-14.48,25l-24.15,41.7c-1.71,2.95-1.71,6.58-0.01,9.53s4.84,4.77,8.25,4.77
			h347.22c3.41,0,6.56-1.82,8.26-4.77S1370.25,611.43,1368.55,608.49z M1123.79,432.83l2.4,4.15l2.48-4.27
			C1127.07,432.75,1125.44,432.79,1123.79,432.83z M1123.79,432.83l2.4,4.15l2.48-4.27
			C1127.07,432.75,1125.44,432.79,1123.79,432.83z M1123.79,432.83l2.4,4.15l2.48-4.27
			C1127.07,432.75,1125.44,432.79,1123.79,432.83z M1138.37,377.94c1.02-0.45,1.99-0.94,2.9-1.46c7.18-4.27,11.63-9.15,13.34-14.62
			c1.16-3.46,1.99-8.88,2.5-16.27L1138.37,377.94z M1123.79,432.83l2.4,4.15l2.48-4.27
			C1127.07,432.75,1125.44,432.79,1123.79,432.83z M1123.79,432.83l2.4,4.15l2.48-4.27
			C1127.07,432.75,1125.44,432.79,1123.79,432.83z M1123.79,432.83l2.4,4.15l2.48-4.27
			C1127.07,432.75,1125.44,432.79,1123.79,432.83z"/>
	</g>
	<g>
		<path class="st1" d="M991.29,686.55l-55.27-95.43l-14.09-24.33h-30.74l16.45,28.4l49.07,84.72H518.2l50.82-87.74
			c-10.34,1.89-21.29,3.11-32.85,3.66l-52.55,90.72c-2.38,4.11-2.39,9.19-0.01,13.31c2.37,4.11,6.76,6.65,11.52,6.65h484.66
			c4.75,0,9.14-2.54,11.52-6.65C993.68,695.74,993.68,690.66,991.29,686.55z M894.51,519.46l-53.43-92.25l-14.44-24.94l-37.44-64.64
			l-33.81-58.37l-6.43-11.1c-2.37-4.11-6.76-6.63-11.5-6.63c-4.75,0-9.13,2.52-11.51,6.63l-85.1,146.92
			c6.61,4.45,12.42,9.81,17.4,16.07c0.79,0.99,1.55,2,2.28,3.02l76.93-132.81l4.55,7.85l15.48,26.73l53.78,92.86l14.45,24.94
			l38.77,66.95l12.22,21.1h30.74L894.51,519.46z"/>
	</g>
</g>
<g>
	<path class="st1" d="M648.5,373.92c9.92-13.17,14.88-28.23,14.88-45.17c0-28.23-11.72-52.01-35.16-71.35
		c-23.44-19.16-58.69-28.75-105.74-28.75c-44.14,0-78.96,8.82-104.46,26.44c-25.66,17.62-39.52,44.23-41.58,79.82l96.51,5.13
		c1.88-27.03,15.05-40.55,39.52-40.55c11.46,0,20.7,3.25,27.72,9.75c6.84,6.67,10.26,15.49,10.26,26.44
		c0,13.52-5.22,23.7-15.65,30.54c-10.61,7.02-21.91,10.52-33.88,10.52v58.01c38.84,1.37,58.26,16.59,58.26,45.68
		c0,11.46-3.51,21.22-10.52,29.26c-7.19,8.04-18.14,12.06-32.85,12.06c-33.88,0-51.59-18.99-53.13-56.98l-92.4,6.93
		c1.37,42.44,15.15,73.75,41.33,93.94c26.51,20.36,63.13,30.54,109.84,30.54c5.01,0,9.92-0.11,14.72-0.35l104.68-180.75
		c-9.27-6.26-20.16-10.74-32.65-13.44C625.14,396.5,638.57,387.26,648.5,373.92z M660.53,434.17l-91.51,158
		c25.12-4.57,46.65-13.08,64.59-25.51c28.4-19.67,42.6-46.62,42.6-80.84C676.21,465.84,670.98,448.63,660.53,434.17z"/>
	<path class="st1" d="M884.1,228.65c-44.14,0-78.96,8.82-104.45,26.44c-9.82,6.74-17.92,14.8-24.26,24.17
		c-6,8.82-10.46,18.8-13.38,29.95c-2.1,7.97-3.41,16.53-3.94,25.7l19.42,1.03l31.71,1.69l45.37,2.41
		c1.88-27.03,15.05-40.55,39.52-40.55c4.07,0,7.85,0.41,11.36,1.24l40.05-69.15C912.9,229.63,899.1,228.65,884.1,228.65z
		 M1019.87,431.15c-11.98-15.05-28.66-24.89-50.05-29.51c16.94-5.14,30.37-14.38,40.3-27.72c9.92-13.17,14.88-28.23,14.88-45.17
		c0-28.23-11.72-52.01-35.16-71.35c-10.54-8.62-23.47-15.3-38.8-20.03l-44.75,77.26c3.86,5.82,5.79,12.83,5.79,21.05
		c0,13.52-5.22,23.7-15.66,30.54c-8.19,5.42-16.78,8.74-25.79,9.97c-2.66,0.37-5.36,0.55-8.09,0.55v58.01
		c38.84,1.37,58.26,16.59,58.26,45.68c0,11.46-3.51,21.22-10.52,29.26c-4.06,4.54-9.31,7.79-15.77,9.77
		c-4.98,1.53-10.67,2.29-17.08,2.29c-4.61,0-8.93-0.35-12.94-1.06c-25.46-4.47-38.86-23.1-40.19-55.92l-5.2,0.39l-44.38,76.63
		h246.24c11.25-15.78,16.88-34.43,16.88-55.97C1037.84,464.43,1031.85,446.21,1019.87,431.15z M864.49,520.69
		c-25.46-4.47-38.86-23.1-40.19-55.92l-5.2,0.39l-44.38,76.63h101.99L864.49,520.69z M864.49,520.69
		c-25.46-4.47-38.86-23.1-40.19-55.92l-5.2,0.39l-44.38,76.63h101.99L864.49,520.69z M864.49,520.69
		c-25.46-4.47-38.86-23.1-40.19-55.92l-5.2,0.39l-44.38,76.63h101.99L864.49,520.69z M864.49,520.69
		c-25.46-4.47-38.86-23.1-40.19-55.92l-5.2,0.39l-44.38,76.63h101.99L864.49,520.69z M864.49,520.69
		c-25.46-4.47-38.86-23.1-40.19-55.92l-5.2,0.39l-44.38,76.63h101.99L864.49,520.69z M731.91,471.7
		c0.84,26.04,6.35,47.9,16.55,65.56l40.44-69.84L731.91,471.7z M864.49,520.69c-25.46-4.47-38.86-23.1-40.19-55.92l-5.2,0.39
		l-44.38,76.63h101.99L864.49,520.69z M731.91,471.7c0.84,26.04,6.35,47.9,16.55,65.56l40.44-69.84L731.91,471.7z M864.49,520.69
		c-25.46-4.47-38.86-23.1-40.19-55.92l-5.2,0.39l-44.38,76.63h101.99L864.49,520.69z M731.91,471.7
		c0.84,26.04,6.35,47.9,16.55,65.56l40.44-69.84L731.91,471.7z M864.49,520.69c-25.46-4.47-38.86-23.1-40.19-55.92l-5.2,0.39
		l-44.38,76.63h101.99L864.49,520.69z M774.77,566.79c26.39,19.6,62.5,29.39,108.31,29.39c8.49,0,16.67-0.33,24.56-0.99
		c9.94-0.83,19.4-2.19,28.38-4.07c22.74-4.75,42.41-12.86,59.02-24.33H774.77z M864.49,520.69c-25.46-4.47-38.86-23.1-40.19-55.92
		l-5.2,0.39l-44.38,76.63h101.99L864.49,520.69z M731.91,471.7c0.84,26.04,6.35,47.9,16.55,65.56l40.44-69.84L731.91,471.7z
		 M864.49,520.69c-25.46-4.47-38.86-23.1-40.19-55.92l-5.2,0.39l-44.38,76.63h101.99L864.49,520.69z M731.91,471.7
		c0.84,26.04,6.35,47.9,16.55,65.56l40.44-69.84L731.91,471.7z M864.49,520.69c-25.46-4.47-38.86-23.1-40.19-55.92l-5.2,0.39
		l-44.38,76.63h101.99L864.49,520.69z M731.91,471.7c0.84,26.04,6.35,47.9,16.55,65.56l40.44-69.84L731.91,471.7z M864.49,520.69
		c-25.46-4.47-38.86-23.1-40.19-55.92l-5.2,0.39l-44.38,76.63h101.99L864.49,520.69z M731.91,471.7
		c0.84,26.04,6.35,47.9,16.55,65.56l40.44-69.84L731.91,471.7z M864.49,520.69c-25.46-4.47-38.86-23.1-40.19-55.92l-5.2,0.39
		l-44.38,76.63h101.99L864.49,520.69z M864.49,520.69c-25.46-4.47-38.86-23.1-40.19-55.92l-5.2,0.39l-44.38,76.63h101.99
		L864.49,520.69z M864.49,520.69c-25.46-4.47-38.86-23.1-40.19-55.92l-5.2,0.39l-44.38,76.63h101.99L864.49,520.69z M864.49,520.69
		c-25.46-4.47-38.86-23.1-40.19-55.92l-5.2,0.39l-44.38,76.63h101.99L864.49,520.69z M731.91,471.7
		c0.84,26.04,6.35,47.9,16.55,65.56l40.44-69.84L731.91,471.7z"/>
	<path class="st1" d="M1123.17,381.88c-4,0.51-8.41,0.76-13.21,0.76v44.35l5.22-9.02l14.45-24.93l8.74-15.1
		C1134.19,379.82,1129.12,381.13,1123.17,381.88z M1186.69,332.53l-46.05,79.51l-11.97,20.67c8.54-0.23,16.29-0.63,23.24-1.21
		c11.99-0.98,21.61-2.46,28.88-4.45c14.37-3.94,26.44-11.04,36.19-21.31c2.72-2.77,5.14-5.55,7.26-8.37L1186.69,332.53z
		 M1109.96,235.84v93.42h47.73c-0.06,6.23-0.26,11.67-0.58,16.33l21.34-36.85c1.7-2.94,4.84-4.75,8.24-4.75s6.54,1.81,8.25,4.75
		l39.47,68.15c0.2-0.82,0.38-1.64,0.54-2.46c2.05-10.61,3.08-30.2,3.08-58.77v-79.82H1109.96z"/>
	<path class="st1" d="M1296.8,522.64v70.2h40.66L1296.8,522.64z M1296.8,522.64v70.2h40.66L1296.8,522.64z M1296.8,522.64v70.2
		h40.66L1296.8,522.64z M1296.8,522.64v70.2h40.66L1296.8,522.64z M1296.8,522.64v70.2h40.66L1296.8,522.64z M1551.4,450.14v57.24
		h-84.44V321.3h33.88v-85.46H1296.8v85.46h32.08v186.08h-18.89l49.5,85.46h277.12v-142.7H1551.4z M1296.8,592.84h40.66l-40.66-70.2
		V592.84z M1296.8,522.64v70.2h40.66L1296.8,522.64z M1296.8,522.64v70.2h40.66L1296.8,522.64z M1296.8,522.64v70.2h40.66
		L1296.8,522.64z M1296.8,522.64v70.2h40.66L1296.8,522.64z"/>
</g>
</svg>
